<svg version="1.1" id="Слой_1" xmlns="http://www.w3.org/2000/svg" xmlns:xlink="http://www.w3.org/1999/xlink" x="0px" y="0px"
     viewBox="300 300 500 400" width="100%" height="auto" xml:space="preserve">
  <desc>Bah_Collisions_all_v7.blend, (Blender 2.83.0)</desc>
  <polygon class="st0" appId="3-2b68a" points="591.8,468 593.8,468 593.8,467.3 596.2,467.3 596.2,462.2 591.8,462.2 "/>
  <polygon class="st0" appId="3-2b60c" points="550.8,509.3 546.4,509.3 546.4,512.4 550.8,512.4 "/>
  <polygon class="st0" appId="3-2b62c" points="573.5,509.3 569.1,509.3 569.1,512.4 573.5,512.4 "/>
  <polygon class="st0" appId="3-2b44" points="477.2,488.4 479.1,489.9 478.2,491.1 481.8,493.9 482.8,492.7 484,493.6 486.8,490.1 482.2,486.6
	481.3,487.7 481,487.5 481.9,486.4 481.7,486.2 481.5,486.5 480,485.3 480.2,485 480,484.9 "/>
  <polygon class="st0" appId="3-2b45" points="464,479.9 464.9,478.7 466.1,479.7 468.3,476.9 463.5,473.2 460.4,477.1 "/>
  <polygon class="st0" appId="3-2B42" points="471.1,485.5 476.1,479.1 470.5,474.7 465.5,481.1 "/>
  <polygon class="st0" appId="3-2b23" points="529.9,483.9 521.3,483.9 521.3,492.4 529.9,492.4 "/>
  <polygon class="st0" appId="3-2h17" points="423.5,373.4 410.4,377.9 413.2,386 427.6,381 425.3,374.3 424,374.8 "/>
  <polygon class="st0" appId="3-2h16b" points="409.7,375.8 410,375.7 410.7,377.5 415.4,375.9 413.5,370.4 408.5,372.2 "/>
  <polygon class="st0" appId="3-2h09" points="387.3,385.3 387.5,385.7 391,384.4 389.2,379.3 384.4,381 386,385.8 "/>
  <polygon class="st0" appId="3-2b96b" points="477.7,491.1 471.2,486 463.2,479.8 459.5,484.4 468,491.1 471.5,493.8 478.4,499.2 482.1,494.5 "/>
  <polygon class="st0" appId="3-2B91B" points="583,487.5 583,485.6 581.6,485.6 581.6,483.5 577.3,483.5 577.3,488.8 577.3,498.1 577.3,503.4
	581.6,503.4 581.6,501.2 583,501.2 583,499.4 583.3,499.4 583.3,487.5 "/>
  <polygon class="st0" appId="3-2b82c" points="412.7,435.1 417.6,433.4 416.5,430.3 416.5,430.3 411.7,432 "/>
  <polygon class="st0" appId="3-2b82" points="403,439.3 406.7,442.2 409.5,438.6 409.2,438.4 410.4,436.9 410.7,437.1 412.3,435 409.2,426
	393.7,431.4 398.5,445.1 "/>
  <polygon class="st0" appId="3-2b80" points="416.9,469.1 416.2,470.1 422.5,475 431.7,463.1 423.3,456.6 421.6,458.7 421.9,459 420.8,460.5
	420.5,460.2 414.1,468.4 414.9,469.1 415.6,468.1 "/>
  <polygon class="st0" appId="3-2b123a" points="507.1,473.8 500.4,473.8 499.3,475.3 498.1,474.4 494.5,479.1 500.2,483.5 514,483.5 514,477.7
	507.1,477.7 "/>
  <polygon class="st0" appId="3-2b02" points="529.9,497 524.4,497 524.4,502.9 529.9,502.9 "/>
  <polygon class="st0" appId="3-2b73" points="545.7,472.6 546,472.6 546,462.1 537.4,462.1 537.4,477.2 546,477.2 546,474.5 545.7,474.5 "/>
  <polygon class="st0" appId="3-2B68" points="596.9,472.6 596.9,474.5 596.5,474.5 596.5,477.2 605.3,477.2 605.3,462 596.5,462 596.5,472.6 "/>
  <polygon class="st0" appId="3-2b66c" points="612.3,498.6 612.3,503 614.2,503 615.3,503 615.3,498.6 "/>
  <polygon class="st0" appId="3-2b64a" points="597.2,512.7 597.2,517.9 599.6,517.9 599.6,518.5 601.6,518.5 601.6,512.7 "/>
  <polygon class="st0" appId="3-2b31c" points="471.6,461.2 463,454.4 459.7,458.5 468.4,465.3 "/>
  <polygon class="st0" appId="3-2b22" points="565.3,503 565.3,498 559.6,498 559.6,501.3 560.9,501.3 560.9,503 "/>
  <polygon class="st0" appId="3-2b31b" points="454,465.9 450.7,470.1 459.4,476.8 462.7,472.7 "/>
  <polygon class="st0" appId="3-2b97b" points="459.6,451.8 458.3,453.4 457.4,452.8 456.3,454.3 456,454 448.6,463.5 448.9,463.7 447.7,465.2
	448.6,465.8 447.3,467.4 450.7,470.1 454,465.9 459.7,458.5 463,454.4 "/>
  <polygon class="st0" appId="3-2h19" points="420.2,406.3 426.6,404.1 422,390.8 415.6,393 "/>
  <polygon class="st0" appId="3-2h16a" points="418.3,372.1 419,374 424.6,372.1 422.9,367.2 413.9,370.3 415.5,375.2 418.6,374.1 418,372.2 "/>
  <polygon class="st0" appId="3-2b13b" points="372.7,384.5 374.6,389.9 379.7,388.2 378.4,384.5 378.1,384.6 377.5,382.9 "/>
  <polygon class="st0" appId="3-2h03" points="405.2,413.1 402.7,405.6 393.8,408.7 395.9,414.8 397.3,414.3 397.8,415.6 "/>
  <polygon class="st0" appId="3-2B96" points="459.4,476.8 447.3,467.4 445.7,466.1 446.7,464.7 441.1,460.3 440,461.7 428.5,452.7 424.8,457.3
	432.2,463.1 430.3,465.5 433.8,468.2 435.6,465.8 450.1,477.1 453.5,479.8 459.5,484.4 463.2,479.8 "/>
  <polygon class="st0" appId="3-2b88a" points="494.4,460.5 494.8,460 493.2,458.8 489.6,463.4 493.1,466.1 496.3,462 "/>
  <polygon class="st0" appId="3-2b77c" points="453.5,479.8 450.1,477.1 448.2,479.5 451.6,482.2 "/>
  <polygon appId="3-2b87" class="st0" points="473.5,454.7 480.3,460 488.9,449.1 488.4,448.7 489,447.9 482.8,442.9 476.4,451.1 476.7,451.3
	475.5,452.8 475.2,452.6 "/>
  <polygon class="st0" appId="3-2b19" points="530.2,496.7 538,496.7 538,491.5 536.2,491.5 536.2,490.1 530.2,490.1 "/>
  <polygon class="st0" appId="3-2b04b" points="627.2,483.5 624.8,483.5 615.7,483.5 615.7,486 627.2,486 "/>
  <polygon class="st0" appId="3-2B08" points="559.6,493 565.9,493 565.9,484.2 564,484.2 564,483.8 560.9,483.8 560.9,485.6 559.6,485.6 "/>
  <polygon class="st0" appId="3-2b70a" points="571.5,469 569.1,469 569.1,474.2 573.5,474.2 573.5,468.3 571.5,468.3 "/>
  <polygon appId="3-2b63a" class="st0" points="597.2,524.8 601.6,524.8 601.6,518.9 597.2,518.9 "/>
  <polygon class="st0" appId="3-2b60a" points="550.8,512.7 546.4,512.7 546.4,518.5 550.8,518.5 "/>
  <polygon class="st0" appId="3-2b47" points="492.5,480 493.5,478.7 488.1,474.5 482.8,481.2 489.6,486.5 493.8,481.1 "/>
  <polygon class="st0" appId="3-2B34" points="475.6,464.7 473.2,462.8 473,463.1 471.5,462 466.1,468.8 471.4,473 475.9,467.2 474.5,466.1 "/>
  <polygon class="st0" appId="3-2b46" points="417.7,443.3 419.2,444.5 419,444.8 424.4,449 431.2,440.2 423.8,434.4 416.9,443.2 417.5,443.6 "/>
  <polygon appId="3-2h91a" class="st0" points="420.7,421.4 424.6,416.9 423.1,415.7 419.5,405.4 413.9,407.3 414.3,408.4 414.9,410.1 407.5,412.7
	409.5,418.4 414.6,416.6 "/>
  <polygon class="st0" appId="3-2H91C" points="409.5,418.4 407.5,412.7 396,416.6 396,416.4 390.8,418.2 390.8,418.4 389.4,418.9 391.4,424.6
	392.5,424.2 392.5,423.9 392.5,423.6 392.7,423.4 392.9,423.2 393.1,423.1 393.3,423 393.6,423 393.8,423.1 394.1,423.2
	394.3,423.4 394.4,423.6 406.9,419.2 "/>
  <polygon appId="3-2h14c" class="st0" points="358.7,354.7 357.6,355.1 359,359.2 359.9,361.6 361,361.3 362.9,367 371.4,364 370,360 369.2,360.3
	364.2,345.8 356.6,348.4 "/>
  <polygon class="st0" appId="3-2h16c" points="417.9,352.4 416.5,352.9 415.9,351.3 417.3,350.9 416.7,348.9 402.1,353.8 404.8,361.7 419.3,356.7 "/>
  <polygon class="st0" appId="3-2h11" points="400.3,368.9 388.1,373.1 391.2,382 403.4,377.8 401.1,371.3 400.8,371.4 400.2,369.6 400.5,369.5 "/>
  <polygon class="st0" appId="3-2h01" points="372.1,408.6 370.7,409.1 370.8,409.4 375.1,421.8 375.2,422 376.6,421.6 376.8,422.2 390.5,417.5
	390.6,417.9 395.9,416.1 393.2,408.5 391.2,402.2 390.9,401.4 385.4,403.2 371.9,407.9 "/>
  <polygon class="st0" appId="3-2b90" points="593,503.4 593,509.3 597.2,509.3 601.6,509.3 628.4,509.3 628.4,508.1 628.8,508.1 628.8,503.4
	615.3,503.3 614.2,503.3 606.4,503.4 604.3,503.4 594.9,503.4 "/>
  <polygon appId="3-2b85a" class="st0" points="457.3,438.1 460.9,433.5 457.4,430.8 453.8,435.4 "/>
  <polygon appId="3-2b85" class="st0" points="455.7,440.7 462.5,446.1 470.9,435.3 469.5,434.1 470.3,433 465,428.8 458.5,437.1 458.8,437.3
	457.6,438.8 457.3,438.6 "/>
  <polygon class="st0" appId="3-2b84c" points="451.7,438.1 455.2,440.8 457.1,438.4 453.6,435.7 "/>
  <polygon class="st0" appId="3-2b123b" points="514,477.7 514,483.5 531.9,483.5 531.9,477.7 "/>
  <polygon class="st0" appId="3-2b03" points="530.2,502.9 535.7,502.9 535.7,497 530.2,497 "/>
  <polygon class="st0" appId="3-2b75" points="471,509.7 478.7,499.9 471.5,494.3 469.8,496.4 470.1,496.6 469,498.1 468.7,497.9 462.1,506.3
	467.5,510.5 468.4,509.3 469.9,510.4 470.6,509.4 "/>
  <polygon class="st0" appId="3-2b69a" points="591.8,474.2 596.2,474.2 596.2,468.3 594.2,468.3 594.2,469 591.8,469 "/>
  <polygon class="st0" appId="3-2b73a" points="546.4,462.1 546.4,468 548.7,468 548.7,467.3 550.7,467.3 550.7,462.1 "/>
  <polygon class="st0" appId="3-2b64" points="613.3,524.9 613.3,509.6 602,509.6 602,512.4 602.3,512.4 602.3,514.3 602,514.3 602,524.9
	604.4,524.9 604.4,523.5 606.3,523.5 606.3,524.9 "/>
  <polygon class="st0" appId="3-2b32" points="440,461.2 447.6,451.4 437.6,443.6 429.9,453.4 "/>
  <polygon class="st0" appId="3-2b25" points="514.2,509.2 514.2,525 523.2,525 523.2,509.2 "/>
  <polygon class="st0" appId="3-2H91C" points="402.5,355.8 399.7,356.9 397,357.8 399,364 400.4,368.1 403.6,377.3 409.2,375.4 "/>
  <polygon class="st0" appId="3-2b98A" points="428.6,427.6 441.1,437.3 444.8,432.7 424.6,416.9 420.7,421.4 423.6,423.7 "/>
  <polygon class="st0" appId="3-st01" points="382.3,396.3 382.1,396 382.3,396 379.9,389.4 366.1,394.1 368.5,401.1 "/>
  <polygon class="st0" appId="3-2h15a" points="384.1,342.4 384.2,342.7 382.2,343.4 384,348.7 388.9,347 385.9,338.3 381,340 382.1,343.1 "/>
  <polygon class="st0" appId="3-2h24" points="404.1,427.5 402,421.3 394.5,423.9 392.6,424.5 391.5,425 393.6,431 "/>
  <polygon class="st0" appId="3-2h04" points="392.7,401.3 400.3,398.7 397.7,391.3 388.8,394.3 391,400.6 392.3,400.1 "/>
  <polygon class="st0" appId="3-2b97c" points="416.4,443.2 428.6,427.6 423.6,423.7 422.4,425.2 421.2,424.2 416.5,430.3 417.6,433.4 412.7,435.1
	411.5,436.7 412.7,437.7 411.4,439.3 "/>
  <polygon class="st0" appId="3-2B92B" points="544.2,483.5 561.8,483.5 561.8,477.6 550.8,477.6 546.4,477.6 537.1,477.6 537.1,477.7 532.3,477.7
	532.3,483.5 538.3,483.5 "/>
  <polygon class="st0" appId="3-2b79b" points="429.9,473.1 433.5,468.5 430.1,465.8 426.7,470.1 428.2,471.3 428,471.5 "/>
  <polygon class="st0" appId="3-2b79a" points="426.3,470.7 422.7,475.3 426.1,477.9 429.7,473.4 "/>
  <polygon class="st0" appId="3-2b05" points="594.5,490.7 583.7,490.6 583.7,503 594.5,503 "/>
  <polygon class="st0" appId="3-2b05A" points="576.9,497.8 566.3,497.8 566.3,489.1 576.9,489.1 "/>
  <path class="st0" appId="3-2b01" d="M478.3,501l-6.6,8.3l0.9,0.7l-0.6,0.8l-0.1,0.1l30.9-0.1v-6.6v-0.3V501H478.3z M487.6,509.1l0,0.3l0,0.3
	l-0.1,0.3l-0.2,0.2l-0.2,0.2l-0.3,0.1l-0.3,0l-0.3,0l-0.3-0.1l-0.2-0.2l-0.2-0.2l-0.1-0.3l0-0.3l0-0.3l0.1-0.3l0.2-0.2l0.2-0.2
	l0.3-0.1l0.3,0l0.3,0l0.3,0.1l0.2,0.2l0.2,0.2L487.6,509.1z"/>
  <polygon class="st0" appId="3-2b70c" points="569.1,477.6 573.5,477.6 573.5,474.5 569.1,474.5 "/>
  <polygon class="st0" appId="3-2b66" points="628.8,495.7 628.8,486.8 628.5,486.8 628.5,486.5 612.7,486.5 612.7,498.3 628.5,498.3 628.5,495.7 "/>
  <polygon class="st0" appId="3-2b64c" points="601.6,509.3 597.2,509.3 597.2,512.4 601.6,512.4 "/>
  <polygon class="st0" appId="3-2b49" points="431.5,440.4 424.6,449.2 428,451.8 429.1,450.4 430.8,451.7 436.5,444.3 "/>
  <polygon class="st0" appId="3-2b47a" points="482.6,481.5 480.2,484.6 487,489.9 489.4,486.8 "/>
  <polygon class="st0" appId="3-2b31d" points="468.8,476.2 471.1,473.2 465.9,469.1 463.6,472.1 "/>
  <polygon class="st0" appId="3-st02" points="447.5,415.6 438.5,427.1 438.8,427.3 438.7,427.5 441.1,429.4 441.2,429.2 444.3,431.6 453.3,420.1 "/>
  <polygon class="st0" appId="3-2B98" points="444.8,432.7 441.1,437.3 459.6,451.8 471.6,461.2 475.5,464.2 479.1,459.5 473,454.8 469.6,452.1
	455.2,440.8 451.7,438.1 "/>
  <polygon class="st0" appId="3-2h13c" points="359.1,370.9 359.7,372.5 358.5,372.8 360,377.1 374.2,372.2 371.5,364.4 357.3,369.3 358,371.3 "/>
  <polygon class="st0" appId="3-2h16" points="419.4,357 405,362 407.7,370.1 408.1,369.9 408.7,371.7 422.8,366.9 "/>
  <polygon class="st0" appId="3-2h12a" points="383.6,362.9 387.1,373.1 395.2,370.2 391.8,360.1 "/>
  <polygon class="st0" appId="3-2b90b" points="563.2,509.3 563.1,503.4 558.9,503.4 558.9,501.6 551.7,501.6 551.7,503.4 544.2,503.4 538.2,503.2
	535.8,503.2 535.8,509.3 546.4,509.3 550.8,509.3 "/>
  <polygon class="st0" appId="3-2B92A" points="561.8,477.6 561.8,483.5 566.3,483.5 581.6,483.5 597.1,483.5 597,477.6 596.2,477.6 591.8,477.6
	573.5,477.6 569.1,477.6 "/>
  <polygon class="st0" appId="3-2b86a" points="479,447.2 482.5,442.7 479.1,439.9 475.5,444.5 "/>
  <polygon class="st0" appId="3-2b78" points="434.3,482.6 435.9,483.8 434.9,485 440.2,489.2 446.8,480.8 446.5,480.5 447.6,479.1 447.9,479.3
	449.6,477.1 442.8,471.8 "/>
  <polygon class="st0" appId="3-2b84a" points="461.5,432.7 464.7,428.6 461.3,425.9 457.6,430.5 459.2,431.8 459.6,431.3 "/>
  <polygon class="st0" appId="3-2b11" points="544.5,503 551.3,503 551.3,495.2 544.5,495.2 "/>
  <polygon class="st0" appId="3-2b122" points="410.4,457.8 417.6,463.4 421.1,458.8 414,453.2 "/>
  <polygon class="st0" appId="3-2b75a" points="465.8,501.1 469.3,496.5 465.9,493.8 462.3,498.4 "/>
  <polygon class="st0" appId="3-2b67" points="627.2,462.1 618.8,462.1 618.8,476.9 620.7,476.9 620.7,477.2 628.5,477.2 628.5,463.4 627.2,463.4 "/>
  <polygon class="st0" appId="3-2b65b" points="615.6,518.5 618,518.5 618,509.6 613.7,509.6 613.7,518.2 615.6,518.2 "/>
  <polygon class="st0" appId="3-2b63" points="596.5,512.4 596.9,512.4 596.9,509.6 585.5,509.6 585.5,524.8 596.9,524.8 596.9,514.3 596.5,514.3 "/>
  <polygon class="st0" appId="3-2b24a" points="546.4,518.9 546.4,524.7 550.8,524.7 550.8,518.9 "/>
  <polygon class="st0" appId="3-2b21" points="530.8,489.3 536.2,489.3 536.2,483.9 530.8,483.9 "/>
  <polygon class="st0" appId="3-2h90A" points="385.4,403.2 390.9,401.4 388,393.2 386.1,387.6 380.6,389.5 "/>
  <polygon class="st0" appId="3-2b98b" points="479.1,459.5 475.5,464.2 483.4,470.3 488,474 494.2,478.8 497.9,474.2 491,468.8 487.5,466.1 "/>
  <polygon class="st0" appId="3-2H92" points="407.6,396.5 409.8,402.8 412.1,402 413.8,407 419.4,405 409.3,375.7 403.7,377.6 409.9,395.7 "/>
  <polygon appId="3-2h18" class="st0" points="413.3,386.3 415.5,392.6 429.9,387.7 427.7,381.4 "/>
  <polygon class="st0" appId="3-2h15" points="392.8,351.4 392.9,351.8 401,349 396.1,334.8 389.5,337.1 389.8,337.9 386.5,339.1 391,352 "/>
  <polygon class="st0" appId="3-2h07" points="404.6,388.9 398,391.1 400.3,397.8 400.8,397.6 403.3,405 409.4,402.9 "/>
  <polygon class="st0" appId="3-2b97a" points="488,474 483.4,470.3 471.1,486 477.7,491.1 478.6,490 476.7,488.5 "/>
  <polygon class="st0" appId="3-2h06" points="405.6,413 413,410.4 412.5,409.1 414,408.6 411.9,402.5 403,405.5 "/>
  <polygon class="st0" appId="3-2b81c" points="417.2,455.3 419.1,453 416.1,450.5 414.2,452.9 "/>
  <polygon class="st0" appId="3-2B86C" points="469.6,452.1 473,454.8 474.9,452.3 471.5,449.7 "/>
  <polygon class="st0" appId="3-2b80a" points="410.3,465.6 413.7,468.3 417.3,463.7 413.9,461 "/>
  <polygon class="st0" appId="3-2b10" points="544.5,494.8 551.3,494.8 551.3,483.8 544.5,483.8 "/>
  <polygon class="st0" appId="3-2b07" points="594.5,490.3 594.5,483.9 583.7,483.9 583.7,489.8 591.5,489.8 591.5,490.3 "/>
  <polygon class="st0" appId="3-2b71" points="568.7,472.6 568.7,462.1 561.9,462.1 561.9,463.5 560.1,463.5 560.1,477.2 568.7,477.2 568.7,474.5
	568.4,474.5 568.4,472.6 "/>
  <polygon class="st0" appId="3-2b67a" points="618.4,462.1 614,462.1 614,468 618.4,468 "/>
  <polygon class="st0" appId="3-2b65" points="628.4,523.5 628.4,509.6 618.4,509.6 618.4,524.9 627.2,524.9 627.2,523.5 "/>
  <polygon class="st0" appId="3-2b62" points="573.8,524.9 581.7,524.9 581.7,523.3 585.2,523.3 585.2,509.6 573.8,509.6 "/>
  <polygon class="st0" appId="3-2b48" points="416.3,430 421.9,422.8 414.5,417 407.4,419.5 411.5,431.6 "/>
  <polygon class="st0" appId="3-2b60" points="559.7,523.3 559.7,509.6 551.1,509.6 551.1,524.8 557.9,524.8 557.9,523.3 "/>
  <polygon class="st0" appId="3-me01" points="491.5,468.7 499.2,474.8 500.1,473.7 500.1,467.2 500.1,462.7 496.1,462.7 "/>
  <polygon class="st0" appId="3-2b31a" points="454.5,465.8 462.9,472.4 468.2,465.6 459.8,459 "/>
  <polygon class="st0" appId="3-2h15d" points="409.5,337.4 409.4,337 411.4,336.4 409.6,331.1 404.7,332.8 406.5,338 407.6,337.6 408.8,341.1
	412.6,339.8 411.5,336.7 "/>
  <polygon class="st0" appId="3-2b14b" points="383.3,349.3 377.8,351.2 379.5,356 381.3,355.4 381.4,355.7 385,354.5 "/>
  <polygon class="st0" appId="3-2h12c" points="400.4,368.1 399,364 397,357.8 392,359.7 395.6,370.1 398.7,369 398.6,368.7 "/>
  <polygon appId="3-2b91a" class="st0" points="538.3,483.5 538.3,485.7 536.5,485.7 536.5,491.2 538.3,491.2 538.3,497 536.5,497 536.5,501.3
	538.2,501.3 538.2,503.2 544.2,503.4 544.2,483.5 "/>
  <polygon class="st0" appId="3-2b93" points="500.4,458.1 507.1,458.1 507.1,437.5 499.5,437.5 499.5,454.4 500.4,455.1 "/>
  <polygon class="st0" appId="3-2b86" points="472.4,448 478.8,439.7 473.4,435.5 472.6,436.6 471.2,435.5 462.7,446.3 469.5,451.6 471.2,449.5
	470.9,449.2 472.1,447.7 "/>
  <polygon class="st0" appId="3-2b76" points="464.4,494.5 465.6,493.1 465.8,493.3 467.5,491.1 460.7,485.8 452.2,496.7 452.7,497.1 451.9,498
	453,498.8 452.8,499 458.1,503.2 464.7,494.8 "/>
  <polygon appId="3-2b84" class="st0" points="453.3,421.5 444.8,432.3 451.6,437.6 453.3,435.5 453,435.2 454.2,433.7 454.5,434 461,425.7
	455.6,421.4 454.7,422.6 "/>
  <polygon class="st0" appId="3-2b15" points="497.9,454.9 496.9,454.1 493.4,458.5 496.5,460.9 498.4,462.4 500.1,462.4 500.1,456.6 497.9,456.6 "/>
  <polygon class="st0" appId="3-2b05c" points="577.3,488.8 577.3,483.5 566.3,483.5 566.3,488.8 "/>
  <path class="st0" appId="3-2b01b" d="M535.4,508.8l0-5.6l-11.8,0h-10.8l0-6.2l-25.1,0l0-1.6l-2.8-2.3l-1.8,2.2l-0.8-0.6l-0.2,0.2l-3.5,4.5l0.5,0.4
	l-1,1.2h24.6v9.8l2.7,0l0-2H535.4z M506.3,502.7l-0.1-0.3v-0.3l0.1-0.3l0.2-0.3l0.2-0.2l0.3-0.2l0.3-0.1h0.3l0.3,0.1l0.3,0.2
	l0.2,0.2l0.2,0.3l0.1,0.3v0.3l-0.1,0.3l-0.2,0.3l-0.2,0.2l-0.3,0.2l-0.3,0.1l-0.3,0l-0.3-0.1l-0.3-0.2l-0.2-0.2L506.3,502.7z"/>
  <polygon class="st0" points="686.3,628.5 687.9,633 689.2,632.5 689.7,634 694.1,632.5 691.1,624 688,625 687.8,625.1 685.4,625.9
	685.6,626.4 "/>
  <polygon class="st0" appId="3-2b68c" points="591.8,477.6 596.2,477.6 596.2,474.5 591.8,474.5 "/>
  <polygon class="st0" appId="3-2b71a" points="569.1,462.1 569.1,468 571.1,468 571.1,467.3 573.5,467.3 573.5,462.1 "/>
  <polygon class="st0" appId="3-2b61" points="560.1,523.3 561.9,523.3 561.9,524.8 568.7,524.8 568.7,514.3 568.4,514.3 568.4,512.4 568.7,512.4
	568.7,509.6 560.1,509.6 "/>
  <polygon class="st0" appId="3-2b53a" points="529.9,492.8 521.3,492.8 521.3,496.7 529.9,496.7 "/>
  <polygon class="st0" appId="3-2b43" points="447.8,451.2 451.8,446.1 441.7,438.3 438.1,443 444.3,447.8 444,448.2 "/>
  <polygon class="st0" appId="3-2b24" points="538.2,523.3 538.2,524.8 546,524.8 546,514.2 545.7,514.2 545.7,512.4 546,512.4 546,509.6 531,509.6
	531,524.7 536.3,524.7 536.3,523.3 "/>
  <polygon class="st0" appId="3-2h90" points="381.6,374.5 379.9,370.2 377.8,364.7 375.6,365.5 372.6,366.6 380.4,389.2 386,387.3 "/>
  <polygon class="st0" appId="3-2h15b" points="388.9,352.8 390.7,352.2 389,347.3 383.6,349.2 385.4,354.4 389,353.1 "/>
  <polygon appId="3-2h13d" class="st0" points="354.8,360.1 355.8,363.2 357.8,362.5 357.9,362.8 355.9,363.5 357.8,368.7 362.6,367.1 360.8,361.8
	359.7,362.2 358.5,358.8 "/>
  <polygon class="st0" appId="3-2h12b" points="383.1,362.7 377.8,364.7 379.9,370.2 381.6,374.5 383.4,373.9 383.5,374.3 386.7,373.2 "/>
  <polygon class="st0" appId="3-2b91c" points="612.3,503 612.3,498.6 612.3,486 612.3,483.5 606.4,483.5 606.4,503.4 614.2,503.3 614.2,503 "/>
  <polygon class="st0" appId="3-2h08" points="391.3,382.4 392.2,385.1 394.8,384.2 397.2,391.1 404.5,388.5 403.8,386.5 406.1,385.7 405.1,382.7
	404.8,382.8 404.1,381 403,381.4 402.1,378.6 "/>
  <polygon appId="3-2b81" class="st0" points="413.9,452.7 415.6,450.6 406.3,443.3 397.8,454.2 399,455.2 398.1,456.3 406.2,462.6 412.7,454.2
	412.5,454 413.6,452.5 "/>
  <polygon class="st0" appId="3-2b81a" points="406.6,462.6 410,465.3 413.6,460.8 410.2,458.1 "/>
  <polygon class="st0" appId="3-2b75c" points="471.5,493.8 468,491.1 466.1,493.5 469.5,496.2 "/>
  <polygon class="st0" appId="3-2b1OO" points="457.7,450.7 452,446.3 447,452.7 452.9,457.4 456.9,452.3 456.6,452.1 "/>
  <polygon class="st0" appId="3-2b20" points="488.1,495.2 488.1,496.7 498.3,496.7 498.3,485.4 499.7,483.6 495.1,480 485.1,492.8 "/>
  <polygon class="st0" appId="3-2b72" points="557.9,463.5 557.9,462.1 551.1,462.1 551.1,472.6 551.5,472.6 551.5,474.5 551.1,474.5 551.1,477.2
	559.7,477.2 559.7,463.5 "/>
  <polygon class="st0" appId="3-2b66a" points="621.4,503 627.2,503 627.2,498.6 621.4,498.6 "/>
  <polygon class="st0" appId="3-2b67c" points="624.8,477.6 624.8,483.5 627.2,483.5 628.5,483.5 628.5,483.1 628.8,483.1 628.8,477.9 628.5,477.9
	628.5,477.6 "/>
  <polygon class="st0" appId="3-2b65a" points="618,524.7 618,518.9 616,518.9 616,519.5 613.7,519.5 613.7,524.7 "/>
  <polygon class="st0" appId="3-2b50" points="498.7,485.5 498.7,496.7 506.6,496.7 506.6,483.9 500,483.9 "/>
  <polygon class="st0" appId="3-2b51" points="508.4,485.5 507.1,485.5 507.1,496.7 512.6,496.7 512.6,483.9 508.4,483.9 "/>
  <polygon class="st0" appId="3-st04" points="499.5,436.9 517.6,436.9 517.6,429.9 499.5,429.9 "/>
  <polygon class="st0" appId="3-2h24a" points="407,419.6 402.3,421.2 404.4,427.3 408.6,425.9 407.1,421.8 407.7,421.6 "/>
  <polygon class="st0" appId="3-2h20" points="425.3,399.1 427,404.3 420.3,406.7 423.4,415.6 426.2,417.8 435.7,405.6 432.7,396.7 "/>
  <polygon class="st0" appId="3-2h16d" points="413.9,343.5 411.9,344.2 411.8,343.9 413.7,343.2 412.7,340.2 408.9,341.4 410.1,344.8 409,345.2
	410.8,350.5 416.6,348.5 415.4,345.3 414.6,345.5 "/>
  <polygon class="st0" appId="3-2h13" points="360.1,377.4 363.5,387.3 377.4,382.5 376.8,380.7 377.1,380.6 374.3,372.5 "/>
  <polygon class="st0" appId="3-2b99" points="559.2,491.2 559.2,485.6 558.9,485.6 558.9,483.8 551.7,483.8 551.7,491.2 "/>
  <polygon class="st0" appId="3-2b94" points="528,477.3 528,462.4 516.4,462.4 516.4,477.3 "/>
  <polygon class="st0" appId="3-2b88" points="490,461.7 490.3,461.9 496.6,453.9 490.3,448.9 489.7,449.8 489.1,449.4 480.6,460.2 487.5,465.6
	489.1,463.4 488.9,463.2 "/>
  <polygon class="st0" appId="3-2b77" points="450.8,483.9 444.2,492.3 449.5,496.4 449.6,496.2 450.6,497 451.4,496.1 451.9,496.5 460.4,485.6
	453.6,480.3 451.9,482.4 452.2,482.6 451,484.1 "/>
  <polygon class="st0" appId="3-2b78a" points="440.6,489.2 444,491.9 447.6,487.3 444.2,484.6 "/>
  <polygon class="st0" appId="3-2b18" points="596,500.5 606,500.5 606,493 594.9,493 594.9,499.8 596,499.8 "/>
  <polygon class="st0" appId="3-2b120" points="507.4,459.1 508.2,459.1 508.2,461.7 517.7,461.7 517.7,447.9 507.4,447.9 "/>
  <polygon class="st0" appId="3-2b123" points="507.9,461.1 507.9,459.5 507.1,459.5 507.1,458.5 500.4,458.5 500.4,468 500.4,473.8 507.1,473.8
	507.1,463.4 506.7,463.4 506.7,462.4 506.7,461.8 507.1,461.8 507.1,461.1 "/>
  <polygon class="st0" appId="3-2b01a" points="523.6,499.4 523.6,497 512.8,497 512.9,503.2 523.6,503.2 "/>
  <polygon class="st0" appId="3-2b70" points="580.6,463.5 580.6,462.1 573.8,462.1 573.8,472.6 574.2,472.6 574.2,474.5 573.8,474.5 573.8,477.2
	582.4,477.2 582.4,463.5 "/>
  <polygon class="st0" appId="3-2b62a" points="573.5,518.5 573.5,512.7 569.1,512.7 569.1,518.5 "/>
  <polygon class="st0" appId="3-2b69" points="591.4,474.5 591.1,474.5 591.1,472.6 591.4,472.6 591.4,462.1 584.6,462.1 584.6,463.5 582.8,463.5
	582.8,477.2 591.4,477.2 "/>
  <polygon class="st0" appId="3-2b33" points="435.1,433.1 430.4,439.1 436.8,444.1 440.4,439.4 438.7,438.1 439.8,436.7 "/>
  <polygon class="st0" appId="3-2b40" points="482.9,470.4 477.2,466 470.7,474.4 476.3,478.8 "/>
  <polygon appId="3-2h91b" class="st0" points="400.3,349.6 394.9,351.5 375.3,358.2 370.3,359.9 372.6,366.6 375.6,365.5 377.8,364.7 383.1,362.7
	392,359.7 397,357.8 399.7,356.9 402.5,355.8 "/>
  <polygon class="st0" appId="3-2h14" points="379.2,356.1 374.7,343.1 371.5,344.3 371.2,343.4 364.6,345.6 369.4,359.8 377.5,357.1 377.4,356.7 "/>
  <polygon appId="3-2h14d" class="st0" points="353.6,356.6 354.6,359.7 358.4,358.4 357.2,355 358.3,354.6 356.5,349.4 351.7,351 353.5,356.3
	355.4,355.6 355.5,356 "/>
  <polygon class="st0" appId="3-2h10" points="389.1,379 387.3,373.8 382.5,375.5 384.3,380.6 "/>
  <polygon class="st0" appId="3-2b92" points="597,477.6 597.1,483.5 606.4,483.5 612.3,483.5 612.3,486 614.7,486 615.7,486 615.7,483.5
	624.8,483.5 624.8,477.6 "/>
  <polygon class="st0" appId="3-2b90a" points="566.3,503.4 563.1,503.4 563.2,509.3 569.1,509.3 573.5,509.3 593,509.3 593,503.4 581.6,503.4 "/>
  <polygon class="st0" appId="3-2b82a" points="402.9,447.1 406.1,443 404.2,441.5 404.6,441 403,439.8 399.5,444.4 "/>
  <polygon class="st0" appId="3-2b88c" points="487.5,466.1 491,468.8 492.9,466.3 489.4,463.7 "/>
  <polygon class="st0" appId="3-2b76a" points="458.5,503.2 461.9,505.9 465.5,501.3 462.1,498.6 "/>
  <polygon class="st0" appId="3-2b121" points="615.7,503 621,503 621,498.6 615.7,498.6 "/>
  <polygon class="st0" appId="3-2b05b" points="566.3,503.4 577.3,503.4 577.3,498.1 566.3,498.1 "/>
  <polygon class="st0" appId="3-2b72c" points="546.4,477.6 550.8,477.6 550.8,474.5 546.4,474.5 "/>
  <polygon class="st0" appId="3-2b67b" points="615.9,468.3 615.9,468.7 614,468.7 614,477.2 618.4,477.2 618.4,468.3 "/>
  <polygon class="st0" appId="3-2b72a" points="546.4,469 546.4,474.2 550.7,474.2 550.7,468.3 548.7,468.3 548.7,469 "/>
  <polygon class="st0" appId="3-2b61a" points="569.1,524.7 573.5,524.7 573.5,518.9 569.1,518.9 "/>
  <polygon class="st0" appId="3-2b52" points="512.9,496.7 520.9,496.7 520.9,483.9 512.9,483.9 "/>
  <polygon class="st0" appId="3-2b41" points="428.7,428.1 424,434.1 430.2,438.9 434.8,432.9 "/>
  <polygon class="st0" appId="3-st05" points="609.4,477.2 609.4,477 613.3,477 613.3,462.4 606,462.4 606,477 606.4,477 606.4,477.2 "/>
  <polygon class="st0" appId="3-2b124" points="447.1,415.1 442.7,411.7 433.6,423.3 438,426.8 "/>
  <polygon appId="3-2h15c" class="st0" points="401.4,349.2 400.6,349.5 402,353.5 410.5,350.6 408.5,344.9 409.6,344.5 407.4,338.1 406.3,338.5
	404.1,332 396.4,334.7 "/>
  <polygon class="st0" appId="3-2h14a" points="380.8,343.9 378.8,344.6 378.7,344.2 380.7,343.6 379.6,340.5 374.7,342.1 377.7,350.8 382.6,349.2 "/>
  <polygon appId="3-2h13a" class="st0" points="365.4,392.5 370.7,390.6 370,388.7 370.3,388.6 371,390.5 374.1,389.5 372.4,384.6 363.8,387.6
	363.7,387.6 "/>
  <polygon class="st0" appId="3-2h02" points="391.2,402.2 393.2,408.5 402.5,405.3 400.4,399 "/>
  <polygon class="st0" appId="3-2b96a" points="424.8,457.3 428.5,452.7 416.4,443.2 411.4,439.3 410.2,438.4 406.5,443 416.1,450.5 419.1,453
	417.2,455.3 421.4,458.5 423.3,456.1 "/>
  <polygon class="st0" appId="3-2B87A" points="478.7,447.5 475.3,444.8 471.7,449.4 475.2,452.1 "/>
  <polygon class="st0" appId="3-2b77a" points="447.8,487.1 451.4,482.5 448,479.8 444.4,484.4 "/>
  <polygon class="st0" appId="3-2b79" points="435.7,466.3 434,468.4 434.3,468.6 433.1,470.1 432.9,469.9 426.3,478.3 431.6,482.4 432.5,481.2
	434.1,482.4 442.5,471.6 "/>
  <polygon class="st0" appId="3-2b16" points="604.3,483.9 594.9,483.9 594.9,492.6 606,492.6 606,485.5 604.3,485.5 "/>
  <polygon class="st0" appId="3-2b04a" points="594.9,503.4 604.3,503.4 604.3,500.9 594.9,500.9 "/>
  <polygon class="st0" appId="3-205d" points="565.9,497.1 565.9,493.3 559.6,493.3 559.6,497.1 "/>
  <polygon appArea="13" *ngIf="isAreasRoute" xmlns="http://www.w3.org/2000/svg" id="Zone_x5F_C" fill="#1F00FF" points="390.4,417.6 376.7,422.3 376.5,421.7 375.1,422.1 370.6,409 372,408.5 371.8,407.8   385.3,403.1 382.8,396.2 368.4,401.2 365.5,392.6 365.3,392.6 358.4,372.7 359.6,372.4 359,371 357.9,371.4 357.2,369.2 357.8,369   355.8,363.4 351.6,350.9 356.8,349.2 356.5,348.3 371.3,343.3 371.6,344.2 374.9,342.9 374.6,342 379.7,340.4 380.9,339.9   386,338.2 386.3,339.1 389.7,337.8 389.4,337 404.2,331.9 404.5,332.8 409.7,331 414.7,345.4 415.5,345.2 416.7,348.6 416.8,348.8   417.4,351 416,351.4 416.6,352.8 418,352.3 419.4,356.8 422.9,367 424.7,372.2 423.3,372.6 424.1,374.7 425.4,374.2 427.7,381   427.8,381.3 430,387.8 422,390.5 425,399.1 432.8,396.6 435.8,405.6 426.2,417.9 423.3,415.7 419.7,405 413.6,407.2 414.1,408.7   412.6,409.2 413.1,410.5 397.7,415.7 397.2,414.4 395.6,415 396,416.2 390.5,418 "/>
  <polygon appArea="11" *ngIf="isAreasRoute" xmlns="http://www.w3.org/2000/svg" id="Zone_x5F_A" class="st1" points="499.4,429.8 499.4,437 499.4,437.4 499.4,454.4 500.3,455.1 500.1,510.9 505.5,510.9   505.5,508.9 514.1,508.9 514.1,525.1 523.3,525.1 523.3,524.8 536.4,524.8 536.4,523.4 538.1,523.4 538.1,524.9 546.1,524.9   546.1,524.8 551,524.8 551,524.9 558,524.9 558,523.4 561.8,523.4 561.8,524.9 568.8,524.9 568.8,524.8 573.7,524.8 573.7,525   581.8,525 581.8,523.4 585.4,523.4 585.4,524.9 601.7,524.9 601.9,525 604.5,525 604.5,523.6 606.2,523.6 606.2,525 613.4,525   613.4,524.8 618.3,524.8 618.3,525 627.3,525 627.3,523.6 628.5,523.6 628.5,508.2 628.9,508.2 628.9,503.3 627.3,503.3   627.3,498.4 628.6,498.4 628.6,495.8 628.9,495.8 628.9,486.7 628.6,486.7 628.6,486.4 627.3,486.4 627.3,483.6 628.6,483.6   628.6,483.2 628.9,483.2 628.9,477.8 628.6,477.8 628.6,463.3 627.3,463.3 627.3,462 613.9,462 613.9,462.3 605.4,462.3   605.4,461.9 596.4,461.9 596.4,462.1 591.5,462.1 591.5,462 584.5,462 584.5,463.4 580.7,463.4 580.7,462 561.8,462 561.8,463.4   558,463.4 558,462 537.3,462 537.3,477.5 537,477.5 537,477.6 528.1,477.6 528.1,462.3 517.8,462.3 517.8,447.8 507.2,447.8   507.2,437 517.7,437 517.7,429.8 " fill="#00FFA3"/>
  <polygon appArea="12" *ngIf="isAreasRoute" xmlns="http://www.w3.org/2000/svg" id="Zone_x5F_B" class="st2" points="389.3,418.8 391.4,424.9 398.5,445.3 399.2,444.3 403,447.3 397.7,454.2 398.9,455.2   398,456.3 406.2,462.7 406.4,462.5 410.2,465.6 410.2,465.6 413.7,468.4 413.8,468.3 414.9,469.2 415.6,468.2 416.8,469.1   416.1,470.1 422.6,475.2 422.6,475.3 426.3,478.2 426.2,478.3 431.6,482.5 432.5,481.3 435.8,483.8 434.8,485 440.2,489.3   440.4,489.1 444.2,492.2 444.1,492.3 449.5,496.6 449.6,496.4 450.6,497.1 451.4,496.2 452.6,497.1 451.8,498 452.8,498.8   452.6,499 458.1,503.3 458.3,503.1 462.1,506.2 462,506.3 467.5,510.6 468.4,509.4 469.9,510.5 470.6,509.5 471,509.8 471.5,509.3   472.5,510 471.9,510.7 471.7,511 500,510.9 500.2,456.5 498,456.5 498,454.9 490.3,448.8 489.7,449.7 488.5,448.7 489.1,447.9   482.8,442.8 479.1,439.8 478.9,439.7 473.4,435.4 472.6,436.5 469.6,434.1 470.4,433 455.6,421.3 454.7,422.5 452.8,421   453.4,420.1 447.1,415.2 447.2,415.1 442.7,411.6 433.3,423.6 423.2,415.6 419.6,405.3 413.8,407.2 414.8,410 396.1,416.5   396.1,416.3 390.7,418.1 390.7,418.3 " fill="#FF0000"/>
  <text class="text a" id="one" x="570.85" y="500.6" font-weight="bold" font-size="22.99px">A</text>
  <text class="text b" x="435" y="460"  font-weight="bold" font-size="22.99px">B</text>
  <text class="text c" x="385" y="385"  font-weight="bold" font-size="22.99px">C</text>

</svg>
