<svg version="1.1" id="Слой_1" xmlns="http://www.w3.org/2000/svg" xmlns:xlink="http://www.w3.org/1999/xlink" x="0px" y="0px"
     viewBox="300 300 500 400" xml:space="preserve">

  <desc>, (Blender 2.93.1)</desc>
  <g>
	<polygon appId="7-2e07" class="st0" points="537.9,477.6 542.5,477.6 542.5,477.4 602.6,477.4 602.6,463.4 537.8,463.4 537.8,477.4 537.9,477.4
		"/>
    <rect appId="7-2e24" x="522.7" y="483.8" class="st0" width="6.7" height="7.8"/>
    <polygon class="st0" appId="7-2e26" points="529.8,483.8 529.8,490.9 539.7,490.9 539.7,483.8 538,483.8 538,485.6 535.8,485.6 535.8,483.8 	"/>
    <polygon class="st0" appId="7-2e08" points="540,490.9 544.8,490.9 544.8,488.3 544.8,486.7 544.8,486.3 544.8,483.8 540,483.8 	"/>
    <rect appId="7-2e03c" x="507.5" y="470" class="st0" width="8" height="7"/>
    <rect appId="7-2e03d" x="507.5" y="462.5" class="st0" width="8" height="7.1"/>
    <rect x="528.3" appId="7-2e03a" y="462.5" class="st0" width="8" height="7.1"/>
    <polygon class="st0" appId="7-2e03" points="516.3,464.4 516.3,468.2 516.3,471.3 516.3,475 516.3,477.3 519.7,477.3 524.2,477.3 527.6,477.3
		527.6,475 527.6,471.3 527.6,468.2 527.6,464.4 527.6,462.4 524.5,462.4 519.4,462.4 516.3,462.4 	"/>
    <rect x="528.3" appId="7-2e03b" y="470" class="st0" width="8" height="7"/>
    <polygon class="st0" appId="7-2e121" points="517.6,455.8 507.1,455.8 507.1,459.2 508,459.2 508,461.8 517.6,461.8 	"/>
    <rect appId="7-2e120" x="507.1" y="447.9" class="st0" width="10.4" height="7.4"/>
    <rect appId="7-2e120a" x="507.5" y="437.6" class="st0" width="9.9" height="9.8"/>
    <rect appId="7-st04" x="499.3" y="430" class="st0" width="18.1" height="7"/>
    <polygon class="st0" appId="7-2e04" points="499.2,441.8 499.2,446 499.2,450 499.2,454.2 499.2,458.5 499.2,462.5 499.2,466.5 499.2,470.6
		499.2,474.9 500.4,474.9 505.6,474.9 506.7,474.9 506.7,470.9 506.7,467 506.7,462.9 506.7,458.7 506.7,456.3 506.7,454.5
		506.7,449.2 506.7,445.7 506.7,440.3 506.7,437.6 502.4,437.6 500,437.6 499.2,437.6 499.2,437.6 	"/>
    <polygon class="st0" appId="7-st05" points="605.9,477.2 609,477.2 609,477 612.9,477 612.9,462.5 605.5,462.5 605.5,477 605.9,477 	"/>
    <polygon appId="7-2e16" class="st0" points="603.6,501.5 597.8,501.5 597.8,503.3 597.5,503.3 597.5,501.5 593.6,501.5 593.6,504 593.6,506.3
		593.6,509.2 593.6,509.6 593.6,509.8 593.6,510.1 593.6,510.4 593.7,510.8 593.8,511.1 594,511.4 594.1,511.7 594.3,511.9
		594.6,512.1 594.8,512.4 595.1,512.5 595.4,512.7 595.7,512.8 596,512.9 596.3,512.9 596.5,513 596.9,513 600.2,513 600.5,513
		600.8,513 601,513 601.4,513 605.7,513 605.7,503.3 603.6,503.3 	"/>
    <rect appId="7-2e21" x="589.5" y="491.3" class="st0" width="16.2" height="9.9"/>
    <rect appId="7-2e09a" x="594.6" y="483.8" class="st0" width="3.9" height="7.1"/>
    <rect appId="7-2e09" x="589.5" y="483.8" class="st0" width="4.7" height="7.1"/>
    <polygon class="st0" appId="7-2e25" points="604,483.8 598.9,483.8 598.9,490.9 605.7,490.9 605.7,485.4 604,485.4 	"/>
    <polygon appId="7-2e60-a" class="st0" points="559.9,516.5 561.4,516.5 561.4,516.9 559.9,516.9 559.9,519.7 561.4,519.7 561.4,520.1 559.9,520.1
		559.9,523.3 560.5,523.3 560.5,525.2 566.8,525.2 567.2,525.2 567.2,520.1 564.4,520.1 564.4,519.7 567.2,519.7 567.2,516.9
		564.4,516.9 564.4,516.5 567.2,516.5 567.2,513.7 559.9,513.7 	"/>
    <polygon appId="7-2e61-a" class="st0" points="567.5,516.5 570.3,516.5 570.3,516.9 567.5,516.9 567.5,519.7 570.3,519.7 570.3,520.1 567.5,520.1
		567.5,525.2 568.1,525.2 574.2,525.2 574.8,525.2 574.8,520.1 573.2,520.1 573.2,519.7 574.8,519.7 574.8,516.9 573.2,516.9
		573.2,516.5 574.8,516.5 574.8,513.7 567.5,513.7 	"/>
    <polygon class="st0" appId="7-2e63" points="551.4,501.6 551.4,507.3 554.7,507.3 554.7,508.1 559.6,508.1 561.4,508.1 561.4,507.3 561.8,507.3
		561.8,513.3 572.9,513.3 572.9,507.3 573.2,507.3 573.2,508.1 575.1,508.1 580,508.1 580,507.3 582.9,507.3 582.9,503.3
		574.3,503.3 574.3,501.5 572.9,501.5 572.9,486 569.3,486 569.3,501.5 560.6,501.5 560.6,503.3 558.5,503.3 558.5,501.6 	"/>
    <rect appId="7-2e29" x="573.2" y="495.7" class="st0" width="3.7" height="5.4"/>
    <polygon class="st0" appId="7-2e23" points="581,503 581,499.7 582.9,499.7 582.9,495.7 577.3,495.7 577.3,503 	"/>
    <rect appId="7-2e27" x="573.2" y="491.1" class="st0" width="9.7" height="4.3"/>
    <polygon class="st0" appId="7-2e22" points="573.2,483.8 573.2,490.7 582.9,490.7 582.9,485.6 581.2,485.6 581.2,483.8 	"/>
    <polygon class="st0" appId="7-2e14" points="568.9,483.8 560.6,483.8 560.6,485.5 558.9,485.5 558.9,490.3 568.9,490.3 	"/>
    <rect appId="7-2e12" x="559.2" y="490.7" class="st0" width="9.7" height="10.5"/>
    <rect appId="7-2e19" x="551.4" y="483.8" class="st0" width="7.1" height="7.3"/>
    <polygon class="st0" appId="7-2e01" points="506.8,520.6 506.8,524.9 529.5,524.9 529.5,520.6 529.5,511 506.8,511 	"/>
    <polygon class="st0" appId="7-2e64" points="589.2,494 589.2,491.6 589.2,490.6 589.2,488.2 589.2,486.6 588.8,486.6 583.6,486.6 583.3,486.6
		583.3,491.1 583.3,495.5 583.3,499.9 583.3,504.9 583.3,507.3 584.5,507.3 588.1,507.3 589.4,507.3 590.8,507.3 593.2,507.3
		593.2,506.4 593.2,504 593.2,501.5 589.2,501.5 589.2,496.4 	"/>
    <polygon class="st0" appId="7-2e65" points="534.8,477.7 534.8,483.5 545.1,483.5 545.1,486.3 551,486.3 551,483.5 569.3,483.5 569.3,485.6
		572.9,485.6 572.9,483.5 583.3,483.5 583.3,486.2 589.2,486.2 589.2,483.5 613.5,483.5 613.5,477.6 	"/>
    <polygon appId="7-2e62" class="st0" points="541.5,504 541.5,506.4 541.5,507.3 543.9,507.3 546.4,507.3 550.1,507.3 551,507.3 551,506.9
		551,504.5 551,499.9 551,495.4 551,491.2 551,486.7 550.6,486.7 545.5,486.7 545.1,486.7 545.1,488.3 545.1,490.7 545.1,491.5
		545.1,493.9 545.1,501.5 541.5,501.5 	"/>
    <polygon appId="7-2e61-c" class="st0" points="596.4,513.3 596.1,513.2 595.8,513.2 595.6,513.1 595.3,513 595,512.9 594.7,512.7 594.4,512.5
		594.2,512.3 594,512 593.8,511.7 593.6,511.5 593.4,511.2 593.3,510.8 593.2,510.5 593.2,510.2 593.2,509.9 593.2,509.7
		593.2,509.3 593.2,507.7 589.5,507.7 589.5,516.8 589.1,516.8 589.1,525.2 602.9,525.2 602.9,524.9 604,524.9 604,523.5
		605.7,523.5 605.7,513.3 	"/>
    <polygon class="st0" appId="7-2e61-b" points="589.2,507.7 583.7,507.7 583.7,509.2 583.3,509.2 583.3,507.7 580.3,507.7 580.3,509.2 580,509.2
		580,508.5 573.2,508.5 573.2,511.8 575.1,511.8 575.1,512.1 573.2,512.1 573.2,513.3 575.1,513.3 575.1,525.2 581.3,525.2
		581.3,523.3 583.1,523.3 583.1,525.2 588.4,525.2 588.4,516 589.2,516 	"/>
    <polygon appId="7-2e60-b" class="st0" points="561,512.1 559.6,512.1 559.6,511.8 561.4,511.8 561.4,508.5 554.7,508.5 554.7,509.2 554.4,509.2
		554.4,507.7 551.4,507.7 551.4,509.2 551,509.2 551,507.7 545.2,507.7 545.2,516 545.9,516 545.9,525.2 558.5,525.2 558.5,523.3
		559.6,523.3 559.6,513.3 561,513.3 	"/>
    <polygon class="st0" appId="7-2e60-c" points="544.8,507.7 541.5,507.7 541.5,509.9 541.5,510.2 541.4,510.5 541.3,510.8 541.2,511.2 541.1,511.5
		540.9,511.7 540.7,512 540.5,512.2 540.3,512.5 540,512.7 539.7,512.8 539.4,513 539.1,513.1 538.8,513.2 538.6,513.2 538.3,513.3
		529.7,513.3 529.7,525.3 536,525.2 536,523.3 537.8,523.3 537.8,525.2 545.2,525.2 545.2,516.8 544.8,516.8 	"/>
    <polygon appId="7-2e15" class="st0" points="529.7,513 537.8,513 538.1,513 538.4,512.9 538.7,512.9 539,512.8 539.3,512.7 539.6,512.5
		539.8,512.3 540.1,512.1 540.3,511.9 540.5,511.6 540.7,511.4 540.9,511.1 541,510.8 541.1,510.4 541.1,510.1 541.1,509.8
		541.1,501.5 538,501.5 538,503.4 535.8,503.4 535.8,501.5 529.8,501.5 529.8,504 529.7,504 529.7,510.3 529.8,510.3 529.8,511
		529.7,511 	"/>
    <polygon appId="7-2e20" class="st0" points="529.8,493.8 529.7,493.8 529.7,500.8 529.8,500.8 529.8,501.2 544.8,501.2 544.8,491.3 529.8,491.3
		"/>
    <path appId="7-2e40" class="st0" d="M500.4,493l0.2-0.8l0.3-0.8l0.5-0.7l0.6-0.6l0.7-0.5l0.8-0.4l0.8-0.2l0.9-0.1l0.9,0.1l0.8,0.2l0.8,0.4l0.7,0.5
		l0.6,0.6l0.5,0.7l0.3,0.8l0.2,0.8v0.3h12.7v-9.3h-0.5v-0.4h12.5v-5.8h-27.5v-2.4h-7.7v1.1l-13.3,16.8h14.5V493z M506.4,484.2
		l0.2-0.3l0.3-0.2l0.3-0.1l0.3,0.1l0.3,0.2l0.2,0.3l0.1,0.3l-0.1,0.3l-0.2,0.3l-0.3,0.2l-0.3,0.1l-0.3-0.1l0,0l-0.3-0.2l-0.2-0.3
		l-0.1-0.3L506.4,484.2z M497.2,482l-0.3-0.1l-0.3-0.2l-0.2-0.3l-0.1-0.3l0.1-0.3l0.2-0.3l0.3-0.2l0.3-0.1l0.3,0.1l0.3,0.2l0.2,0.3
		l0.1,0.3l-0.1,0.3l-0.2,0.3l-0.3,0.2L497.2,482z"/>
    <path class="st0" appId="7-2e02" d="M529.5,493.6h-19.7v0.2l-0.2,0.8l-0.3,0.8l-0.5,0.7l-0.6,0.6l-0.7,0.5l-0.8,0.4l-0.8,0.2l-0.9,0.1l-0.9-0.1
		l-0.8-0.2l-0.8-0.4l-0.7-0.5l-0.6-0.6l-0.5-0.7l-0.3-0.8l-0.2-0.8v-0.2h-14.8l-13.4,16.9l35,0.2v0.2h22.3v-0.7h0.1V504h-0.1l0-3.2
		h0.1v-7h-0.1V493.6z M482.5,498.5l0.2-0.3l0.3-0.2l0.3-0.1l0.3,0.1l0.3,0.2l0.2,0.3l0.1,0.3l-0.1,0.3l-0.2,0.3l-0.3,0.2l-0.3,0.1
		l-0.3-0.1l-0.3-0.2l-0.2-0.3l-0.1-0.3L482.5,498.5z M485.3,509.6l-0.2,0.3l-0.3,0.2l-0.3,0.1l-0.3-0.1l-0.3-0.2l-0.2-0.3l-0.1-0.3
		l0.1-0.3l0.2-0.3l0.3-0.2l0.3-0.1l0.3,0.1l0.3,0.2l0.2,0.3l0.1,0.3L485.3,509.6z M498.4,503.5l-0.3,0.1l-0.3-0.1l-0.3-0.2l-0.2-0.3
		l-0.1-0.3l0.1-0.3l0.2-0.3l0.3-0.2l0.3-0.1l0.3,0.1l0.2,0.1l0.1,0.1l0.2,0.3l0.1,0.3l-0.1,0.3l-0.2,0.3L498.4,503.5z M507.6,503
		l-0.2,0.3l-0.3,0.2l-0.3,0.1l-0.3-0.1l-0.3-0.2L506,503l-0.1-0.3l0.1-0.3l0.2-0.3l0.3-0.2l0.2,0l0.1,0l0.3,0.1l0.3,0.2l0.2,0.3
		l0.1,0.3L507.6,503z"/>
</g>
  <text class="text a" id="one" x="532.85" y="500.6" font-weight="bold" font-size="22.99px">A</text>
  <polygon *ngIf="isAreasRoute" fill="#00FFA3" appArea="31" xmlns="http://www.w3.org/2000/svg" id="Zone_x5F_A_00000124874268462822003570000010717867968783526275_" class="" points="613,462.3 605.3,462.3   605.3,461.7 537.1,461.9 537.3,477.5 528,477.5 528,462.2 517.9,462.2 517.9,447.8 507.3,447.8 507.3,437 517.8,437 517.8,429.8   499.5,429.8 499.5,437.4 499.3,437.4 499.3,455 500.3,455.8 500.2,476.5 473.8,510.1 503.2,510.1 503.2,510.2 506.6,510.2   506.6,509.4 514.1,509.4 514.1,525.2 554.8,525.1 559.1,525.1 604.6,525.1 604.6,485.9 613,485.9 "/>
</svg>
