<svg width="20" height="21" viewBox="0 0 20 21" fill="none" xmlns="http://www.w3.org/2000/svg">
  <path d="M14.6452 4.21746C16.6774 5.64603 18 7.98253 18 10.627C18 14.9698 14.4258 18.4905 10.0161 18.5C5.61291 18.5095 2.00646 14.9762 2.00001 10.6397C1.99678 7.99523 3.31936 5.65238 5.34839 4.22063C5.72581 3.95714 6.25162 4.06825 6.47742 4.46508L6.9871 5.35714C7.17742 5.69047 7.0871 6.11269 6.7742 6.34127C5.43549 7.31904 4.58065 8.86825 4.58065 10.6238C4.57742 13.554 6.98387 15.9603 10 15.9603C12.9548 15.9603 15.4387 13.6047 15.4194 10.5921C15.4097 8.94761 14.6226 7.36031 13.2226 6.33809C12.9097 6.10952 12.8226 5.6873 13.0129 5.35714L13.5226 4.46508C13.7484 4.07143 14.271 3.95397 14.6452 4.21746ZM11.2903 10.8809V3.2619C11.2903 2.83968 10.9452 2.5 10.5161 2.5H9.48387C9.05484 2.5 8.70968 2.83968 8.70968 3.2619V10.8809C8.70968 11.3032 9.05484 11.6428 9.48387 11.6428H10.5161C10.9452 11.6428 11.2903 11.3032 11.2903 10.8809Z" fill="currentColor"/>
</svg>
