<svg width="20" height="21" viewBox="0 0 20 21" fill="none" xmlns="http://www.w3.org/2000/svg">
  <path d="M7.5 16.8333H8V16.3333V13V12.5H7.5H4.16667H3.66667V13V16.3333V16.8333H4.16667H7.5ZM15.8333 8.5H16.3333V8V4.66667V4.16667H15.8333H12.5H12V4.66667V8V8.5H12.5H15.8333ZM14.5 13.8333V14.3333H15H16.6667C16.7551 14.3333 16.8399 14.3685 16.9024 14.431C16.9649 14.4935 17 14.5783 17 14.6667C17 14.7551 16.9649 14.8399 16.9024 14.9024L17.2559 15.2559L16.9024 14.9024C16.8399 14.9649 16.7551 15 16.6667 15H15H14.5V15.5V17.1667C14.5 17.2551 14.4649 17.3399 14.4024 17.4024L14.7559 17.7559L14.4024 17.4024C14.3399 17.4649 14.2551 17.5 14.1667 17.5C14.0783 17.5 13.9935 17.4649 13.931 17.4024C13.8685 17.3399 13.8333 17.2551 13.8333 17.1667V15.5V15H13.3333H11.6667C11.5783 15 11.4935 14.9649 11.431 14.9024C11.3685 14.8399 11.3333 14.7551 11.3333 14.6667C11.3333 14.5783 11.3685 14.4935 11.431 14.431C11.4935 14.3685 11.5783 14.3333 11.6667 14.3333H13.3333H13.8333V13.8333V12.1667C13.8333 12.0783 13.8685 11.9935 13.931 11.931C13.9935 11.8685 14.0783 11.8333 14.1667 11.8333C14.2551 11.8333 14.3399 11.8685 14.4024 11.931C14.4649 11.9935 14.5 12.0783 14.5 12.1667V13.8333ZM7.5 8.5H8V8V4.66667V4.16667H7.5H4.16667H3.66667V4.66667V8V8.5H4.16667H7.5ZM3.33333 11.8333H8.33333C8.42174 11.8333 8.50652 11.8685 8.56904 11.931C8.63155 11.9935 8.66667 12.0783 8.66667 12.1667V17.1667C8.66667 17.2551 8.63155 17.3399 8.56904 17.4024C8.50652 17.4649 8.42174 17.5 8.33333 17.5H3.33333C3.24493 17.5 3.16014 17.4649 3.09763 17.4024C3.03512 17.3399 3 17.2551 3 17.1667V12.1667C3 12.0783 3.03512 11.9935 3.09763 11.931C3.16014 11.8685 3.24493 11.8333 3.33333 11.8333ZM11.6667 3.5H16.6667C16.7551 3.5 16.8399 3.53512 16.9024 3.59763C16.9649 3.66014 17 3.74493 17 3.83333V8.83333C17 8.92174 16.9649 9.00652 16.9024 9.06904C16.8399 9.13155 16.7551 9.16667 16.6667 9.16667H11.6667C11.5783 9.16667 11.4935 9.13155 11.431 9.06904C11.3685 9.00652 11.3333 8.92174 11.3333 8.83333V3.83333C11.3333 3.74493 11.3685 3.66014 11.431 3.59763C11.4935 3.53512 11.5783 3.5 11.6667 3.5ZM3.33333 3.5H8.33333C8.42174 3.5 8.50652 3.53512 8.56904 3.59763C8.63155 3.66014 8.66667 3.74493 8.66667 3.83333V8.83333C8.66667 8.92174 8.63155 9.00652 8.56904 9.06904C8.50652 9.13155 8.42174 9.16667 8.33333 9.16667H3.33333C3.24493 9.16667 3.16014 9.13155 3.09763 9.06904C3.03512 9.00652 3 8.92174 3 8.83333V3.83333C3 3.74493 3.03512 3.66014 3.09763 3.59763C3.16014 3.53512 3.24493 3.5 3.33333 3.5Z" fill="#6495ED" stroke="#6495ED"/>
</svg>
