<svg width="26" height="26" viewBox="0 0 26 26" fill="none" xmlns="http://www.w3.org/2000/svg">
  <g clip-path="url(#clip0)">
    <path d="M17.5126 20.94L14.8926 18.3294C13.8794 18.6901 12.7841 18.7569 11.7343 18.5221C10.6844 18.2872 9.72317 17.7603 8.96231 17.0026C8.20146 16.245 7.6723 15.2878 7.43642 14.2424C7.20054 13.197 7.26762 12.1064 7.62987 11.0974L4.28585 7.76756C1.51973 10.2165 -0.00292969 13 -0.00292969 13C-0.00292969 13 4.867 21.8905 12.9835 21.8905C14.5426 21.8852 16.084 21.5617 17.5126 20.94ZM8.45451 5.06001C9.88311 4.43837 11.4245 4.11489 12.9835 4.10954C21.1001 4.10954 25.97 13 25.97 13C25.97 13 24.4457 15.7819 21.6829 18.2341L18.3356 14.9009C18.6978 13.892 18.7649 12.8014 18.529 11.756C18.2932 10.7106 17.764 9.75341 17.0032 8.99577C16.2423 8.23813 15.281 7.71121 14.2312 7.47633C13.1813 7.24144 12.0861 7.30824 11.0729 7.66896L8.45451 5.06001Z" fill="#CCCCCC"/>
    <path d="M8.96674 12.4278C8.87744 13.049 8.93467 13.6824 9.13388 14.2778C9.33309 14.8731 9.66881 15.4141 10.1144 15.8579C10.5601 16.3016 11.1033 16.6359 11.7012 16.8343C12.2991 17.0326 12.9352 17.0896 13.5591 17.0007L8.96511 12.4278H8.96674ZM17.0021 13.5722L12.4098 8.99768C13.0336 8.90876 13.6697 8.96575 14.2676 9.16411C14.8655 9.36248 15.4088 9.69678 15.8544 10.1405C16.3 10.5843 16.6358 11.1253 16.835 11.7206C17.0342 12.316 17.0914 12.9494 17.0021 13.5706V13.5722ZM22.1496 23.2709L2.66992 3.87354L3.81922 2.7291L23.2989 22.1265L22.1496 23.2693V23.2709Z" fill="#CCCCCC"/>
  </g>
  <defs>
    <clipPath id="clip0">
      <rect width="26" height="26" fill="white"/>
    </clipPath>
  </defs>
</svg>
