<svg width="20" height="21" viewBox="0 0 20 21" fill="none" xmlns="http://www.w3.org/2000/svg">
  <path d="M9.45312 11.3125H9.95312V10.8125V9.51562H10.0469V10.8125V11.3125H10.5469H11.8438V11.4062H10.5469H10.0469V11.9062V13.2031H9.95312V11.9062V11.4062H9.45312H8.15625V11.3125H9.45312ZM9.83017 6.68945L9.97515 6.82812H10.1758H17.1875C17.2571 6.82812 17.3125 6.88356 17.3125 6.95312V16.2812C17.3125 16.3508 17.2571 16.4062 17.1875 16.4062H2.8125C2.74294 16.4062 2.6875 16.3508 2.6875 16.2812V4.71875C2.6875 4.64919 2.74294 4.59375 2.8125 4.59375H7.63922L9.83017 6.68945ZM16.4062 16H16.9062V15.5V7.73438V7.23438H16.4062H9.81196L7.621 5.13868L7.47602 5H7.27539H3.59375H3.09375V5.5V15.5V16H3.59375H16.4062Z" fill="#6495ED" stroke="#6495ED"/>
</svg>
