<svg width="20" height="21" viewBox="0 0 20 21" fill="none" xmlns="http://www.w3.org/2000/svg">
  <path d="M17.9168 5.5C17.9168 5.70411 17.8419 5.90111 17.7062 6.05364C17.5706 6.20617 17.3837 6.30362 17.181 6.3275L17.0835 6.33333H16.3793L15.3535 16.7667C15.2976 17.3328 15.0332 17.8579 14.6117 18.2399C14.1901 18.6219 13.6415 18.8334 13.0727 18.8333H6.92766C6.35879 18.8334 5.81022 18.6219 5.38866 18.2399C4.9671 17.8579 4.70268 17.3328 4.64683 16.7667L3.621 6.33333H2.91683C2.69582 6.33333 2.48385 6.24554 2.32757 6.08926C2.17129 5.93298 2.0835 5.72101 2.0835 5.5C2.0835 5.27899 2.17129 5.06702 2.32757 4.91074C2.48385 4.75446 2.69582 4.66667 2.91683 4.66667H7.0835C7.0835 4.28364 7.15894 3.90437 7.30551 3.55051C7.45209 3.19664 7.66693 2.87511 7.93777 2.60427C8.20861 2.33343 8.53014 2.11859 8.884 1.97202C9.23787 1.82544 9.61714 1.75 10.0002 1.75C10.3832 1.75 10.7625 1.82544 11.1163 1.97202C11.4702 2.11859 11.7917 2.33343 12.0626 2.60427C12.3334 2.87511 12.5482 3.19664 12.6948 3.55051C12.8414 3.90437 12.9168 4.28364 12.9168 4.66667H17.0835C17.3045 4.66667 17.5165 4.75446 17.6728 4.91074C17.829 5.06702 17.9168 5.27899 17.9168 5.5ZM11.8752 8.20833C11.7241 8.20834 11.5782 8.26304 11.4644 8.36231C11.3506 8.46158 11.2765 8.59871 11.256 8.74833L11.2502 8.83333V14.6667L11.256 14.7517C11.2766 14.9013 11.3506 15.0383 11.4644 15.1376C11.5783 15.2368 11.7242 15.2915 11.8752 15.2915C12.0262 15.2915 12.1721 15.2368 12.2859 15.1376C12.3997 15.0383 12.4737 14.9013 12.4943 14.7517L12.5002 14.6667V8.83333L12.4943 8.74833C12.4738 8.59871 12.3998 8.46158 12.2859 8.36231C12.1721 8.26304 12.0262 8.20834 11.8752 8.20833ZM8.12516 8.20833C7.97413 8.20834 7.82821 8.26304 7.71439 8.36231C7.60056 8.46158 7.52654 8.59871 7.506 8.74833L7.50016 8.83333V14.6667L7.506 14.7517C7.52658 14.9013 7.60062 15.0383 7.71444 15.1376C7.82826 15.2368 7.97416 15.2915 8.12516 15.2915C8.27617 15.2915 8.42206 15.2368 8.53588 15.1376C8.6497 15.0383 8.72375 14.9013 8.74433 14.7517L8.75016 14.6667V8.83333L8.74433 8.74833C8.72379 8.59871 8.64976 8.46158 8.53594 8.36231C8.42211 8.26304 8.27619 8.20834 8.12516 8.20833ZM10.0002 3.41667C9.66864 3.41667 9.3507 3.54836 9.11628 3.78278C8.88186 4.0172 8.75016 4.33515 8.75016 4.66667H11.2502C11.2502 4.33515 11.1185 4.0172 10.884 3.78278C10.6496 3.54836 10.3317 3.41667 10.0002 3.41667Z" fill="currentColor"/>
</svg>
