<svg width="26" height="26" viewBox="0 0 26 26" fill="none" xmlns="http://www.w3.org/2000/svg">
  <path d="M16.999 13C16.999 14.0609 16.5776 15.0783 15.8275 15.8284C15.0773 16.5786 14.0599 17 12.999 17C11.9382 17 10.9207 16.5786 10.1706 15.8284C9.42045 15.0783 8.99902 14.0609 8.99902 13C8.99902 11.9391 9.42045 10.9217 10.1706 10.1716C10.9207 9.42143 11.9382 9 12.999 9C14.0599 9 15.0773 9.42143 15.8275 10.1716C16.5776 10.9217 16.999 11.9391 16.999 13Z" fill="currentColor"/>
  <path d="M0.199219 13C0.199219 13 4.99922 4.19995 12.9992 4.19995C20.9992 4.19995 25.7992 13 25.7992 13C25.7992 13 20.9992 21.7999 12.9992 21.7999C4.99922 21.7999 0.199219 13 0.199219 13ZM12.9992 18.6C14.4844 18.6 15.9088 18.01 16.959 16.9597C18.0092 15.9095 18.5992 14.4852 18.5992 13C18.5992 11.5147 18.0092 10.0904 16.959 9.04015C15.9088 7.98995 14.4844 7.39995 12.9992 7.39995C11.514 7.39995 10.0896 7.98995 9.03942 9.04015C7.98922 10.0904 7.39922 11.5147 7.39922 13C7.39922 14.4852 7.98922 15.9095 9.03942 16.9597C10.0896 18.01 11.514 18.5999 12.9992 18.6Z" fill="currentColor"/>
</svg>
