<svg width="20" height="21" viewBox="0 0 20 21" fill="none" xmlns="http://www.w3.org/2000/svg">
  <path d="M9.82617 3.32031H10.9395C11.0384 3.32031 11.0879 3.36979 11.0879 3.46875V16.5312C11.0879 16.6302 11.0384 16.6797 10.9395 16.6797H9.82617C9.72721 16.6797 9.67773 16.6302 9.67773 16.5312V3.46875C9.67773 3.36979 9.72721 3.32031 9.82617 3.32031Z" fill="#6495ED" stroke="#6495ED" stroke-width="0.5"/>
  <path d="M4.14844 9.29492H16.6172C16.7161 9.29492 16.7656 9.3444 16.7656 9.44336V10.5566C16.7656 10.6556 16.7161 10.7051 16.6172 10.7051H4.14844C4.04948 10.7051 4 10.6556 4 10.5566V9.44336C4 9.3444 4.04948 9.29492 4.14844 9.29492Z" fill="#6495ED" stroke="#6495ED" stroke-width="0.5"/>
</svg>
