<svg version="1.1" xmlns="http://www.w3.org/2000/svg" xmlns:xlink="http://www.w3.org/1999/xlink" x="0px" y="0px"
     viewBox="300 300 500 400" width="100%" style="enable-background:new 0 0 1024 1024;" xml:space="preserve">
<style type="text/css">
	.st0{fill:#418369;stroke:#71e5b5;stroke-width:0.3;}
</style>
  <desc>Bah_Collisions_all_v7.blend, (Blender 2.83.0)</desc>

  <polygon appId="1-4b04" class="st0" points="433.1,431.8 429.4,428.9 423.6,436.3 427.3,439.2 "/>
  <polygon appId="1-2a28" class="st0" points="378.5,517.9 384.5,510.3 378.5,505.6 372.5,513.2 "/>
  <polygon class="st0" appId="1-2a13" points="416.5,520.7 410.8,516.3 414.5,511.6 411.7,509.4 406,516.7 402.6,521 411.1,527.6 "/>
  <polygon class="st0" appId="1-2j30" points="402.2,397.8 404.5,404.7 411.8,402.2 409.5,395.6 408.1,396.1 408,395.8 "/>
  <polygon appId="1-2j21" class="st0" points="395.6,334.7 398.3,342.6 400.3,341.9 401.4,345 413.8,340.7 410.4,330.7 409.1,331.2 408.8,330.2 "/>
  <polygon appId="1-2j12" class="st0" points="383.2,362.5 384.8,367.3 386.9,373.6 396.3,370.4 394.1,364.1 392.5,359.3 "/>
  <polygon appId="1-2f69" class="st0" points="641.4,509.6 641.4,511.8 639.6,511.8 639.6,519.7 645.8,519.7 645.8,525 649.8,525 649.8,523.3
	650.8,523.3 650.8,509.6 "/>
  <polygon appId="1-2f65c" class="st0" points="595.6,509.3 592.3,509.3 592.4,511.4 595.6,511.4 "/>
  <polygon appId="1-2f65a" class="st0" points="594.2,520.1 594.2,524.6 600,524.6 600,520.1 "/>
  <polygon class="st0" appId="1-2a63" points="402.9,502 413.9,510.6 420.4,515.7 420.4,515.6 423,512.4 423,512.3 412,503.8 405.5,498.7 "/>
  <polygon appId="1-2a44" class="st0" points="395.5,468.2 397.5,465.5 402.1,459.7 389.8,450.1 383.2,458.5 390.9,464.6 "/>
  <polygon class="st0" appId="1-4f02a" points="479.9,467.9 483.4,463.4 483.6,463.1 481.2,461.3 486.2,455.1 483.3,452.9 478.4,459.1 471.5,453.6
	474.5,449.7 476.3,447.4 473.5,445.2 468.7,451.5 460.2,444.9 456.5,449.6 456.6,449.7 "/>
  <polygon class="st0" appId="1-4b26a" points="452.5,498.6 456,501.3 458.8,497.8 455.8,495.4 454.3,497.4 453.8,497 "/>
  <polygon class="st0" appId="1-41b3" points="465.5,469.5 461.8,474.2 462.8,474.9 466.5,477.9 469.4,480.1 469.9,480.6 464.2,487.8 460.8,485.2
	457.1,482.2 456.1,481.5 452.5,486.2 468,498.3 471.7,493.5 471.2,493.1 474.9,488.4 475.4,488.8 481,481.6 "/>
  <polygon class="st0" appId="1-4b06" points="412.8,445.7 415.7,454.1 423.3,444.5 417.4,439.9 "/>
  <polygon class="st0" appId="1-2a27" points="418.6,482 411.8,476.7 405.8,484.5 406.6,485.1 405.9,486.1 411.7,490.7 "/>
  <polygon appId="1-2a22" class="st0" points="381.3,530.2 389.9,536.9 395.1,530.1 386.6,523.5 "/>
  <polygon class="st0" appId="1-2j31" points="382.8,396.1 388.4,394.1 390,393.5 387.8,387 380.5,389.5 "/>
  <polygon appId="1-2j22" class="st0" points="371.6,344.1 376.6,358.4 384,355.8 383.3,353.8 388,352.2 383.3,338.8 372.5,342.5 372.9,343.6 "/>
  <polygon class="st0" appId="1-2f91" points="555.8,483.5 555.8,477.6 529.2,477.6 529.2,483.8 536.1,483.8 536.1,483.5 538.3,483.5 544.2,483.5 "/>
  <polygon appId="1-2f69a" class="st0" points="639.6,520.1 639.6,524.6 645.4,524.6 645.4,520.1 "/>
  <polygon class="st0" appId="1-2f42" points="520.9,484.2 512.9,484.2 512.9,496.7 520.9,496.7 520.9,488.8 "/>
  <polygon class="st0" appId="1-2f02a" points="529.9,497.1 524,497.1 524,502.9 529.9,502.9 "/>
  <polygon class="st0" appId="1-2a52b" points="366.9,504.2 366.2,503.6 366.9,502.7 362.1,498.9 357.3,505.1 362.8,509.4 "/>
  <polygon class="st0" appId="1-2a46" points="411.6,476.5 410.8,475.9 408.2,473.9 401.8,468.9 399.6,471.7 400.3,472.2 395.7,478.2 404.7,485.3 "/>
  <polygon appId="1-4f02" class="st0" points="434.7,432.6 438.5,427.9 426,418.1 423.1,415.9 420,406.8 414.4,408.7 415.5,411.7 410.9,417.6
	415.6,421.2 417.3,419 "/>
  <polygon appId="1-4b29" class="st0" points="426.7,478.5 432.7,483.1 433.5,482.1 434.6,482.9 435.2,482.1 435.7,482.5 437.1,480.8 436.6,480.4
	439.6,476.5 439,476.1 436.2,473.9 432.5,471 "/>
  <polygon class="st0" appId="1-4b44a" points="423.8,444.4 422.8,445.7 430.2,451.5 431.2,450.2 431.3,450.3 435,445.7 415.9,430.8 412.3,435.5 "/>
  <polygon class="st0" appId="1-2k06c" points="697.9,599.2 697.9,603.9 698.2,603.9 698.2,605.5 711.9,605.5 711.9,597.5 698.2,597.5 698.2,599.2 "/>
  <polygon appId="1-2a31" class="st0" points="423.3,485.7 418.8,482.2 409.6,494 414.9,498.2 418.1,500.7 420.3,497.9 419.4,497.2 421.4,494.7
	418.2,492.2 421.4,488.1 "/>
  <polygon class="st0" appId="1-2a31b" points="420.3,490 424.1,493 425.5,491.1 421.8,488.2 "/>
  <polygon class="st0" appId="1-2a31a" points="422,487.9 425.7,490.9 427.3,488.8 423.6,485.9 "/>
  <polygon class="st0" appId="1-2a31d" points="418.7,492.1 422.4,495.1 423.9,493.2 420.1,490.3 "/>
  <polygon appId="1-2a07" class="st0" points="388.9,583.8 393.4,587.3 396.9,582.8 392.4,579.3 "/>
  <polygon appId="1-2j23" class="st0" points="350.9,351.3 354.3,361.2 366.7,357 365.6,353.8 367.6,353.1 367.5,352.8 364.9,345.3 351.8,349.8
	352.2,350.9 "/>
  <polygon class="st0" appId="1-2f97" points="536.3,525.1 536.3,523.4 537,523.4 537,509.6 531,509.6 531,525.1 "/>
  <polygon class="st0" appId="1-2f71a" points="633.4,462.2 633.4,466.8 639.2,466.8 639.2,462.2 "/>
  <polygon class="st0" appId="1-2f67a" points="616.9,520.1 616.9,524.6 622.7,524.6 622.7,520.1 "/>
  <polygon class="st0" appId="1-2f63c" points="572.9,509.3 569.6,509.3 569.6,511.4 572.9,511.4 "/>
  <polygon class="st0" appId="1-2f03b" points="589,503.4 600,503.4 600,498.1 589,498.1 "/>
  <polygon class="st0" appId="1-2a53" points="361.2,473.3 379.5,487.6 385.8,479.5 389.9,474.3 378.4,465.3 371.6,460 "/>
  <polygon appId="1-2a50" class="st0" points="355,519.1 354.4,518.6 355.5,517.1 356.1,517.5 362.2,509.7 353.5,502.9 348.3,498.8 330.8,521.2
	339.6,528.1 344.8,532.1 "/>
  <polygon class="st0" appId="1-4f06" points="481.7,461.2 485.8,464.4 487.9,461.6 483.9,458.4 "/>
  <polygon appId="1-4b24" class="st0" points="464.4,468.3 471.5,473.8 474.5,469.9 475,470.3 476.3,468.6 475.8,468.2 476.5,467.4 474.8,466.1
	475.6,465 470.3,460.8 "/>
  <polygon class="st0" appId="1-4b14" points="421,474 426.5,478.3 432.3,470.8 432.1,470.7 430.2,469.2 426.8,466.6 "/>
  <polygon class="st0" appId="1-4b02" points="417.9,431.9 419.3,433 425.1,425.5 423.2,424.1 422.4,425.1 420.6,423.7 415.5,430.1 "/>
  <polygon class="st0" appId="1-2a25" points="397.7,509.2 406.3,515.9 408.7,512.8 407.8,512.1 408.7,510.8 409.6,511.5 411.5,509.2 403,502.5 "/>
  <polygon class="st0" appId="1-2a10" points="450.6,507 436.3,495.9 428.9,505.4 433.9,509.4 435.3,507.5 436.5,508.4 435.7,509.5 443.8,515.8 "/>
  <polygon appId="1-2a01" class="st0" points="422.1,571.7 408.7,561.2 402.7,568.9 398.4,574.3 406.1,580.3 405.2,581.4 408.9,584.3 409.8,583.2
	411.9,584.8 "/>
  <polygon appId="1-2j41d" class="st0" points="384.5,356 388.8,354.6 388.1,352.5 383.8,354 "/>
  <polygon appId="1-2j24" class="st0" points="354.4,361.6 357.8,371.5 359.2,371 359.3,371.5 372.4,367 370,360 369.9,359.8 367.9,360.5
	366.8,357.3 "/>
  <polygon class="st0" appId="1-2f72c" points="614.1,477.6 618.6,477.6 618.6,475.4 614.1,475.4 "/>
  <polygon appId="1-2f72b" class="st0" points="647,483.5 650.8,483.5 650.7,477.6 647,477.6 "/>
  <polygon class="st0" appId="1-2f67c" points="618.2,509.3 615.3,509.3 615.3,509.7 615.1,509.7 615.1,511.4 618.3,511.4 618.3,509.7 618.2,509.7 "/>
  <polygon appId="1-2f06" class="st0" points="628.8,493.1 615.6,493.1 615.6,500.5 628.8,500.5 "/>
  <polygon class="st0" appId="1-2a53b" points="384.9,469.7 389.8,473.4 390.5,472.5 391.2,473.1 394.9,468.4 389.3,464.1 "/>
  <polygon class="st0" appId="1-2a53a" points="371.9,459.3 375.2,461.8 375.5,461.4 375.6,461.2 376.3,461.7 380.2,456.7 376.3,453.6 "/>
  <polygon class="st0" appId="1-4f07" points="478.1,438.9 474.1,435.8 467,444.8 471,447.9 "/>
  <polygon class="st0" appId="1-4b22b" points="462.6,454.9 459.1,452.1 458.3,453.1 457.9,453.7 458.4,454.1 456.8,456.1 459.8,458.4 "/>
  <polygon appId="1-4b21a" class="st0" points="444.2,440.5 441.2,438.1 438.4,441.7 441.4,444.1 "/>
  <polygon class="st0" appId="1-4b09" points="447.9,474.6 442.8,470.7 446.3,466.3 447.3,467.1 448.1,466 452.1,469.2 "/>
  <polygon appId="1-2a31a" class="st0" points="406.1,498.6 410.4,502 413.8,497.8 409.3,494.2 "/>
  <polygon class="st0" appId="1-2a23" points="386.8,523.2 395.3,529.9 397,527.7 396.1,527 397.1,525.7 398,526.5 400.6,523.2 392,516.5 "/>
  <polygon class="st0" appId="1-2a01a" points="389.1,569.1 397,575.2 401.4,569.6 393.1,563.1 389.5,567.8 389.9,568.1 "/>
  <polygon appId="1-2j42a" class="st0" points="377.5,380.8 375.5,374.8 373.4,375.5 375.5,381.5 "/>
  <polygon class="st0" appId="1-2fc6" points="483.9,463.4 483.7,463.7 480.2,468.1 485.6,472.4 488.9,474.9 493.6,478.4 500.6,483.8 506.4,483.8
	506.4,483.5 508.4,483.5 508.4,483.8 521.2,483.8 528.8,483.8 528.8,477.6 507.1,477.6 507.1,472.6 500.4,472.6 500.4,473.8
	499.2,475.3 489.6,467.8 "/>
  <polygon appId="1-2f73c" class="st0" points="592.3,477.6 595.6,477.6 595.6,475.4 592.3,475.4 "/>
  <polygon appId="1-2f73a" class="st0" points="594.2,462.2 594.2,466.8 600,466.8 600,462.2 "/>
  <polygon class="st0" appId="1-2f61c" points="550.2,509.3 546.9,509.3 546.9,511.4 550.2,511.4 "/>
  <polygon appId="1-2f10" class="st0" points="572.6,494.1 581.9,494.1 581.9,485.6 572.6,485.6 "/>
  <polygon class="st0" appId="1-2a56" points="351.8,492.1 347.5,497.6 357.1,504.9 361.6,499.1 361.2,498.8 361.5,498.5 353.1,492 352.6,492.7 "/>
  <polygon class="st0" appId="1-2a43" points="389.2,448.5 387.5,447.2 387,447.9 383.1,444.9 376.5,453.4 382.9,458.3 389.5,449.8 388.7,449.2 "/>
  <polygon class="st0" appId="1-4f10" points="495.2,452.3 491.2,449.1 486.8,454.8 484.1,458.2 488.2,461.3 "/>
  <polygon appId="1-4b31" class="st0" points="417.1,453 420.9,456 420.5,456.5 422.2,457.9 422.6,457.4 424.5,458.8 429.1,452.9 428.1,452.1
	429,450.9 422.6,445.9 "/>
  <polygon appId="1-4b23" class="st0" points="470,460.6 462.9,455.1 459.9,458.9 459.4,458.5 458,460.3 458.5,460.6 457.1,462.5 457.3,462.7
	460.2,465 464.2,468 "/>
  <polygon appId="1-4b22" class="st0" points="456.9,452.1 457.7,451.1 451.8,446.4 446,453.8 449.6,456.7 452.5,458.9 453,459.3 453.7,458.4
	455.7,455.9 456,455.5 456.5,455.9 457.9,454.2 457.4,453.8 458,452.9 "/>
  <polygon appId="1-2a31b" class="st0" points="410.8,502.3 414.5,505.2 417.8,500.9 414.1,498 "/>
  <polygon appId="1-2a09" class="st0" points="443.2,515.8 435,509.4 431.4,514.1 439.6,520.5 "/>
  <polygon appId="1-2f91c" class="st0" points="604.3,485.6 604.3,483.5 600,483.5 600,488.7 600,490.5 600,498.1 600,503.4 604.3,503.4 604.3,501.2
	606,501.2 606,489.7 606,485.6 "/>
  <polygon appId="1-2f75c" class="st0" points="569.6,477.6 572.9,477.6 572.9,475.4 569.6,475.4 "/>
  <polygon appId="1-2f75a" class="st0" points="571.5,466.8 577.3,466.8 577.3,462.2 571.5,462.2 "/>
  <polygon class="st0" appId="1-2f66a" points="610.7,520.1 610.7,524.6 616.5,524.6 616.5,520.1 "/>
  <polygon class="st0" appId="1-2f11" points="572.6,503 581.6,503 581.6,501.1 581.9,501.1 581.9,494.5 572.6,494.5 "/>
  <polygon appId="1-2a57a" class="st0" points="337.3,527.4 329.9,521.6 326.3,526.2 333.7,532 "/>
  <polygon appId="1-2a40" class="st0" points="340.6,507.6 336.7,504.6 329.6,513.8 333.4,516.8 "/>
  <polygon appId="1-st01" class="st0" points="366.1,394.1 368.5,401.1 382.3,396.3 379.9,389.4 "/>
  <polygon class="st0" appId="1-4b42" points="408.1,463.9 415.5,454.5 411.4,442.6 405.8,444.5 406.3,445.9 398.2,456.2 404.4,461 "/>
  <polygon appId="1-4b27" class="st0" points="445.2,492.9 450.6,497.1 451.4,496.1 453,497.4 453.7,496.5 454.2,496.9 455.5,495.2 455,494.8
	458,491 451,485.5 "/>
  <polygon class="st0" appId="1-2k7b" points="673.6,617 677.6,615.6 677.6,615.4 682,613.9 679,604.9 659.7,611.5 659.6,611.3 657.4,612.1
	657.5,612.3 656.6,612.6 660,622.5 669,619.4 669,618.3 673.5,616.8 "/>
  <polygon class="st0" appId="1-2a32" points="389.8,487.7 391.9,485 401.4,492.4 395.2,500.2 393.8,499.1 393.3,499.6 385.3,493.4 387.5,490.6 "/>
  <polygon class="st0" appId="1-2a04a" points="456.3,511.5 450.9,507.3 444.3,515.7 449.7,519.9 "/>
  <polygon class="st0" appId="1-2k01" points="679,584.1 679,581.7 678.9,581.7 678.9,580.5 670.3,580.5 670.3,600.6 654.9,600.6 654.9,605.9
	650.6,605.9 650.2,607.7 650.2,608.5 634.1,613.6 637.9,625.4 657.3,619.2 657.3,618.9 658.1,618.6 656,612.3 657.3,611.8
	659.6,611.1 678.9,604.4 678.9,603.5 679,603.5 679,601.1 678.9,601.1 678.9,584.1 "/>
  <polygon class="st0" points="657.4,612.1 659.6,611.3 659.6,611.1 657.3,611.8 "/>
  <polygon appId="1-2f96" class="st0" points="514.2,509.3 523.2,509.3 523.2,525.1 514.2,525.1 "/>
  <polygon appId="1-2f77" class="st0" points="554.9,467.1 548.7,467.1 548.7,475.1 550.6,475.1 550.6,477.2 559.7,477.2 559.7,463.3 559.1,463.3
	559.1,461.8 554.9,461.9 "/>
  <polygon appId="1-2f72" class="st0" points="619,462 619,468.2 614.2,468.2 614.2,475.1 618.9,475.1 618.9,477.2 627.9,477.2 627.9,463.4
	627.2,463.4 627.2,462 "/>
  <polygon appId="1-2a62a" class="st0" points="411.4,539 411,538.7 412,537.4 412.5,537.7 415.8,533.4 410.3,529.2 407.9,532.3 407.3,531.8
	406.1,533.4 406.7,533.8 394.9,548.9 399.9,552.9 400.4,552.3 400.8,552.6 "/>
  <polygon class="st0" appId="1-2a60b" points="394.4,477.7 394.9,477.1 395.2,477.3 394.9,477.6 395.4,478 399.8,472.3 399.1,471.7 401.5,468.7
	397.9,465.9 395.9,468.5 390.1,475.8 386.4,480.5 391.7,484.6 401.7,492.4 407.1,496.7 411.5,491 "/>
  <polygon appId="1-2a42b" class="st0" points="358.7,467.5 362.7,470.6 383.1,444.4 380.2,442.1 380.1,442.3 379.2,441.6 368.4,455.4 369.3,456.1
	368.4,457.2 367.4,456.4 "/>
  <polygon class="st0" appId="1-st05" points="606,477 606.4,477 606.4,477.2 609.4,477.2 609.4,477 613.3,477 613.3,462.4 606,462.4 "/>
  <polygon appId="1-st02" class="st0" points="438.5,427.1 438.8,427.3 438.7,427.5 441,429.3 441.1,429.4 441.2,429.2 444.3,431.6 453.3,420.1
	447.5,415.6 "/>
  <polygon class="st0" appId="1-4b25" points="488.4,475 481.4,469.5 478.3,473.4 477.8,473 476.5,474.7 477,475.1 475.5,476.9 482.6,482.4 "/>
  <polygon appId="1-2k06d" class="st0" points="698,607.7 698,612.4 698.2,612.4 698.2,613 700.6,614.1 711.9,614.1 711.9,606 698.2,606 698.2,607.7
	"/>
  <polygon class="st0" appId="1-2a33" points="388.1,509.4 378.6,501.9 380.8,499.2 383,496.3 385.2,493.6 393.2,499.8 392.7,500.4 394.2,501.5 "/>
  <polygon class="st0"  appId="1-2a11" points="464.8,518.1 456.6,511.7 450.6,519.3 459,525.9 459.1,525.8 464.5,518.5 "/>
  <polygon appId="1-2j03" class="st0" points="396,383.8 393.8,377.4 384.2,380.8 385.9,385.8 387.4,385.3 387.8,386.7 "/>
  <polygon appId="1-2f77a" class="st0" points="548.7,462.2 548.7,466.8 554.6,466.8 554.6,462.2 "/>
  <polygon appId="1-2f70" class="st0" points="650.8,463.4 649.9,463.4 649.9,462 645.8,462 645.8,467.1 639.6,467.1 639.6,475.1 641.4,475.1
	641.4,477 641.4,477.2 650.7,477.2 "/>
  <polygon appId="1-2f60a" class="st0" points="542.6,520.1 542.6,524.6 548.4,524.6 548.4,520.1 "/>
  <polygon appId="1-2f01c" class="st0" points="481.2,501.4 506.4,501.4 506.5,509.3 506.5,510.1 503.3,510.1 503.3,510 471.3,510 472.1,509.1
	470.9,508.2 477.9,499.2 481,501.7 "/>
  <polygon appId="1-2a61a" class="st0" points="383.6,515.6 381.6,514 378.5,517.9 375.4,515.4 373.8,517.4 379,521.4 359.3,546.6 356.5,550.3
	361.9,554.5 389.1,519.7 "/>
  <polygon appId="1-2a37" class="st0" points="362.7,541.4 353.5,534.4 350.1,538.7 358.1,544.9 358.9,543.9 360,544.8 "/>
  <polygon class="st0" appId="1-st07" points="661.9,594.5 661.9,600.6 659.5,600.6 659.5,600 650.8,600 650.8,594.5 "/>
  <polygon class="st0" appId="1-4f11" points="486,464.6 491.2,468.6 496.1,462.3 500.1,462.4 500.1,456.7 497.8,456.7 497.8,454.8 498,454.5
	495.5,452.5 489.5,460.1 "/>
  <polygon appId="1-4b26" class="st0" points="464.9,496.3 462.4,494.3 462.1,494.1 460.7,496 460.2,495.6 458.8,497.3 459.3,497.7 456.3,501.6
	463.3,507.1 469.1,499.6 "/>
  <polygon appId="1-4b01" class="st0" points="411.5,426.9 415.3,429.8 421.1,422.4 417.3,419.5 "/>
  <polygon  class="st0" appId="1-2a34" points="378.7,521.5 369.1,514.1 362.6,522.4 372.1,529.9 "/>
  <polygon appId="1-2a19" class="st0" points="371.2,561.3 379.7,567.9 384.4,561.8 380.7,559 379.9,560.1 379.6,559.9 380.5,558.8 375.9,555.2 "/>
  <polygon appId="1-2j27" class="st0" points="424.7,372.4 414.1,341 401.5,345.4 402.6,348.5 406.9,360.8 412.6,376.8 412.7,377.1 423.5,373.4
	423.4,372.9 "/>
  <polygon class="st0" appId="1-2j05a" points="397.8,390.8 406.8,387.7 404.6,381.3 398.9,383.2 395.6,384.4 "/>
  <polygon appId="1-2f78" class="st0" points="537.2,462 537.4,477.2 546.6,477.2 546.6,475.1 548.4,475.1 548.4,467.1 542.2,467.1 542.2,462 "/>
  <polygon appId="1-2f68a" class="st0" points="633.4,520.1 633.4,524.6 639.2,524.6 639.2,520.1 "/>
  <polygon class="st0" appId="1-2f93" points="507.9,459.5 507.1,459.5 507.2,437.5 499.4,437.5 499.4,455 500.4,455.8 500.4,466.1 500.4,472.2
	506.4,472.2 506.4,461.6 507.1,461.6 507.1,461.1 507.9,461.1 "/>
  <polygon appId="1-2f03d" class="st0" points="588.6,497.1 588.6,493.3 582.3,493.3 582.3,497.1 "/>
  <polygon appId="1-2f02b" class="st0" points="536.2,502.9 536.2,497.1 530.2,497.1 530.2,502.9 "/>
  <polygon class="st0" appId="1-2a62b" points="410.3,529.2 415.8,533.4 419.1,529.2 423.1,524.1 422.7,523.8 423.7,522.4 424.1,522.8 434.1,510
	428.7,505.7 423.3,512.6 420.7,515.9 412.7,526.2 "/>
  <polygon appId="1-4b44l" class="st0" points="469.8,509 465.1,505.3 463.4,507.6 439.9,489.2 437.8,492 435.7,494.9 465.1,517.9 468.8,512.8
	467.4,511.7 "/>
  <polygon class="st0" appId="1-4b25a" points="476.3,468.1 476.8,468.5 475.3,470.5 478.3,472.9 481.1,469.3 477.6,466.6 476.8,467.5 "/>
  <polygon appId="1-4b03" class="st0" points="429.1,428.7 425.4,425.8 419.6,433.2 423.3,436.1 "/>
  <polygon class="st0" appId="1-2k06b" points="698.2,589 698.2,590.6 697.9,590.6 697.9,591.6 697.9,595.4 698.2,595.4 698.2,597 711.9,597
	711.9,589 "/>
  <polygon class="st0" appId="1-2a21" points="376,537.1 383.6,543 385.4,540.7 386.3,541.4 389.7,537.1 381.1,530.5 "/>
  <polygon appId="1-2j26" class="st0" points="361.8,383 365.4,393.5 379.8,388.5 377.3,381.2 375.3,381.9 374.2,378.8 "/>
  <polygon class="st0" appId="1-2f92a" points="646.7,477.6 601.3,477.6 601.3,483.5 629.1,483.5 635,483.5 646.7,483.5 "/>
  <polygon appId="1-2f78a" class="st0" points="542.6,466.8 548.4,466.8 548.4,462.2 542.6,462.2 "/>
  <polygon class="st0" appId="1-2f67" points="618.7,511.8 616.9,511.8 616.9,519.7 623,519.7 623,525 627.1,525 627.1,523.4 627.9,523.4
	627.9,509.6 618.7,509.6 "/>
  <polygon appId="1-2f66" class="st0" points="614.7,509.6 605.5,509.6 605.5,523.4 606.3,523.4 606.3,525 610.3,525 610.3,519.7 616.5,519.7
	616.5,511.8 614.7,511.8 "/>
  <polygon class="st0" appId="1-2f68" points="637.4,511.8 637.4,509.6 628.2,509.6 628.2,523.4 629,523.4 629,525 633,525 633,519.7 639.2,519.7
	639.2,511.8 "/>
  <polygon class="st0" appId="1-2f40" points="499.7,484.2 498.7,485.6 498.7,496.6 506.7,496.6 506.7,485.5 506.4,485.5 506.4,484.2 "/>
  <polygon class="st0" appId="1-2f08" points="615.2,503 615.2,493.1 606.4,493.1 606.4,503 606.8,503 610.4,503 "/>
  <polygon appId="1-2f03a" class="st0" points="599.8,488.9 589.2,488.9 589.2,497.9 599.8,497.9 "/>
  <polygon appId="1-2a45" class="st0" points="376.5,462.4 378.7,464.2 378.4,464.6 384.7,469.5 389.1,463.9 380.5,457.2 "/>
  <polygon appId="1-4b28" class="st0" points="450.7,485.2 446.8,482.2 443.9,479.9 443.6,479.7 442.2,481.6 441.7,481.2 440.4,482.9 440.9,483.3
	437.8,487.1 444.9,492.7 "/>
  <polygon class="st0" appId="1-2k06f" points="686.4,620.6 682.3,622 682.4,622.2 680.6,622.8 684.9,635.3 692.5,632.7 688.2,620.2 686.4,620.8 "/>
  <polygon appId="1-2k05" class="st0" points="697.5,614 696.5,616.2 696.7,616.3 696.5,616.7 701.1,629.8 711.9,626.1 711.9,614.5 700.5,614.5
	698,613.4 697.7,614.1 "/>
  <polygon class="st0" appId="1-2a35" points="358.9,527.5 368,534.6 370.7,531.1 369.6,530.2 370.3,529.2 362.4,523.1 "/>
  <polygon appId="1-2j25" class="st0" points="358.3,372.8 361.7,382.7 374.1,378.4 373,375.3 375,374.6 372.5,367.3 359.5,371.8 359.6,372.4 "/>
  <polygon appId="1-2j05b" class="st0" points="396.2,399.5 407.9,395.5 407.6,394.7 409.1,394.2 409,394.1 408.2,391.8 403.8,393.3 402.6,389.6
	398,391.2 398,391.4 393.9,392.8 "/>
  <polygon appId="1-2f79" class="st0" points="651.5,489.9 643.5,489.9 640.4,487.5 640.4,486.4 635.4,486.4 635.4,497 637.2,497 637.2,503
	649.9,503 649.9,501.4 651.5,501.4 "/>
  <polygon appId="1-2f71" class="st0" points="628.2,463.4 628.2,477.2 637.4,477.2 637.4,477 637.4,475.1 639.2,475.1 639.2,467.1 633,467.1
	633,462 628.9,462 628.9,463.4 "/>
  <polygon class="st0" appId="1-2f41" points="512.5,484.2 508.4,484.2 508.4,485.5 507.1,485.5 507.1,496.6 512.5,496.7 "/>
  <polygon appId="1-2f12" class="st0" points="544.6,497.1 551.3,497.1 551.3,492.1 544.6,492.1 "/>
  <polygon class="st0" appId="1-2f07" points="559.2,494.6 565.9,494.6 565.9,489.5 567.7,489.5 567.7,485.6 559.2,485.6 "/>
  <polygon appId="1-2a52" class="st0" points="378.1,489.3 359.9,475 349.5,488.3 367.7,502.6 "/>
  <polygon appId="1-4f01" class="st0" points="436,405.1 433.1,396.6 425.3,399.3 427.1,404.3 420.3,406.7 423.5,415.7 426.1,417.8 431.7,410.6
	432.4,411 433,410.3 433,410.4 434.2,408.9 434.1,408.8 434.7,408.1 434.1,407.6 "/>
  <polygon class="st0" appId="1-4b28a" points="434.1,484.2 437.6,486.9 440.4,483.4 437.3,481 435.8,483 435.3,482.6 "/>
  <polygon class="st0" appId="1-4b07" points="438.6,456.1 434.8,461.1 432.9,463.5 436.3,466 442,458.7 "/>
  <polygon appId="1-2k03"  class="st0" points="688.2,619.7 687.3,617.5 685.6,613.1 677.7,615.8 677.6,615.6 673.6,617 673.7,617.2 670.4,618.4
	670.4,619.6 669.9,619.6 662,622.3 659.7,623.1 658.3,619 657.4,619.3 657.3,619.2 637.9,625.4 645.4,649.1 668.3,641.2
	664.4,629.5 664.2,629.1 676.8,624.7 677,625.2 680.5,624 679.2,624.4 679,624 680.4,623.5 680,622.5 682.3,621.8 682.3,622
	686.4,620.6 686.3,620.4 "/>
  <polygon class="st0" appId="1-2a15" points="406.2,533.9 397.8,527.2 392.4,534.1 396.8,537.5 400.6,532.8 404.6,535.9 "/>
  <polygon class="st0" appId="1-2a01b" points="408.7,560 404.6,556.8 402.1,560.1 398.1,557 393.6,562.7 401.7,569 "/>
  <polygon appId="1-2j41c" class="st0" points="398.1,343 400.1,349 402.2,348.3 400.1,342.3 "/>
  <polygon appId="1-2j07" class="st0" points="416.4,395.3 417.8,399.3 424.2,397.1 422.8,393.1 "/>
  <polygon class="st0" appId="1-2f07b" points="561,503.4 567.7,503.4 567.7,501.6 561,501.6 "/>
  <polygon class="st0" appId="1-2f90a" points="601.3,509.3 601.3,503.4 572.3,503.4 568,503.4 567.7,503.4 561,503.4 555.7,503.4 555.7,509.3 "/>
  <polygon class="st0" appId="1-2f72a" points="614.1,462 614.1,467.8 618.6,467.8 618.6,462 "/>
  <polygon class="st0" appId="1-2f61a" points="548.7,524.6 554.6,524.6 554.6,520.1 548.7,520.1 "/>
  <polygon appId="1-2f13" class="st0" points="606.4,483.8 606.4,492.7 615.2,492.7 615.2,483.8 "/>
  <polygon class="st0" appId="1-2f01b" points="523.6,503.2 514.7,503.2 514.7,497.3 523.7,497.3 "/>
  <polygon appId="1-2a60" class="st0" points="375.5,509.4 373.5,507.9 368.1,503.8 341.1,538.3 346.5,542.4 349.4,538.8 369,513.7 373.8,517.4
	375.4,515.4 372.5,513.2 "/>
  <polygon appId="1-4f04" class="st0" points="473.8,435.5 472.6,434.6 471.8,435.8 470.5,434.7 471.3,433.6 467.1,430.3 454,420.1 444.6,432.2
	464.3,447.6 "/>
  <polygon appId="1-4b30" class="st0" points="408.4,464.2 414.8,469.1 415.6,468.1 416.6,468.9 421.3,462.9 417.5,459.9 417.7,459.6 417.8,459.4
	416.1,458 415.7,458.5 413.9,457.1 "/>
  <polygon class="st0" appId="1-st04" points="499.6,436.9 517.7,436.9 517.7,429.9 499.6,429.9 "/>
  <polygon class="st0" appId="1-2k06e" points="694.6,617.9 690.1,619.4 690.1,619.6 688.7,620.1 693,632.6 700.6,630 696.3,617.4 694.6,618 "/>
  <polygon class="st0" appId="1-2a36" points="363,541 367.8,534.9 358.7,527.8 353.5,534.4 362.7,541.4 362.7,541.3 "/>
  <polygon appId="1-2a02" class="st0" points="433.7,556.9 420.3,546.4 410.1,559.4 423.5,569.9 "/>
  <polygon appId="1-2a01c" class="st0" points="398.3,556.7 401.9,559.5 406.7,553.3 403.2,550.5 401.4,552.8 401.8,553.1 400.5,554.8 400.1,554.4 "/>
  <polygon class="st0" appId="1-2j41c" points="413.1,386.6 407.4,388.5 412.2,402.4 404.6,405 405.9,408.7 413.5,406.1 414.3,408.3 419.9,406.4 "/>
  <polygon appId="1-2f91d" class="st0" points="635,483.5 629.1,483.5 629.1,503.4 635,503.4 "/>
  <polygon appId="1-2f79a" class="st0" points="640.7,487.3 643.7,489.6 649.9,489.6 649.9,483.8 646.7,483.8 646.7,486.5 646.3,486.5 646.3,483.8
	640.7,483.8 "/>
  <polygon class="st0" appId="1-2f73" points="605.2,461.8 600.3,461.8 600.3,467.1 594.2,467.1 594.2,475.1 596,475.1 596,477.2 605.2,477.2 "/>
  <polygon appId="1-2f61" class="st0" points="550.6,509.6 550.6,511.8 548.7,511.8 548.7,519.7 554.9,519.7 554.9,525 559,525 559,523.4
	559.7,523.4 559.7,509.6 "/>
  <polygon class="st0" appId="1-2f15" points="517.8,447.9 507.4,447.9 507.4,459.1 508.2,459.1 508.2,461.6 517.8,461.6 "/>
  <polygon appId="1-2f03c" class="st0" points="600,488.7 600,483.5 589,483.5 589,488.7 "/>
  <polygon class="st0" appId="1-2a57" points="329,522.3 328.3,521.8 328.8,521.1 325.6,518.6 322.1,523 326.1,526 "/>
  <polygon class="st0" appId="1-4b31a" points="418,459.8 421.5,462.6 424.3,459.1 422.7,457.9 422.3,458.4 420.3,456.8 "/>
  <polygon class="st0" appId="1-4b12" points="462.8,474.9 457.1,482.2 460.8,485.2 464.5,480.5 463.9,480 464.9,478.7 465.5,479.2 466.5,477.9 "/>
  <polygon appId="1-4b10" class="st0" points="453.2,478.8 448.2,474.8 453.4,468.1 458.5,472 "/>
  <polygon class="st0" appId="1-2a14" points="410.9,527.9 402.5,521.3 398,527 405.9,533.2 407.3,531.4 407.8,531.8 "/>
  <polygon class="st0" appId="1-2a02a" points="412.3,539.4 412.2,539.5 411.8,539.2 408.1,543.9 416.4,550.4 420.2,545.6 "/>
  <polygon appId="1-2j42b" class="st0" points="370.1,359.3 368.1,353.3 366,354 368.1,360 "/>
  <polygon appId="1-2f95" class="st0" points="516.4,462.3 516.4,468.2 516.4,471.3 516.4,476.8 518,476.8 518,477 518,477.2 526.6,477.2
	526.6,476.8 527.9,476.8 527.9,467.7 527.9,462.3 "/>
  <polygon class="st0" appId="1-2f76a" points="565.3,466.8 569.2,466.8 571.1,466.8 571.1,462.2 565.3,462.2 "/>
  <polygon appId="1-2f74" class="st0" points="582.8,463.3 582.8,477.2 592,477.2 592,475.1 593.8,475.1 593.8,467.1 587.6,467.1 587.6,462
	583.5,462 583.5,463.3 "/>
  <polygon appId="1-2f62" class="st0" points="569.3,511.8 569.3,509.6 560.1,509.6 560.1,523.4 560.9,523.4 560.9,525 564.9,525 564.9,519.7
	571.1,519.7 571.1,511.8 "/>
  <polygon appId="1-2f15a" class="st0" points="615.6,503.4 627,503.4 627,500.9 615.6,500.9 "/>
  <polygon class="st0" appId="1-2f90b" points="525.3,509.3 525.3,503.2 536.2,503.2 536.2,503.4 537.8,503.4 537.8,509.3 "/>
  <polygon appId="1-2a60a" class="st0" points="391.7,484.6 386.4,480.5 368.1,503.8 373.5,507.9 375.5,509.4 378.5,505.6 381.3,507.9 382.9,505.9
	378,502.1 "/>
  <polygon class="st0" appId="1-4f05" points="464.6,447.8 468.6,451 470.8,448.2 466.8,445 "/>
  <polygon class="st0" appId="1-4b43" points="395.4,441.9 393.1,444.8 397.6,448.3 396.6,449.7 395.9,449.1 394.6,450.8 395.3,451.3 394,452.9
	396.9,455.1 397.7,454.1 398.7,454.9 403.8,448.5 "/>
  <polygon class="st0" appId="1-4b44c" points="446.9,455 443.3,459.7 448.3,463.6 447.3,465 452.3,468.9 453.4,467.6 461.8,474.2 465.5,469.5 "/>
  <polygon class="st0" appId="1-2k02" points="697.7,607.7 697.7,603.9 697.9,603.9 697.9,599.2 697.7,599.2 697.7,595.4 697.9,595.4 697.9,591.6
	697.9,590.6 697.7,590.6 697.7,587.8 697.9,587.8 697.9,583.1 697.7,583.1 697.7,580 693.3,580 693.3,580.5 686,580.5 686,580
	683.6,580 683.6,580.5 679.4,580.5 679.4,581.7 679,581.7 679,584.1 679.4,584.1 679.4,584.4 690.6,584.4 690.6,593 690.3,593
	690.4,597.5 690.6,597.5 690.6,607.2 690.3,607.2 690.3,609.5 690.6,609.5 690.6,611.4 685.6,613.1 687.3,617.5 688.2,619.7
	690,619.1 690.1,619.4 694.6,617.9 694.5,617.6 695.9,617.1 696.3,616.1 696.5,616.2 697.5,614 697.3,613.9 697.7,612.9
	697.7,612.4 698,612.4 698,607.7 "/>
  <polygon appId="1-2a18" class="st0" points="396,546.9 387.6,540.3 385.7,542.8 385.1,542.3 375.6,554.5 384.6,561.6 "/>
  <polygon appId="1-2a02b" class="st0" points="407.3,553.3 404.8,556.6 408.9,559.8 415.9,550.8 407.9,544.5 403.4,550.3 "/>
  <polygon appId="1-2j44" class="st0" points="408.1,391.4 406.9,388.1 402.9,389.5 404.1,392.8 "/>
  <polygon class="st0" appId="1-2f07a" points="567.7,483.5 561,483.5 561,485.3 567.7,485.3 "/>
  <polygon class="st0" appId="1-2f92" points="601.3,483.5 601.3,477.6 555.8,477.6 555.8,483.5 561,483.5 567.7,483.5 568,483.5 572.3,483.5 "/>
  <polygon appId="1-2f79c" class="st0" points="640.4,483.5 635,483.5 635,486 640.4,486 "/>
  <polygon appId="1-2f77c" class="st0" points="546.9,477.6 550.2,477.6 550.2,475.4 546.9,475.4 "/>
  <polygon appId="1-2f60" class="st0" points="546.6,511.8 546.6,509.6 537.4,509.6 537.4,523.4 538.1,523.4 538.1,525 542.2,525 542.2,519.7
	548.4,519.7 548.4,511.8 "/>
  <polygon class="st0" appId="1-2f15b" points="627,483.5 615.6,483.5 615.6,486 627,486 "/>
  <polygon class="st0" appId="1-2f04" points="588.6,483.8 583.7,483.8 583.7,485.6 582.3,485.6 582.3,493 588.6,493 "/>
  <polygon class="st0" appId="1-2a39" points="343.7,532.4 337.4,527.6 334,531.9 341,537.4 343.6,534 342.9,533.5 "/>
  <polygon appId="1-2k06g" class="st0" points="686.3,628.5 687.9,633 689.2,632.5 689.7,634 694.1,632.5 691.1,624 688,625 687.8,625.1 685.4,625.9
	685.6,626.4 "/>
  <polygon class="st0" appId="1-4b45" points="396.5,442.4 404,448.2 405.8,445.8 402.9,437.3 399.6,438.4 "/>
  <polygon class="st0" appId="1-4b30A" points="420.4,456.1 416.8,453.3 414.1,456.9 415.7,458.1 416,457.6 418,459.2 "/>
  <polygon class="st0" appId="1-4b44b" points="435,445.7 431.3,450.3 431.5,450.5 421.9,462.8 426.5,466.4 426.8,466.1 434.1,471.8 437.7,467.1
	436.3,466 432.9,463.5 434.8,461.1 438.6,456.1 442,458.7 443.3,459.7 446.9,455 "/>
  <path appId="1-2k10" class="st0" d="M672.5,580v-18.6h-24.6v-0.1h-4.3v0.1h-4.7v-0.1h-2.4v0.1H586l0,42.6h40.1v0.5h7.1V604h16.4l0-0.4l0.5,0l0-9.7
	h12.3v6.1h6.6v-0.7h0.7v-17.7h-0.7V580H672.5z M670.3,561.5v1.2h-1.2v-1.2H670.3z M650.2,561.5h1.2v1.2h-1.2V561.5z M634.8,561.5
	v1.2h-1.2v-1.2H634.8z M633.6,580.5h1.2v1.2h-1.2V580.5z M605.2,561.5h1.2v1.2h-1.2V561.5z M605.2,580.5h1.2v1.2h-1.2V580.5z
	 M586.3,600.6v-1.2h1.2v1.2H586.3z M606.4,600.6h-1.2v-1.2h1.2L606.4,600.6z M634.8,600.6h-1.2v-1.2h1.2v0.4V600.6z M651.3,581.6
	h-1.2v-1.2h1.2V581.6z"/>
  <polygon class="st0" appId="1-2k01a" points="654.2,600.6 654.2,605.2 650.6,605.2 650.6,600.6 "/>
  <polygon appId="1-2a30b" class="st0" points="418.9,508.6 423.2,512 426.6,507.8 422.2,504.3 "/>
  <polygon appId="1-2a03" class="st0" points="445.4,541.9 431.9,531.5 425.5,539.6 421.7,544.5 435.2,555 "/>
  <polygon appId="1-2j33" class="st0" points="376.8,422.2 390.2,417.6 385.3,403.3 371.9,407.9 372.1,408.6 370.7,409.1 375.2,422 376.6,421.5 "/>
  <polygon appId="1-2j01" class="st0" points="414.9,390.9 416.3,394.9 422.7,392.7 421.3,388.7 "/>
  <polygon class="st0" appId="1-2f90c" points="555.7,509.3 555.7,503.4 544.2,503.4 538.2,503.4 538.2,509.3 "/>
  <polygon class="st0" appId="1-2f69c" points="640.8,509.3 638,509.3 638,509.6 637.8,509.6 637.8,511.4 641,511.4 641,509.6 640.8,509.6 "/>
  <polygon class="st0" appId="1-2f62a" points="565.3,520.1 565.3,524.6 571.1,524.6 571.1,520.1 "/>
  <polygon class="st0" appId="1-2f18" points="558.9,483.8 551.7,483.8 551.7,495.9 551.7,503 558.9,503 558.9,491 "/>
  <polygon class="st0" appId="1-2a62" points="399.9,552.9 394.9,548.9 389.8,555.5 379.7,568.4 375.6,573.4 380.8,577.4 384.5,572.6 387.7,568.5
	388.7,567.2 389.2,567.5 392,563.9 393.6,561.8 397.5,556.9 399.8,553.9 399.4,553.6 "/>
  <polygon class="st0" appId="1-2a61" points="401.7,492.4 388,509.9 382.9,505.9 381.3,507.9 384.5,510.3 381.6,514 383.6,515.6 389.1,519.7
	402.9,502 405.5,498.7 407.1,496.7 "/>
  <polygon class="st0" appId="1-4f03" points="447.1,415.1 442.7,411.7 433.6,423.4 438,426.8 "/>
  <polygon class="st0" appId="1-4b29a" points="443.4,479.5 439.9,476.8 437.1,480.3 440.1,482.7 441.6,480.7 442.1,481.1 "/>
  <polygon appId="1-4b21" class="st0" points="451.5,446.2 444.5,440.7 441.5,444.5 441,444.2 439.6,445.9 440.1,446.3 438.7,448.1 441.8,450.6
	445.7,453.6 "/>
  <polygon class="st0" appId="1-4b08" points="442.1,459.2 447.8,463.7 442.6,470.5 438.9,467.6 437.1,466.2 436.8,465.9 "/>
  <polygon class="st0" appId="1-2a04b" points="430.6,523.5 428.1,526.8 432.2,530 439.2,521 431.2,514.7 426.7,520.4 "/>
  <polygon class="st0" appId="1-2a03a" points="416.4,533.3 412.7,538 413.2,538.3 412.5,539.1 420.4,545.3 424.7,539.8 "/>
  <polygon class="st0" appId="1-2j45" points="383.7,338.8 385.4,343.8 391,341.9 389.7,338 388.2,338.5 387.9,337.4 "/>
  <polygon class="st0" appId="1-2j02" points="394.2,377.3 396.3,383.7 403,381.4 402.6,380.1 404,379.6 402.3,374.5 "/>
  <polygon class="st0" appId="1-2f90" points="635,503.4 629.1,503.4 601.3,503.4 601.3,509.3 646.7,509.3 646.7,503.4 "/>
  <polygon appId="1-2f74a" class="st0" points="588,466.8 593.8,466.8 593.8,462.2 588,462.2 "/>
  <polygon class="st0" appId="1-2f26" points="537.9,492.4 537.9,485.6 536.1,485.6 536.1,484.2 529.7,484.2 529.7,492.4 "/>
  <polygon appId="1-2f19" class="st0" points="551.3,497.5 544.6,497.5 544.6,503 551.3,503 "/>
  <polygon appId="1-2f05" class="st0" points="567.7,501.2 567.7,495 559.2,495 559.2,501.2 "/>
  <polygon class="st0" appId="1-2a51b" points="336.9,504.5 339.8,506.7 340.6,505.6 341.6,506.3 344.6,502.4 340.8,499.5 "/>
  <polygon class="st0" appId="1-4f08" points="484.5,443.9 478.3,439.1 473.8,445 476.8,447.4 476.4,448 479.4,450.4 "/>
  <polygon class="st0" appId="1-4b40" points="392.8,424.5 385.5,433.8 396.2,442.1 399.3,438.1 402.8,436.9 399.8,428.3 394.4,424.1 393.5,425.1 "/>
  <polygon class="st0" appId="1-4b20a" points="434.9,445.2 438.4,447.9 439.6,446.3 439.1,446 440.7,443.9 437.7,441.6 "/>
  <polygon class="st0" appId="1-2k04" points="690.3,609.5 690.3,607.2 690.1,607.2 690.1,605.2 679.6,605.2 682.5,613.7 690.1,611.1 690.1,609.5 "/>
  <polygon class="st0" appId="1-2a08" points="382.1,578.1 388.8,583.4 392.2,579.1 384.6,573.1 382.4,575.9 383.3,576.5 "/>
  <polygon class="st0" appId="1-2a03b" points="432,530.2 427.9,527 425.4,530.2 421.4,527.1 416.9,532.9 425,539.2 "/>
  <polygon class="st0" appId="1-2j46" points="381.9,375.4 386.9,373.6 383.2,362.5 378.1,364.2 "/>
  <polygon appId="1-2j10" class="st0" points="394.6,352.2 391.1,342.2 385.6,344.1 389,354.1 "/>
  <polygon class="st0" appId="1-2f91a" points="538.3,483.5 538.3,497 536.5,497 536.5,501.3 538.2,501.3 538.2,503.4 544.2,503.4 544.2,483.5 "/>
  <polygon appId="1-2f76" class="st0" points="560.8,463.3 560.1,463.3 560.1,477.2 569.3,477.2 569.3,475.1 570.7,475.1 571.1,467.1 564.9,467.1
	564.9,462 560.8,462 "/>
  <polygon appId="1-2f63" class="st0" points="573.3,509.6 573.3,511.8 571.5,511.8 571.5,519.7 577.6,519.7 577.6,525 581.7,525 581.7,523.4
	582.5,523.4 582.5,509.6 "/>
  <polygon appId="1-2f21" class="st0" points="544.6,483.8 544.6,487.6 551.3,487.6 551.3,483.8 "/>
  <polygon appId="1-2f20" class="st0" points="483,492.5 487.5,496 487.5,496.6 498.3,496.6 498.3,485.4 499.7,483.6 495,479.9 494,481.1
	492.7,480.1 "/>
  <polygon appId="1-2a38" class="st0" points="349.4,538.8 346.5,542.4 356.5,550.3 359.3,546.6 "/>
  <polygon appId="1-st03" class="st0" points="307.3,520.5 313.1,525 323.4,512.3 320.6,510 320,510.7 319.6,510.5 320.2,509.7 317.6,507.7
	317,508.4 316.8,508.3 "/>
  <polygon class="st0" appId="1-4b22a" points="453.3,459.6 456.8,462.3 458,460.7 457.5,460.3 459.1,458.3 456.1,456 455.9,456.2 454,458.7 "/>
  <polygon appId="1-4b20" class="st0" points="439.8,437.1 433.4,432 427.6,439.5 434.6,445 437.6,441.1 438.1,441.5 439.4,439.8 438.9,439.4
	439.6,438.5 439,438.1 "/>
  <polygon class="st0" appId="1-2k7c" points="680.5,624 677,625.2 664.4,629.5 668.3,641.2 684.5,635.5 "/>
  <polygon appId="1-2a12" class="st0" points="420.2,516 414.8,511.7 411.3,516.2 416.7,520.5 "/>
  <polygon class="st0" appId="1-2a03c" points="421.6,526.9 425.2,529.7 430,523.5 426.5,520.7 424.7,523 425.1,523.3 423.8,525 423.4,524.6 "/>
  <polygon appId="1-2j41a" class="st0" points="396.9,357.8 400.7,368.9 402.3,373.6 407.4,388.5 413.1,386.6 410,377.7 412.6,376.8 406.9,360.8
	402.6,348.5 400.2,349.3 395.2,334.8 389.6,336.7 395,352.4 "/>
  <path class="st0" d="M392.2,357.5"/>
  <path class="st0" d="M377.6,359.1"/>
  <polygon class="st0" appId="1-2j42" points="376.2,358.9 370.8,343.2 365.2,345.1 380.4,389.2 386,387.3 383.5,380.1 381.9,375.4 378.1,364.2 "/>
  <polygon appId="1-2j11" class="st0" points="417.9,399.6 420.2,406.3 426.6,404.1 424.3,397.4 "/>
  <polygon appId="1-2f91b" class="st0" points="568,503.4 572.3,503.4 572.3,483.5 568,483.5 "/>
  <polygon class="st0" appId="1-2f70a" points="639.6,462.2 639.6,466.8 645.4,466.8 645.4,462.2 "/>
  <polygon class="st0" appId="1-2f63a" points="571.5,520.1 571.5,524.6 577.3,524.6 577.3,520.1 "/>
  <polygon class="st0" appId="1-2f25" points="521.3,492.4 529.4,492.4 529.4,484.2 521.3,484.2 "/>
  <polygon appId="1-2f22" class="st0" points="544.6,488 544.6,491.7 551.3,491.7 551.3,488 "/>
  <polygon appId="1-2a41" class="st0" points="325.8,518.3 329.7,521.3 333,517.1 329.1,514.1 "/>
  <polygon class="st0" appId="1-4f02b" points="456.5,449.6 460.2,444.9 457.1,442.4 450.2,437 448.1,435.4 438.8,428.1 438.5,427.9 434.7,432.6 "/>
  <polygon class="st0" appId="1-4b24a" points="471.8,474 475.3,476.7 476.5,475.1 476,474.7 477.6,472.8 474.6,470.4 "/>
  <polygon class="st0" appId="1-4B44d" points="452.5,486.2 456.1,481.5 437.7,467.1 434.1,471.8 "/>
  <polygon class="st0" appId="1-2k06a" points="697.9,583.1 697.9,587.8 698.2,587.8 698.2,588.5 711.9,588.5 711.9,580.5 698.2,580.5 698.2,583.1 "/>
  <polygon class="st0" appId="1-2a17" points="400.7,541 395.4,536.8 392.2,534.4 387.8,540.1 396.2,546.7 "/>
  <polygon appId="1-2a16" class="st0" points="404.4,536.2 400.6,533.2 397.1,537.7 400.9,540.7 "/>
  <polygon appId="1-2a04" class="st0" points="457.1,526.9 443.7,516.5 433.4,529.6 446.8,540.1 "/>
  <polygon appId="1-2j43" class="st0" points="402.3,373.6 400.7,368.9 396.3,370.4 386.9,373.6 381.9,375.4 383.5,380.1 386.9,378.9 387.1,379.4
	393.1,377.3 399.2,375.2 399,374.8 "/>
  <polygon appId="1-2j17a" class="st0" points="388.8,394.3 391,400.6 395.7,399 393.5,392.7 "/>
  <polygon appId="1-2j13" class="st0" points="396.9,357.8 392.5,359.3 396.3,370.4 400.7,368.9 "/>
  <polygon  appId="1-2f75" class="st0" points="577.6,462 577.6,467.1 571.5,467.1 571.5,475.1 573.3,475.1 573.3,477.2 582.5,477.2 582.5,463.3
	581.8,463.3 581.8,462 "/>
  <polygon appId="1-2f26a" class="st0" points="537.9,492.7 529.7,492.7 529.7,496.7 537.9,496.7 "/>
  <polygon class="st0" appId="1-2f23" points="588.6,497.5 582.3,497.5 582.3,501.1 583.7,501.1 583.7,503 588.6,503 "/>
  <polygon class="st0" appId="1-2a62c" points="387.7,568.5 384.5,572.6 392.4,578.8 397.1,582.5 397.4,582.2 397.5,582.3 400.6,578.5 "/>
  <polygon class="st0" appId="1-2a24d" points="361.9,554.5 356.5,550.3 346.5,542.4 341.1,538.3 325.9,526.2 323.2,529.6 323.6,529.9 322.3,531.6
	325.8,534.4 342.5,547.4 352.7,555.4 364.9,564.9 365.9,565.7 367.2,564 367.7,564.4 370.3,561 "/>
  <polygon class="st0" appId="1-4f09" points="489.2,447.6 484.8,444.1 479.7,450.6 482.8,453 483.3,452.4 486.3,454.8 490.1,450.1 488.4,448.7 "/>
  <polygon class="st0" appId="1-4b27a" points="461.8,493.9 458.3,491.2 455.5,494.8 458.5,497.1 460.1,495.1 460.6,495.5 "/>
  <polygon appId="1-4b11" class="st0" points="462.3,475 457,481.7 453.5,479 458.8,472.2 "/>
  <polygon class="st0" appId="1-4b05" points="417.1,439.7 413.6,436.9 411,440.3 414.5,443 "/>
  <polygon appId="1-2a20" class="st0" points="377.3,551.1 372.7,547.5 371.8,548.6 371.6,548.4 372.5,547.3 369.7,545.1 362.4,554.4 370.9,561.1
	373.7,557.5 372.8,556.8 "/>
  <polygon appId="1-2a06" class="st0" points="400.6,578.5 397.5,582.3 397.7,582.4 395.1,585.8 398.2,588.2 396.8,590 403.1,594.9 404.5,593.1
	405.5,593.9 411.1,586.8 "/>
  <polygon appId="1-2a30a" class="st0" points="414.8,505.4 418.5,508.4 421.9,504.1 418.1,501.2 "/>
  <polygon appId="1-2j32" class="st0" points="390.2,417.6 390.4,418.3 389.2,418.7 391.5,424.7 396.9,417.8 396.4,417.4 388.4,394.1 382.8,396.1
	385.3,403.3 "/>
  <polygon appId="1-2j17b" class="st0" points="397.9,405.5 396.1,400.1 391.5,401.7 393.2,407.1 "/>
  <polygon appId="1-2j06" class="st0" points="415.1,411.7 414.5,410 413,410.5 412.6,409.2 414,408.7 413.3,406.5 395.2,412.8 395.9,415
	397.3,414.5 397.7,415.7 396.3,416.1 396.7,417.2 405.4,424 "/>
  <polygon appId="1-2f69b" class="st0" points="647,503.4 647,509.3 651.5,509.3 651.5,503.4 "/>
  <polygon class="st0" appId="1-2f64" points="592,511.8 592,509.6 582.8,509.6 582.8,523.4 583.6,523.4 583.6,525 587.6,525 587.6,519.7
	593.8,519.7 593.8,511.8 "/>
  <polygon class="st0" appId="1-2f25a" points="521.3,492.7 521.3,496.7 529.4,496.7 529.4,492.7 "/>
  <polygon class="st0" appId="1=2f01b" points="479.4,500 484.2,493.9 487.1,496.2 487.1,497 514.7,497 514.7,497.3 514.7,503.2 523.6,503.2
	525.3,503.2 525.3,509.3 523.2,509.3 514.2,509.3 506.5,509.3 506.4,501.4 481.2,501.4 "/>
  <polygon class="st0" appId="1-2a42a" points="339.2,493.1 341.5,494.8 342.8,495.9 362.7,470.6 358.7,467.5 356.6,470.2 357.6,471 356.8,472.1
	355.7,471.3 344.9,485.1 346,485.9 345.1,487 344.1,486.2 338.9,492.8 339.2,493.1 339.2,493.1 "/>
  <polygon class="st0" appId="1-me01" points="500.1,462.9 496.2,462.7 491.4,468.8 499.2,474.8 500.1,473.7 "/>
  <polygon appId="1-4b41" class="st0" points="393.5,422.9 400.2,428.1 403.2,436.8 403.3,437.2 405.7,444.2 411.3,442.3 410.7,440.7 410.4,439.7
	410,439.9 409.8,439.3 410.2,439.2 409,435.6 410.3,433.9 412,435.2 415.6,430.6 411,427 415.3,421.5 410.7,417.9 405.5,424.5
	397.2,418 "/>
  <polygon class="st0" appId="1-4B44F" points="426.5,466.4 421.9,462.8 417.7,468.1 422.3,471.8 "/>
  <polygon class="st0" appId="1-2k7a" points="679,601.1 679,603.5 679.4,603.5 679.4,604.7 690.1,604.7 690.1,597.5 690.4,597.5 690.3,593
	690.1,593 690.1,584.8 679.4,584.8 679.4,601.1 "/>
  <polygon class="st0" appId="1-2a62f" points="375.6,573.4 379.7,568.4 370.6,561.3 368,564.6 368.4,564.9 367,566.6 "/>
  <polygon appId="1-2a24" class="st0" points="392.4,516.2 400.8,522.9 406,516.1 397.5,509.5 "/>
  <polygon class="st0" appId="1-2a30" points="431.6,492.2 426.5,498.7 423.4,496.2 421.4,498.8 420.5,498.1 418.3,500.9 426.8,507.5 436.1,495.7 "/>
  <polygon class="st0" appId="1-2a30a" points="431.4,492 427.6,489 426,491.1 429.8,494 "/>
  <polygon class="st0" appId="1-2a30c" points="422.7,495.3 426.5,498.2 427.9,496.4 424.1,493.4 "/>
  <polygon class="st0" appId="1-2a30b" points="429.6,494.3 425.8,491.3 424.3,493.2 428.1,496.1 "/>
  <polygon appId="1-2j41a" class="st0" points="412.8,386 414.5,390.7 417,389.8 415.4,385.1 "/>
  <polygon appId="1-2j20" class="st0" points="429.3,385.6 425.2,373.8 423.8,374.3 423.6,373.8 410.6,378.3 413.1,385.5 415.6,384.6 417.4,389.7 "/>
  <polygon class="st0" appId="1-2j19" points="405.6,408.8 401.8,397.9 396.3,399.8 398.4,405.7 393.3,407.4 395.1,412.4 "/>
  <polygon class="st0" appId="1-2f70c" points="637.9,477.3 637.9,477.6 640.9,477.6 640.9,477.3 641,477.3 641,475.4 637.8,475.4 637.8,477.3 "/>
  <polygon appId="1-2f65" class="st0" points="596,509.6 596,511.8 594.2,511.8 594.2,511.8 594.2,519.7 600.3,519.7 600.3,525 604.4,525
	604.4,523.4 605.2,523.4 605.2,509.6 "/>
  <polygon class="st0" appId="1-2f64a" points="588,520.1 588,524.6 593.8,524.6 593.8,520.1 "/>
  <polygon appId="1-2a91d" class="st0" points="493.6,478.4 488.9,474.9 476.8,490.4 473.6,494.5 465.4,505.1 470,508.7 477.8,498.7 479.1,499.8
	482.8,495.1 481.4,494 "/>
  <polygon class="st0" appId="1-2a24c" points="342.6,496.2 341.3,495.1 341.5,494.8 339.2,493.1 339.1,493.4 339.1,493.3 339,493.4 338.7,493.1
	333.3,500 334.3,500.8 333.5,501.9 332.4,501.1 313.8,525.1 317.2,527.8 320.2,530.1 321.1,530.8 322.5,529 323,529.4 325.6,526.1
	321.7,523 "/>
  <polygon appId="1-4b47" class="st0" points="380.2,442.1 383.1,444.4 385.3,446.1 388.9,441.5 393.1,444.8 395.4,441.9 385.3,434.1 380.2,440.6
	380.9,441.2 "/>
  <polygon class="st0" appId="1-4b44" points="420.5,474.1 422.1,472.1 421.8,471.9 417.4,468.4 415.9,470.4 402.4,459.9 398,465.5 435.7,494.9
	437.8,492 439.9,489.2 "/>
  <polygon appId="1-4b13" class="st0" points="469.4,480.1 466.5,477.9 465.5,479.2 466.2,479.7 465.2,481 464.5,480.5 460.8,485.2 464.2,487.8
	469.9,480.6 "/>
  <polygon appArea="3" *ngIf="isAreasRoute" fill="#1F00FF" xmlns="http://www.w3.org/2000/svg" id="Zone_x5F_C" class="" points="390.1,417.7 376.7,422.3 376.5,421.6 375.1,422.1 370.6,409 372,408.5 371.8,407.8   385.2,403.2 382.7,396.3 368.4,401.2 365.8,393.5 365.3,393.6 358.2,372.7 359.5,372.3 359.1,371.1 357.7,371.6 350.8,351.2   352.1,350.8 351.7,349.7 408.9,330.1 409.2,331.1 410.5,330.6 429.4,385.7 421.3,388.5 425.1,399.3 433.2,396.5 436.1,405.1   434.2,407.6 434.8,408.1 432.4,411.1 431.7,410.7 426.1,417.9 423.4,415.8 420.1,406.4 414.1,408.5 415.2,411.7 405.4,424.1   397.1,417.7 391.5,424.9 389.1,418.6 390.3,418.2 "/>
  <polygon appArea="1" *ngIf="isAreasRoute" fill="#00FFA3" xmlns="http://www.w3.org/2000/svg" id="Zone_x5F_A" class="st1" points="499.5,429.8 499.5,437.4 499.3,437.4 499.3,455 500.3,455.8 500.1,510.1 503.2,510.1   503.2,510.2 506.6,510.2 506.6,509.4 514.1,509.4 514.1,525.2 554.8,525.1 559.1,525.1 649.9,525.1 649.9,523.4 650.9,523.4   650.9,509.4 651.6,509.4 651.6,489.8 650,489.8 650,483.6 650.9,483.6 650.9,463.3 650,463.3 650,461.9 645.7,461.9 645.7,462.1   633.1,462.1 633.1,461.9 614,461.9 614,462.3 605.3,462.3 605.3,461.7 537.1,461.9 537.3,477.5 528,477.5 528,462.2 517.9,462.2   517.9,447.8 507.3,447.8 507.3,437 517.8,437 517.8,429.8 "/>
  <polygon appArea="5" *ngIf="isAreasRoute" fill="#FF7F00" xmlns="http://www.w3.org/2000/svg" id="Zone_x5F_E" class="st2" points="585.9,561.3 636.4,561.3 636.4,561.2 639,561.2 639,561.3 643.5,561.3 643.5,561.2   648,561.2 648,561.3 672.6,561.3 672.6,580.4 683.5,580.4 683.5,579.9 686.1,579.9 686.1,580.4 693.2,580.4 693.2,579.9   697.8,579.9 697.8,580.4 712,580.4 712,626.2 694.1,632.3 694.2,632.6 689.6,634.1 689.5,633.8 645.3,649.2 634,613.5 650.1,608.4   650.1,607.7 650.5,605.8 654.3,605.8 654.3,605.3 650.5,605.3 650.5,604.1 633.3,604.1 633.3,604.6 626,604.6 626,604.1   585.9,604.1 "/>
  <polygon appArea="2" *ngIf="isAreasRoute" fill="#FF0000" xmlns="http://www.w3.org/2000/svg" id="Zone_x5F_B" class="st3" points="380.1,442.1 385.4,446.2 388.9,441.6 397.5,448.3 396.6,449.6 395.9,449 394.5,450.8   395.2,451.3 393.9,452.9 414.8,469.2 415.6,468.2 416.6,469 417.4,468 422.4,472 420.9,474 432.7,483.2 433.5,482.2 434.8,483.1   434,484.2 450.6,497.2 451.4,496.2 453.1,497.6 452.4,498.6 463.3,507.2 465.1,505 470,508.8 470.6,508.1 472,509.1 471.1,510.1   500,510.1 500.2,456.6 497.9,456.6 497.9,454.8 498.1,454.5 491.2,449 490.3,450.1 488.5,448.7 489.3,447.6 472.6,434.5   471.8,435.7 470.6,434.7 471.4,433.6 454,420 453.7,420.3 447.1,415.2 447.2,415.1 442.7,411.6 433.3,423.7 423.2,415.8   420.1,406.7 414.3,408.6 415.4,411.7 405.5,424.4 397.2,417.9 393.4,422.9 394.5,423.8 393.5,425 392.8,424.4 380.1,440.6   380.8,441.2 "/>
  <polygon appArea="4" *ngIf="isAreasRoute" fill="#AE00FF" xmlns="http://www.w3.org/2000/svg" id="Zone_x5F_D" class="st4" points="379.2,441.5 380.1,442.2 380.1,442.1 383.1,444.5 383,444.7 387,447.8 387.5,447.1   389.3,448.5 388.8,449.2 389.6,449.8 389.6,449.8 415.9,470.3 417.4,468.3 422.2,472.1 420.6,474.1 463.4,507.5 465.1,505.2   469.9,509 467.5,511.7 468.9,513 465.1,518 465,518 459,526 458.3,525.5 446.8,540.2 435.2,555.1 423.5,570 411.9,584.9   410.8,586.4 411.2,586.8 405.5,594 404.5,593.2 403.1,595 396.7,590 398.1,588.2 394.8,585.7 393.4,587.4 388.8,583.8 388.9,583.6   382,578.1 383.2,576.5 382.1,575.8 380.8,577.5 366.9,566.6 368.3,564.9 367.2,564.1 365.9,565.8 322.2,531.6 323.5,529.9   322.5,529.1 321.1,530.9 313.3,524.9 313.1,525.1 307.2,520.5 316.8,508.2 317,508.3 317.6,507.6 323.6,512.3 332.4,501   333.5,501.8 334.2,500.8 333.2,500 344.1,486.1 345.1,486.9 345.9,485.9 344.8,485.1 355.7,471.2 356.8,472 357.5,471 356.5,470.2   367.4,456.3 368.4,457.1 369.2,456.1 368.3,455.4 "/>
  <rect appId="1-2j40" x="376.6" y="355.5" transform="matrix(0.9455 -0.3256 0.3256 0.9455 -95.6092 145.4003)" class="st0" width="19.9" height="5.7"/>
  <text class="text a" id="one" x="570.85" y="500.6" font-weight="bold" font-size="22.99px">A</text>
  <text class="text d" x="380" y="530"  font-weight="bold" font-size="22.99px">D</text>
  <text class="text b" x="435" y="460"  font-weight="bold" font-size="22.99px">B</text>
  <text class="text c" x="385" y="385"  font-weight="bold" font-size="22.99px">C</text>
  <text class="text e" x="620" y="590"  font-weight="bold" font-size="22.99px">E</text>
</svg>
