<svg viewBox="300 300 500 400" width="100%" preserveAspectRatio="xMidYMid meet" xml:space="preserve">
<style type="text/css">
	.st0{fill:#418369;stroke:#71e5b5;stroke-width:0.5;}
</style>
  <desc>Bah_Collisions_all_v7.blend, (Blender 2.83.0)</desc>
  <polygon class="st0" appId="g-1b43" points="390.9,493.1 376.4,511.7 381.1,515.3 395.6,496.8 "/>
  <polygon class="st0" appId="g-3a11" points="674,542.9 674,525.3 680.7,525.3 680.7,542.9 "/>
  <polygon class="st0" appId="g-1b33a" points="420.8,516.4 424.4,511.8 413.4,503.1 409.7,507.8 415.2,512 413.8,513.8 419.1,518 420.5,516.2 "/>
  <polygon class="st0" appId="g-4c02" points="445.9,502.7 439,511.4 449.8,519.8 450.4,518.9 451.6,519.8 451,520.6 453.9,522.9 460.7,514.2 "/>
  <polygon class="st0" appId="G-1F24" points="375.7,390.1 365.4,393.6 363.3,387.5 373.6,384 "/>
  <polygon appId="g-3c45a" class="st0" points="622,647.8 623.2,651.2 626,650.3 624.8,646.8 "/>
  <polygon class="st0" appId="G-1F23" points="373.5,383.6 363.2,387.2 361.1,381.1 371.4,377.5 "/>
  <polygon appId="g-3c43" class="st0" points="607.4,652.8 610.4,661.4 617.4,659 614.5,650.4 "/>
  <polygon class="st0" appId="G-1F08C" points="369.1,355.5 365.4,345.1 357.8,347.7 361.5,358.1 "/>
  <polygon class="st0" appId="g-el04" points="517.2,437.5 517.2,447.4 508.2,447.4 508.2,437.5 "/>
  <polygon class="st0" appId="g-4j03b" points="536.5,461.6 536.5,454.5 511.8,454.5 511.8,454.8 511.8,455.5 511.8,455.6 511.8,460.6 511.8,461.6 "/>
  <polygon class="st0" appId="g-1b01g" points="441.6,499.4 427.3,488.3 420.9,496.3 421.6,496.8 420.8,497.9 429.8,504.9 434.5,508.5 "/>
  <polygon class="st0" appId="G-4G40A" points="413.3,408.8 411.4,403.2 407.9,404.4 405,408 402.2,411.7 406.8,415.4 411.5,409.4 "/>
  <polygon class="st0" appId="g-1b01" points="411.5,481.5 409.1,484.6 414,488.3 416.4,485.2 "/>
  <polygon class="st0" appId="G-1A14" points="324.9,520.6 320.3,517.1 311.6,528.2 312.8,529.1 314.3,527.3 320.6,532.3 320.8,532 320.3,531.6
	322.5,528.9 323,529.3 327.9,523 325.2,520.8 324.3,522 324,521.7 "/>
  <polygon class="st0" appId="G-4d25" points="704.6,475.4 710.1,475.4 710.1,475 710.6,475 710.6,463 710.1,463 710.1,462.6 700.9,462.6 700.9,463
	699.9,463 699.9,462.7 698.5,462.7 698.5,475.4 699.9,475.4 699.9,475 700.9,475 700.9,475.4 704.5,475.4 704.5,465.4 704.6,465.4
	"/>
  <polygon class="st0" appId="g-1e02" points="582,516.9 582,523.5 583.6,523.5 583.6,525 583.7,525 586.5,525 586.6,525 589.5,525 589.6,525
	592.4,525 592.5,525 595.9,525 595.9,516.9 "/>
  <polygon class="st0" appId="g-3c13a" points="541.1,653.3 542.1,656.1 545.5,654.9 544.5,652.1 "/>
  <polygon class="st0" appId="g-1c37g" points="560.9,505.1 560.9,510.3 565.9,510.3 565.9,505.1 "/>
  <polygon appId="g-3c01c" class="st0" points="631.7,595.5 632.4,593.8 632.4,592.1 625,592.1 625,596.7 631.2,596.7 "/>
  <polygon class="st0" appId="g-1c18" points="490.2,476.3 486.1,473.1 482,478.3 486.1,481.5 "/>
  <polygon appId="g-3b02" class="st0" points="658.1,625 656.3,625.6 657.9,630.4 665.7,627.7 664.1,622.9 658.4,624.9 658.9,626.2 658.5,626.3 "/>
  <polygon class="st0" appId="g-1b59" points="399.3,563.6 396.1,567.7 399.8,570.5 403,566.4 "/>
  <polygon class="st0" appId="g-3a44" points="453.1,487.9 448.5,493.8 452.7,497.1 451.7,498.3 458.5,503.6 461.4,499.8 461.3,499.7 461.4,499.7
	461.5,499.7 464.1,496.4 461.3,494.2 458.7,497.5 459.7,498.3 459.6,498.4 458.2,497.3 458.3,497.2 458.6,497.5 460.9,494.6
	460.7,494.4 461,493.9 459.6,492.8 456.9,496.2 457,496.2 456.9,496.3 456.5,496 456.5,495.9 456.8,496.1 459.1,493.2 458.9,493
	459.3,492.6 457.8,491.4 455.2,494.8 455.2,494.8 455.2,494.9 454.7,494.6 454.8,494.5 455.1,494.7 457.3,491.8 457.1,491.6
	457.5,491.2 456,490 453.4,493.4 453.5,493.5 453.4,493.6 453,493.3 455.7,489.9 "/>
  <polygon class="st0" appId="g-1b44" points="409.7,507.8 413.4,503.1 405,496.6 406.4,494.8 400.9,490.5 399.5,492.3 399.2,492.1 395.6,496.8 "/>
  <polygon class="st0" appId="g-1g12" points="537.1,424.7 537.1,441.6 548.5,441.6 548.5,424.7 "/>
  <polygon class="st0" appId="g-1b21" points="377.5,520 372.8,516.4 359.9,532.8 364.6,536.4 "/>
  <polygon class="st0" appId="g-4c05" points="432,512.3 435.7,515.2 445.1,503.1 441.4,500.1 435.5,507.8 436.4,508.5 435.5,509.7 434.6,508.9 "/>
  <polygon class="st0" appId="G-1F26" points="386.3,380.8 383.7,373.3 377.7,375.4 380.3,382.9 "/>
  <polygon appId="g-3c49a" class="st0" points="635.5,625.4 637.4,630.9 642.2,629.2 640.3,623.7 "/>
  <polygon class="st0" appId="g-1f09" points="378.1,358 380.1,363.8 381.8,368.6 385.2,367.4 384.9,366.5 385.2,366.4 385.6,367.6 387.9,366.9
	386.6,363.2 386.1,361.8 386.4,361.6 386.9,363.1 393.6,360.8 393.1,359.3 391,353.5 "/>
  <polygon class="st0" appId="g-3c41a" points="587.6,663.5 590.4,662.5 589.2,659.1 586.4,660 "/>
  <polygon appId="g-1e11" class="st0" points="617.7,487.8 612.6,487.8 612.6,491.8 617.7,491.8 617.7,490.1 618.1,490.1 618.1,491.8 622.7,491.8
	622.7,488 618.1,488 618.1,488.2 617.7,488.2 "/>
  <polygon class="st0" appId="g-st06" points="506.5,509.6 479.4,509.6 474.9,515.6 485,522.4 488.4,517.9 483.2,514.4 506.5,514.4 "/>
  <polygon class="st0" appId="g-el08" points="536,470.7 529.7,470.7 529.2,470.7 529.2,475.6 536,475.6 "/>
  <polygon class="st0" appId="g-1b02" points="394.6,488.5 399.2,492.1 402.6,487.8 397.9,484.2 "/>
  <polygon class="st0" appId="G-4J02b" points="639.8,450.8 639.8,454.4 636.1,454.4 636.1,461.3 645.7,461.3 645.7,450.8 "/>
  <polygon class="st0" appId="G-4G19" points="420.2,448.5 416.6,453.1 420.3,456 423.8,451.4 "/>
  <polygon class="st0" appId="g-1b01b" points="391.1,473 397.4,465.2 387.4,457.5 380.4,466.3 389.7,473.6 390.5,472.5 "/>
  <path class="st0" appId="G-4d24" d="M690.8,462.7h-4.6h-1.8v0.4h-0.9v-0.5h-5.1l0,24.8l5.1,0v-0.3h0.9l0,0.3H698v-24.7H690.8z M684.3,475.9h-0.9
	V475h0.9V475.9z"/>
  <polygon appId="g-3c10a" class="st0" points="560.3,642.4 561.5,645.9 564.3,644.9 563.1,641.4 "/>
  <polygon appId="g-1c37h" class="st0" points="558.9,503.3 558.9,501.6 556.2,501.6 556.2,510.3 560.6,510.3 560.6,503.3 "/>
  <polygon class="st0" appId="g-3b32" points="446.3,482.1 448,483.4 454.3,488.4 457.8,483.9 449.4,477.3 445.9,481.8 "/>
  <polygon class="st0" appId="g-1c25" points="479.5,467.9 477,465.9 476.1,467.1 473.2,464.8 470,468.9 475.4,473.1 "/>
  <polygon appId="g-3b07" class="st0" points="671.5,622.7 670.5,619.6 668.9,619.6 668.9,618.7 663.6,620.5 666.1,627.6 672.4,625.4 671.6,622.9 "/>
  <polygon class="st0" appId="g-1c02a" points="563.4,510.6 556.1,510.6 552.2,510.6 550.6,509 550.6,505.2 549.4,505.2 545.8,505.2 544.7,505.2
	544.7,514.3 547.4,516.5 555.8,516.5 563.4,516.5 "/>
  <polygon class="st0" appId="g-3a31" points="608.9,544.5 608.7,545.7 610.7,546.1 610.5,546.9 621.8,548.9 623.8,537.9 612.1,537.9 612,538.7
	609.9,538.7 609.7,540 608.7,540 608,544.3 "/>
  <polygon class="st0" appId="g-1b47" points="418.2,496.3 410.5,490.2 405.5,496.6 413.2,502.6 "/>
  <polygon class="st0" appId="g-3a19" points="670.5,525.3 670.5,526.1 668.8,526.1 668.8,525.4 658.2,525.4 658.2,526.2 656.3,526.2 656.3,525.4
	651.7,525.4 651.7,526.2 649.8,526.2 649.8,525.4 634.5,525.4 634.5,537.2 658.2,537.3 673.3,537.3 673.3,525.3 "/>
  <polygon appId="g-1b46" class="st0" points="410.2,490 404.7,485.7 401.1,490.3 406.6,494.6 "/>
  <polygon class="st0" appId="g-4c07" points="451,520.6 450.4,521.3 449.3,520.4 449.8,519.8 439,511.4 436,515.4 450.8,527 453.9,522.9 "/>
  <polygon class="st0" appId="G-1F29" points="407,368.2 421.5,363.2 424.3,371.4 409.8,376.5 "/>
  <polygon appId="g-3c53b-1" class="st0" points="661.6,564.7 661.6,568.5 666.9,568.5 666.9,564.7 "/>
  <polygon class="st0" appId="G-1F08J" points="402.5,332.4 406.2,342.8 411.6,340.9 411.5,340.6 413.6,339.9 410.5,330.8 409,331.4 408.6,330.2 "/>
  <polygon appId="g-3c51" class="st0" points="643.6,644.9 646.5,653.3 663,647.6 660.1,639.2 "/>
  <polygon class="st0" appId="G-1F04" points="405.8,385.2 398.1,387.8 397.7,388 401.1,396.9 407.6,394.6 408.9,394.2 "/>
  <polygon class="st0" appId="g-3c04" points="618.3,626.3 625.4,623.8 622.5,615.3 614.5,618 614.8,619 615.7,618.7 "/>
  <polygon class="st0" appId="G-4J11" points="425,399.4 427.4,398.5 431,397.3 439.7,394.3 441.9,400.8 443.7,402.2 439.4,407.8 435.9,405.2
	434.1,407.6 430.8,411.8 426.1,417.8 423.3,415.6 420.2,406.8 422.5,406 420.4,400.1 424.7,398.6 "/>
  <polygon class="st0" appId="g-1b03b" points="376,493.9 381.9,486.5 376.2,482 370.4,489.5 "/>
  <polygon class="st0" appId="g-4j03a" points="573.5,454.5 573.5,461.6 577.9,461.6 577.9,463.3 581.4,463.3 581.4,461.6 605.4,461.6 605.4,455.6
	605.4,454.8 605.4,454.5 "/>
  <polygon class="st0" appId="g-1a38" points="358.4,492.5 362.6,487.2 363.9,485.5 364.2,485.1 369.9,489.6 364.1,496.9 "/>
  <polygon class="st0" appId="g-4g13b" points="415.9,462.9 413.2,466.2 416.9,469.1 415.9,470.3 423.5,476.2 424,475.6 426.4,477.4 425.9,478.1
	428.4,480 429.3,478.8 434.5,482.9 437.9,478.5 432.3,473.8 431.3,475 "/>
  <polygon class="st0" appId="g-4g05" points="460.5,461.5 462.6,463.1 462.9,462.8 463.2,463 463.1,463.1 465.2,464.7 469.1,459.8 467,458.1
	464.4,461.5 464.1,461.3 465.3,459.7 465.2,459.5 465.4,459.3 465.6,459.4 466.7,457.9 463.3,455.2 462.1,456.7 463.9,458.1
	463.7,458.4 463.2,458 463,458.3 461.7,457.3 459.5,460.1 460.8,461.2 "/>
  <polygon appId="g-3c21c" class="st0" points="609.1,634.1 611.1,640.1 618.3,637.6 616.2,631.6 "/>
  <polygon class="st0" appId="g-1c39" points="544.3,492.9 544.3,494.5 550.6,494.5 550.6,494.3 553.3,494.3 553.3,489.3 544.5,489.3 544.5,492.9 "/>
  <polygon appId="g-3c02a" class="st0" points="600.6,596.7 600.6,591.3 600.1,591.3 598,591.3 592.1,591.3 592.1,596.7 597.9,596.7 597.9,595.3
	598.2,595.3 598.2,596.7 "/>
  <polygon class="st0" appId="g-1c14" points="444.8,433.8 442.2,437.2 441.6,437.8 452.8,446.6 455,448.3 459.3,451.7 457.9,453.5 458.2,453.7
	461.6,456.3 461.9,456.5 463.2,454.7 466.5,457.3 470.2,452.7 462,446.2 445.3,433.2 "/>
  <polygon appId="g-3b14" class="st0" points="702.8,618.4 702.8,620 700.3,620.8 700.1,620.9 697.4,621.8 697.5,622.3 698.4,624.3 700.5,630.3
	710.4,627 710.4,624.8 711.9,624.8 711.9,619.8 710.4,619.8 710.4,618.4 "/>
  <polygon class="st0" appId="g-1b61" points="391,564.1 388.6,567.1 390,568.1 388.6,569.9 402.2,580.5 403.6,578.8 412.1,585.4 414.5,582.5 "/>
  <polygon class="st0" appId="g-3a32" points="626.6,550.5 610.6,547.7 610.2,549.7 611.1,549.9 609.6,558.5 608.7,558.5 608.3,560.6 624.8,560.6 "/>
  <polygon class="st0" appId="g-1b48" points="418.5,496.5 413.5,502.8 424.3,511.3 429.3,504.9 "/>
  <polygon class="st0" appId="g-3a12b" points="414.7,478.6 418.9,473.1 399.1,457.7 394.8,463.2 "/>
  <polygon class="st0" appId="g-1b27" points="367.6,533.2 373.1,537.6 376.1,533.8 371.6,530.2 370.8,531.2 369.7,530.4 "/>
  <polygon class="st0" appId="g-3d06" points="559,463.5 559,462 554.3,462 554.3,469.5 561.9,469.5 561.9,462 560.9,462 560.9,463.5 "/>
  <polygon class="st0" appId="G-1F33" points="418.8,373.7 423.1,372.2 423.8,374.3 425.2,373.8 426.3,377.1 420.6,379.1 "/>
  <polygon class="st0" appId="g-1c53c-1" points="658.1,543.4 655.5,543.4 655.5,550.8 657.5,550.8 657.5,549.4 658.1,549.4 "/>
  <polygon class="st0" appId="G-1F32" points="429.1,386.2 428.9,385.9 429.4,385.7 426.5,377.4 415.3,381.3 418.1,389.6 421.8,388.3 421.9,388.7
	421.7,388.8 422.3,390.4 430.1,387.7 429.5,386.1 "/>
  <polygon class="st0" appId="g-3c35a" points="546.9,670.1 547.9,672.9 551.3,671.7 550.3,668.9 "/>
  <polygon class="st0" appId="g-1e19" points="638.7,484.1 632.8,484.1 632.8,492.6 638.7,492.6 "/>
  <polygon class="st0" appId="G-ST03" points="312.5,525.8 322.7,512.7 322.5,512.5 319.9,510.5 319,509.8 319.3,509.6 317.4,508.1 317.2,508.4
	316.9,508.2 306.7,521.3 "/>
  <polygon class="st0" appId="G-ST02" points="441.2,429.2 441.1,429.4 440.9,429.2 439,427.8 438.7,427.5 438.8,427.3 438.5,427.1 444.3,419.7
	439.4,415.9 441.4,413.4 446.2,417.2 447.5,415.6 453.3,420.1 444.3,431.6 "/>
  <polygon class="st0" appId="g-1b04" points="394.6,488.5 393.3,490 390.9,493.1 395.6,496.8 399.2,492.1 "/>
  <polygon class="st0" appId="g-1b03a" points="370.1,489.3 375.9,481.8 370.2,477.4 364.4,484.8 "/>
  <polygon class="st0" appId="g-4g13" points="448.7,465.3 452.6,468.4 454.3,466.2 461.6,456.8 461.4,456.6 458,454 457.7,453.7 "/>
  <polygon class="st0" appId="g-1a01" points="380.9,452.5 385.3,446.9 385,446.6 380,442.6 379,443.9 375.5,448.3 "/>
  <polygon class="st0" appId="g-4d06" points="671.1,462.6 671.1,467.9 678,467.9 678,462.6 "/>
  <polygon appId="g-3c28" class="st0" points="600.6,643.7 593.2,646.2 595.4,652.5 602.8,649.9 "/>
  <polygon class="st0" appId="g-1c37" points="544.3,514.5 544.3,509.5 531,509.5 531,525 536.4,525 536.9,525 536.9,525.2 537.6,525.2 537.6,525
	550.3,525 550.3,516.9 547.3,516.9 "/>
  <polygon appId="g-3c01a" class="st0" points="606.4,592.1 606.4,596.7 611.5,596.7 611.5,592.1 "/>
  <polygon class="st0" appId="g-1c16a" points="476,436.9 469.6,445.1 475,449.4 481.4,441.1 "/>
  <polygon appId="g-3b21" class="st0" points="666.5,608.1 665,603.7 658.6,605.9 661,612.8 667.4,610.6 666.6,608.3 "/>
  <polygon class="st0" appId="g-1c03" points="585.4,498.5 585.4,507.1 590.6,507.1 590.5,498.5 "/>
  <polygon appId="g-3b15" class="st0" points="711.9,600.7 702.8,600.7 702.8,610.6 702.8,610.8 702.8,613.4 711.9,613.4 "/>
  <polygon class="st0" appId="g-1b51" points="406.8,544.5 403.6,548.5 411.7,554.8 415.5,549.8 408.1,544 407.4,544.9 "/>
  <polygon class="st0" appId="g-1b37d" points="398.5,544.9 402.7,539.6 397,535.3 393,540.5 "/>
  <path class="st0" appId="g-4c01a" d="M435.4,555.7l2.2-2.8l-11.3-8.8l-11.5,14.7l11.3,8.8l8.4-10.8l-1-0.8l0.9-1.1L435.4,555.7z M427.1,551.1
	l-1.1-0.9l0.9-1.1l1.1,0.9L427.1,551.1z"/>
  <polygon class="st0" appId="G-1F51" points="381.9,393.1 380.3,388.5 376.1,390 374.5,385.4 372.1,378.6 372.6,378.4 377.4,376.8 377.7,376.7
	380,383.3 387,380.9 392.6,379 397.6,377.3 402.8,375.5 401.5,371.5 402,371.3 406.7,369.7 407.1,369.6 409.6,376.8 411.6,382.6
	414.9,381.4 417.8,389.7 414.4,390.9 417.1,398.6 411.5,400.5 410,396.1 409.5,394.7 404.2,379.5 394.9,382.7 385.7,385.9
	387.5,391.1 387.3,391.2 382.6,392.8 "/>
  <polygon class="st0" appId="g-3d04a" points="562.2,477.3 587.6,477.3 587.6,469.9 581.4,469.9 581.4,463.7 577.9,463.7 577.9,469.9 577.5,469.9
	562.2,469.9 554.2,469.9 550.2,469.9 550.2,473 558.3,473 558.3,475.3 561.9,475.3 561.9,473.3 562.2,473.3 "/>
  <polygon class="st0" appId="G-1F11" points="402.8,349.7 414,345.9 416.5,352.9 417.8,352.4 421.4,362.8 408.8,367.2 "/>
  <polygon class="st0" appId="g-3c35" points="545.5,662.9 545.6,663.2 544.7,663.5 546.8,669.8 555.7,666.7 553.5,660.2 "/>
  <polygon class="st0" appId="g-1e21" points="638.7,492.9 632.8,492.9 632.8,501.5 638.7,501.5 "/>
  <polygon class="st0" appId="g-st04" points="518.8,435.6 521.4,435.6 521.4,435.1 521.8,435.1 521.8,429.9 499.6,429.9 499.5,436.9 517.7,436.9
	517.7,435.1 518.8,435.1 "/>
  <polygon class="st0" appId="G-EL01" points="377.4,405.2 375.4,399.4 368.8,401.6 370.8,407.5 "/>
  <polygon class="st0" appId="g-1b05" points="393.3,489.5 395.9,486.2 392.6,483.6 390,487 "/>
  <polygon class="st0" appId="g-1a28" points="368,564.5 368.5,564.9 366.2,567.9 372.5,572.8 379.8,563.5 372.9,558.1 "/>
  <polygon class="st0" appId="G-4G40" points="401.9,412 393.4,422.9 394.6,423.8 393.6,425.1 392.4,424.2 380.5,439.5 386.7,444.3 389.4,440.9
	389,438.1 396.7,428.3 402.9,420.3 406.6,415.6 "/>
  <polygon class="st0" appId="g-4d01" points="627.7,471.8 627.7,477.3 637.2,477.3 637.2,468.7 642.1,468.7 642.1,461.8 628.7,461.8 628.7,463.3
	627.7,463.3 627.7,468 "/>
  <polygon class="st0" appId="G-1A07" points="363,477.2 364,477.9 361,481.7 358.8,484.6 350.5,478.1 355.7,471.4 357.8,473.1 358.2,472.6
	363.4,476.7 "/>
  <polygon class="st0" appId="g-3c24a" points="632,621.6 638.8,619.3 635.8,610.7 629,613 "/>
  <polygon class="st0" appId="g-1c39b" points="538.2,501.2 538.2,502.1 539.8,502.1 539.8,501.2 543,501.2 544.7,502.8 544.7,504.8 545.8,504.8
	549.4,504.8 550.6,504.8 550.6,498.9 550.6,494.7 550.6,494.5 544.3,494.5 538.3,494.5 538.3,495.1 537.1,495.1 537.1,501.2 "/>
  <polygon class="st0" appId="G-3A12" points="439.5,488.7 445,481.6 439.4,477.2 433.8,484.3 "/>
  <polygon class="st0" appId="g-1c24" points="470.7,484.9 473.1,481.8 473.6,482.2 478.5,476 469.8,469.2 462.5,478.5 464.1,479.8 464.9,478.7
	466.2,479.7 465.4,480.8 "/>
  <polygon class="st0" appId="g-3b22" points="669,596.6 669,593.9 662.5,593.9 662.5,600.2 669,600.2 669,596.9 "/>
  <polygon class="st0" appId="g-1b68" points="394.3,549.7 389,545.5 383.6,552.4 389,556.6 "/>
  <polygon appId="g-3b05" class="st0" points="662.5,580.3 662.5,583.9 670.1,583.9 670.1,581.8 668.9,581.8 668.9,580.3 "/>
  <polygon class="st0" appId="g-1b52" points="409.3,541.3 408.4,542.4 409,542.8 408.3,543.8 415.7,549.6 419.1,545.3 411.1,539 "/>
  <polygon class="st0" appId="g-3a07a" points="510.8,525.4 510.8,531.1 540.8,531.1 540.8,525.4 538.2,525.4 538.2,526.2 536.3,526.2 536.3,525.4
	523.2,525.4 514.2,525.4 "/>
  <polygon class="st0" appId="g-1b40" points="415.7,522.3 418.9,518.2 413.6,514.1 408.7,520.3 414,524.5 414.3,524.1 "/>
  <polygon class="st0" appId="g-4c11" points="421.1,529.3 425.2,532.5 428.4,528.4 422.8,524 420.1,527.4 421.7,528.6 "/>
  <polygon class="st0" appId="g-1g04" points="560.6,448.7 558.3,448.7 558.3,448 560.6,448 560.6,442.3 548.8,442.3 537.1,442.3 537.1,448
	539.2,448 539.2,448.7 537.1,448.7 537.1,453.8 542,453.8 542,448 555.5,448 555.5,453.8 560.6,453.8 "/>
  <polygon appId="g-3c53a" class="st0" points="672.5,580 672.5,568.8 661.6,568.8 661.6,580 "/>
  <polygon class="st0" appId="G-1F08F" points="380.4,340 384.1,350.4 391,348 387.3,337.6 "/>
  <polygon class="st0" appId="g-3c38" points="568.2,666.3 561.1,668.7 564.1,677.3 571.2,674.9 "/>
  <polygon class="st0" appId="g-1e14a" points="617.7,496 614.3,496 614.3,496.1 612.6,496.1 612.6,501.5 617.7,501.5 617.7,499.6 618.1,499.6
	618.1,499.8 622.7,499.8 622.7,496.3 618.1,496.3 618.1,497.7 617.7,497.7 "/>
  <polygon class="st0" appId="G-4J20" points="433.6,423.3 439.1,416.3 443.5,419.7 438,426.8 437.6,426.5 437.6,426.6 437.5,426.5 435.8,425.2
	435.7,425.1 435.7,425 "/>
  <polygon class="st0" appId="g-1b06a" points="389.7,486.8 392.7,483 376,469.9 373.1,473.7 "/>
  <polygon class="st0" appId="g-1b06" points="376.3,469.6 392.9,482.7 395.9,478.9 379.2,465.8 "/>
  <polygon class="st0" appId="g-1a37" points="370.1,501.6 375.8,494.2 370.1,489.8 364.4,497.1 "/>
  <polygon class="st0" appId="G-4G27" points="409.5,425.2 403.3,420.4 408.8,413.4 414.9,418.2 "/>
  <polygon class="st0" appId="G-4G02B" points="438.7,458.1 437.9,459.3 446.2,465.8 447,464.7 448.1,465.5 453,459.2 448.8,455.9 451.8,452
	440.2,442.9 432.3,453.1 438.4,457.9 "/>
  <polygon class="st0" appId="g-4g14" points="438.2,458.2 433.7,454.7 428.2,461.8 430,463.3 429.2,464.3 432.9,467.2 438.4,460.2 437.3,459.3 "/>
  <path class="st0" appId="g-4d09" d="M677.9,488.5v-3.3h-8.9v-0.8h-17.6v0.9H650v-1.2h-4.7v11.4h4.6v0.4h-4.6V525h4.8v-1.3h1.2v1.2h0.4h4.6h0.3v-1.2
	h1.2v1.3h11.2v-1.3h1.2v1.1h7.7l3.9-0.1v-36.2H677.9z M649.9,503.1v-1.7h1.7v1.7H649.9z M669.1,503.1v-1.2h1.2v1.2H669.1z
	 M677.8,503.1h-1.2v-1.2h1.2V503.1z"/>
  <polygon appId="g-3c20" class="st0" points="601.8,636.5 604,642.6 611.1,640.1 609.1,634.1 "/>
  <polygon appId="g-1c40" class="st0" points="553.7,484 553.7,494.3 562.5,494.3 562.5,485.5 559,485.5 559,484 "/>
  <polygon appId="g-3c01f" class="st0" points="605.1,600.7 605.1,597.1 592.3,597.1 587.6,597.1 587.6,600.7 585.6,600.7 585.6,602.6 586,602.6
	586,604 587.6,604 604.7,603.8 605.6,603.8 605.6,600.7 "/>
  <polygon class="st0" appId="g-1c26a" points="481.3,478.1 479.6,476.8 478.8,476.2 473.7,482.7 473.2,482.3 471,485.1 474.7,488 478.4,490.9
	482,493.7 482.8,492.7 483.8,493.5 485.7,491.1 481.6,487.9 481.1,488.5 476.5,484.9 479.1,481.5 481.5,478.4 "/>
  <polygon appId="g-3b18a" class="st0" points="698.2,588 702.4,588 702.4,580.5 698.2,580.5 "/>
  <polygon class="st0" appId="g-1c04" points="585,507.2 585,503.2 576.6,503.2 576.6,511.2 585,511.2 "/>
  <polygon class="st0" appId="g-3b06" points="670.5,580.5 670.5,588 673.7,588 674,588 678.2,588 678.2,580.5 "/>
  <polygon class="st0" appId="g-1b53" points="425.6,510.3 424.4,511.8 420.8,516.4 414.1,525 410.3,529.8 406.3,534.9 400.7,530.6 397,535.3
	402.7,539.6 398.5,544.9 394.8,549.6 389,557 393.7,560.7 400.3,552.1 402.2,553.6 405,550 403.1,548.6 411.9,537.3 415,533.4
	418.7,528.6 419.1,528.2 430.2,513.9 "/>
  <polygon class="st0" appId="g-1c01d" points="479.1,500.2 483.9,503.8 491.9,493.3 497.1,486.7 492.4,483.1 "/>
  <polygon class="st0" appId="g-1b23" points="381.8,537.8 388.6,529.1 380.9,523.1 374.1,531.7 "/>
  <polygon class="st0" appId="G-4c13" points="412.1,571 407.6,576.7 414.6,582.1 419.1,576.4 "/>
  <polygon class="st0" appId="G-1F50" points="400.6,344.8 389.4,348.6 376.4,353.1 364.9,357 366.6,361.9 378.1,357.9 391,353.4 402.2,349.5 "/>
  <polygon class="st0" appId="g-3c53b" points="672.5,553.2 661.6,553.2 661.6,564.3 661.6,564.4 672.5,564.4 "/>
  <polygon class="st0" appId="G-1F10" points="397.1,359.9 387.1,363.4 389.8,371.2 399.8,367.8 "/>
  <polygon appId="g-3c44a" class="st0" points="626.1,650.6 623.3,651.6 624.5,655 627.3,654.1 "/>
  <polygon class="st0" appId="g-1e11a" points="617.7,486.5 618.1,486.5 618.1,487.6 622.7,487.6 622.7,484.1 618.1,484.1 618.1,484.6 617.7,484.6
	617.7,484.1 612.6,484.1 612.6,487.8 617.7,487.8 "/>
  <polygon class="st0" appId="G-EL03" points="428.9,389.4 424.2,391 426.3,397.1 426.9,396.9 430.4,395.7 431,395.5 "/>
  <polygon class="st0" appId="g-1b04a" points="399.4,481.5 396.2,479.1 392.9,483.4 396,485.8 397.8,483.6 "/>
  <polygon class="st0" appId="g-4g40d" points="431.2,422.2 427.6,426.9 441.3,437.6 441.9,436.9 444.5,433.6 445,433 438,427.5 "/>
  <polygon class="st0" appId="g-4g05a" points="458.1,464.7 456.7,463.6 454.8,466.2 459.4,469.8 461.4,467.3 460.2,466.3 460.4,466 462.7,467.9
	465,465 462.6,463.1 460.5,461.5 459.2,460.5 457,463.4 458.3,464.4 "/>
  <polygon appId="g-4d02" class="st0" points="622.1,471.8 627.3,471.8 627.3,468 622.1,468 "/>
  <path appId="g-3c12" class="st0" d="M637.7,637.8l-15.2,5.2l-1.9-5.4l-0.8,0.3l-0.4-1.2l0.8-0.3l-1.9-5.4l15.2-5.2l-1.3-3.8l-78.3,27l1.2,3.6
	l27.7-9.5l4.3,12.5l-27.7,9.5l1.2,3.6l78.3-27L637.7,637.8z M595.4,652.5l-7.1,2.5l-2.2-6.3l-2.2-6.2l7.2-2.4l7.3-2.5l2.2,6.1
	l2.2,6.2L595.4,652.5z M601.8,644l-0.4-1.2l1.2-0.4l0.4,1.2L601.8,644z M613.2,646.2l-7.1,2.5l-2.2-6.2l-2.1-6.1l7.2-2.4l7.2-2.4
	l2.1,6l2.1,6.1L613.2,646.2z"/>
  <polygon appId="g-1c37a" class="st0" points="544.3,503 542.9,501.6 540.1,501.6 540.1,503.3 536.2,503.3 536.2,501.6 525.6,501.6 525.6,509.2
	544.3,509.1 "/>
  <polygon class="st0" appId="g-3c06" points="600.4,632.5 607.5,630 604.5,621.4 597.5,623.8 "/>
  <polygon class="st0" appId="g-1c16b" points="459.1,423.7 454.3,420 444.7,432.3 449.5,436 "/>
  <polygon class="st0" appId="g-3c04a" points="616.7,622.6 615.5,619.1 612.7,620.1 613.9,623.6 "/>
  <polygon class="st0" appId="g-1c06a" points="577.1,521.5 572.8,521.4 572.8,525 577.1,525 "/>
  <path class="st0" appId="g-3b23" d="M702.4,616.3h-0.7v-0.7h0.7v-27.3l-32.3,0v-4.2h-7.7l0,9.4h6.9v5.7h1v1.4h-1v3.8l-3.3,1.1l6.9,20l1.3,3.8
	l28.2-9.7L702.4,616.3z M687.9,599.3h1.4v1.4h-1.4V599.3z M687.9,619.6v-1.4h1.4v1.4H687.9z"/>
  <polygon class="st0" appId="g-1b56" points="394.9,559.7 399.2,563 404.7,556 401.4,553.4 400.6,554.4 399.6,553.7 "/>
  <polygon class="st0" appId="g-3a05" points="514.2,525.4 523.2,525.4 523.2,509.5 514.2,509.5 "/>
  <polygon class="st0" appId="g-1b38" points="406.2,514.4 403.9,517.3 408,520.6 414.7,512.1 410.7,509 409.1,511 409.9,511.7 408.9,513 408,512.3
	406.4,514.5 "/>
  <polygon class="st0" appId="G-4C13A" points="422,570.9 422.8,571.6 419.3,576.2 415.9,573.5 422.4,565.3 425.8,567.9 423.6,570.7 422.7,570 "/>
  <polygon class="st0" appId="g-1g06" points="549.2,453.8 554.8,453.8 554.8,448.7 549.2,448.7 "/>
  <polygon class="st0" appId="g-4c06" points="432.2,523.4 426.6,519.1 423.8,522.7 424.8,523.4 424,524.5 428.6,528.1 "/>
  <polygon class="st0" appId="G-1F12" points="387.9,366.9 385.6,367.6 381.8,368.9 383.3,373.1 383.9,372.9 386.6,380.7 392,378.8 "/>
  <polygon class="st0" appId="g-3c46" points="646,550.7 642.6,550.7 642.6,553.6 642.9,553.6 642.9,553.9 642.6,553.9 642.6,560.7 643.5,560.7
	643.5,561.1 645.8,561.1 645.8,556.6 646.1,556.6 646.1,556.7 646.4,556.7 646.4,556.8 646.1,556.8 646.1,561 648.4,561
	648.4,556.8 648.1,556.8 648.1,556.7 648.7,556.7 648.7,556.8 648.5,556.8 648.5,561 650.7,561 650.7,556.8 650.3,556.8
	650.3,556.7 650.9,556.7 650.9,556.8 650.8,556.8 650.8,561 653,561 653,556.8 652.6,556.8 652.6,556.7 654.1,556.7 654.1,556.8
	653.1,556.8 653.1,560.9 657.4,561 657.4,556.8 656.2,556.8 656.2,556.7 657.4,556.7 657.4,552.3 650.3,552.3 650.3,553.5
	649.9,553.5 649.9,552.3 646.4,552.3 646.4,553.9 645.1,553.9 645.1,553.6 646,553.6 "/>
  <polygon appId="G-1F07" class="st0" points="375.3,422.5 381.8,420.2 381.6,419.7 386.6,418 391.2,416.4 389.1,410.3 387.6,410.8 385,403.4
	377.8,405.8 370.4,408.4 371.4,411.2 "/>
  <polygon class="st0" appId="g-1b12" points="383,493.8 386.2,489.8 382.1,486.7 379,490.7 "/>
  <polygon appId="g-el06" class="st0" points="508.4,475.6 508.4,470.7 515.2,470.7 515.2,475.6 "/>
  <polygon class="st0" appId="g-4j02" points="621.8,461.3 622.5,461.3 622.5,454.4 605.8,454.4 605.8,454.8 605.8,455.6 605.8,461.6 614,461.6
	614,470.9 615.3,470.9 620.5,470.9 621.8,470.9 "/>
  <polygon class="st0" appId="g-1b08" points="372.6,473.8 370.2,476.9 390.9,493.1 393.3,490 "/>
  <polygon class="st0" appId="g-1a03a" points="367.1,474.5 370.2,476.9 372.6,473.8 369.5,471.4 "/>
  <polygon class="st0" appId="g-4g06" points="459.5,470.3 457.4,472.9 463,477.3 465.1,474.7 "/>
  <polygon class="st0" appId="g-4d05" points="622.1,467.7 627.3,467.7 627.3,461.7 622.1,461.7 "/>
  <polygon appId="g-3c19" class="st0" points="591.1,640.1 593.2,646.2 600.6,643.7 598.4,637.6 "/>
  <polygon class="st0" appId="g-1c35" points="566.3,510.2 569.3,510.2 571,508.5 571,498.6 566.3,498.6 566.3,499.2 566.3,501.3 "/>
  <polygon class="st0" appId="g-3c07" points="589.9,636.1 597,633.6 594,625 587,627.5 "/>
  <polygon class="st0" appId="g-1c26" points="481.3,461.4 477.7,466.1 480,467.8 475.7,473.4 478.7,475.7 480,474 480.3,474.2 479,475.9
	479.8,476.5 481.5,477.9 481.8,478.1 486.1,472.6 490.6,476.1 494.1,478.9 497.8,474.2 492.6,470.2 486.3,465.3 490.6,459.8
	486.7,456.8 482.4,462.2 "/>
  <g>
	<polygon appId="g-3b01" class="st0" points="650.1,605.8 650.6,607.3 649.3,607.7 648.8,606.2 643,608.2 644.5,613 645.3,615.2 645.4,615.4
		646.1,617.5 646.2,617.9 660.6,613 657.3,603.3 	"/>
    <path appId="g-3c01d" class="st0" d="M657.4,580.3v1.8h-15.3v-2.4l-6.8,0l0,0.7l0,1.2l0,1l0,0.9l-0.1,0.8l-0.1,0.8l-0.1,0.7l-0.1,0.7l-0.1,0.7
		l-0.1,0.5l-0.1,0.6l-0.1,0.6l-0.1,0.6l-0.1,0.5l-0.2,0.6l-0.2,0.6l-0.2,0.6l-0.2,0.5l-0.2,0.6l-0.2,0.7l-0.2,0.6l-0.2,0.5l-0.2,0.6
		l-0.3,0.6l-0.2,0.6l-0.3,0.7h-20.6h-4.7v3.6l-0.5,0l0,3.1h2.8l0,0.2h4.7h8.3l3.5,9.9l11.5-4l0.2,0.6l-0.3,0.1l0.9,2.5l5.5-1.9
		l-0.9-2.5l-0.3,0.1l-0.2-0.6l8.5-2.9V588h11.9l0-7.6L657.4,580.3z M634.9,600.7h-1.4v-1.4h1.4V600.7z"/>
</g>
  <polygon class="st0" appId="g-1c06" points="572.8,516.9 572.8,521.1 577.1,521.1 577.1,516.9 "/>
  <polygon appId="g-3b11" class="st0" points="686,628.6 685.3,626.5 685.1,626 667.9,632 669,635.3 674.2,633.5 675.9,638.5 678,637.7 678.1,638.1
	688,634.6 "/>
  <g>
	<path class="st0" appId="g-1b01d" d="M419,481.9l-4.8-3.7l-2.4-1.9l-14.4-11.1l-6.2,7.8l0.7,0.5l-0.8,1l8.9,7l4.1,3.2l0.6,0.4l0.8-1l1.3,1l-0.8,1
		l1.1,0.9l4.9,3.8l7.6,5.9l0.8-1l0.6,0.5l6.4-8L419,481.9z M414,488.3l-4.9-3.7l2.5-3.1l4.9,3.7L414,488.3z"/>
    <polygon class="st0" appId="g-1b49" points="429.8,504.9 425.8,510 430.5,513.6 434.5,508.5 	"/>
</g>
  <polygon class="st0" appId="g-3a12a" points="394.8,463.2 399.1,457.7 396.5,455.6 393.6,453.4 385.3,446.9 380.9,452.5 "/>
  <polygon class="st0" appId="g-1b41" points="406.1,514.3 410.4,508.8 402.5,502.6 395.8,511.1 403.9,517.3 406.2,514.4 "/>
  <polygon class="st0" appId="g-4c13b" points="415.5,566 416.3,565 419.9,567.9 415.6,573.3 408.1,567.4 412.3,562 415.1,564.1 414.3,565.1 "/>
  <polygon class="st0" appId="g-1f52" points="402.3,411 391.2,415.2 393.6,422.1 400.6,413.1 "/>
  <path class="st0" appId="g-4c01" d="M447.2,540.8l7.8-10.1l-15.8-12.4l-0.9,1.1l-0.3-0.2l0.9-1.1l-1.3-1l-5,6.4l-1.7,2.2l-13.8,17.6l2.4,1.9
	l-7.9,10.1l-6.4-5l-2.8,3.6l1.2,1l5.5,4.3l-3.1,4l3.1,2.4l3.1-4l7.8,6.1l2-2.6l-7.8-6.1l11.9-15.3l11.6,9l8.3-10.6l-1-0.8l1-1.3
	L447.2,540.8z M438.7,536.3l-1.1-0.9l1-1.3l1.1,0.9L438.7,536.3z"/>
  <polygon class="st0" appId="G-1F08G" points="398.5,345.4 394.7,335 389.4,336.8 389.8,338 388.2,338.5 387.9,337.4 387.3,337.6 391,348 "/>
  <polygon class="st0" appId="g-3c40" points="589.1,668.8 586.1,660.1 579,662.6 582,671.2 "/>
  <polygon class="st0" appId="G-1F08A" points="368.6,369.4 358.5,372.8 356.2,365.9 366.2,362.4 "/>
  <polygon class="st0" appId="g-el07" points="536.4,468.2 536.4,464.4 536.1,464.4 536.1,463.8 536,463.8 529.2,463.8 529.2,468.8 536.1,468.8
	536.1,468.2 "/>
  <polygon class="st0" appId="g-1b13" points="387.7,496.7 390.4,493.2 386.8,490.3 384,493.9 "/>
  <polygon class="st0" appId="g-1a21" points="342,525.2 345.1,521.2 341.1,518.1 338,522.1 "/>
  <polygon class="st0" appId="G-4G15" points="425.8,464.5 423,468 431.3,474.5 435.2,469.5 432.4,467.3 427.1,463.2 426,464.7 "/>
  <polygon class="st0" appId="G-4G03" points="457.9,452.9 456.9,452.1 457.8,450.9 454.9,448.7 452.4,452 456.3,455 "/>
  <polygon class="st0" appId="g-4d26" points="710.1,487.1 711.1,487.1 711.1,478.5 711.1,475.9 698.5,475.9 698.5,487.4 699.9,487.4 699.9,487.1
	700.9,487.1 700.9,487.4 710.1,487.4 "/>
  <polygon class="st0" appId="g-3c10b" points="563,641.1 561.8,637.6 559,638.6 560.2,642.1 "/>
  <polygon class="st0" appId="g-1c39d" points="550.6,494.7 550.6,498.9 556.3,498.9 556.3,499.6 556.6,499.6 556.6,499.9 556.2,499.9 556.2,501.3
	560.5,501.3 560.5,499.9 560.2,499.9 560.2,499.6 560.5,499.6 560.5,498.9 562.5,498.9 562.5,494.7 "/>
  <polygon class="st0" appId="g-3c08a" points="580.9,634.9 579.7,631.5 576.9,632.4 578.1,635.9 "/>
  <polygon class="st0" appId="g-1c39a" points="538.3,494.5 544.3,494.5 544.3,492.9 544.2,492.9 544.2,486.1 543.9,486.1 539.5,486.1 538.3,486.1 "/>
  <polygon class="st0" appId="g-3c08" points="579.6,630 582.5,638.6 589.6,636.2 586.6,627.6 "/>
  <polygon class="st0" appId="g-1c08" points="591,507.8 595.9,507.8 595.9,490.9 595.9,486.1 591,486.1 "/>
  <polygon appId="g-3b12" class="st0" points="686.3,628.5 687.9,633 689.2,632.5 689.7,634 694.1,632.5 691.1,624 688,625 687.8,625.1 685.4,625.9
	685.6,626.4 "/>
  <polygon class="st0" appId="g-1b54" points="376.4,549.6 382,554 389.5,544.3 386.4,541.8 385.6,542.8 383.2,540.9 "/>
  <polygon class="st0" appId="g-3a12c" points="430.7,491 434.9,485.6 432.3,483.6 428.4,480.5 425.3,478.1 425.8,477.6 424.1,476.3 423.6,476.8
	418.9,473.1 414.7,478.6 "/>
  <polygon class="st0" appId="g-1b42" points="395.6,510.8 402.2,502.4 395.7,497.3 394.1,499.3 395,500 394,501.3 393,500.6 389,505.7 "/>
  <polygon class="st0" appId="g-3a06" points="510.8,531.1 510.8,537.2 510.8,546 540.8,546 540.8,537.2 540.8,531.1 "/>
  <polygon class="st0" appId="G-1F42" points="414.9,391.1 418.1,400.5 424.6,398.3 421.3,388.9 "/>
  <polygon class="st0" appId="g-3c53e" points="661.3,571.6 651.6,571.6 651.5,571.6 651.5,580 661.3,580 661.3,577 "/>
  <polygon class="st0" appId="G-1F08H" points="406.1,342.8 402.4,332.4 394.8,335 398.5,345.4 "/>
  <polygon class="st0" appId="g-3c39" points="571.7,665.1 574.7,673.7 581.7,671.3 578.7,662.7 "/>
  <polygon class="st0" appId="G-1F08B" points="357.8,347.8 351.9,349.8 352.2,350.9 350.9,351.4 354,360.4 356,359.7 356.1,360 361.5,358.2 "/>
  <polygon appId="g-st07" class="st0" points="661.9,594.5 650.7,594.5 650.8,600 661.9,600 "/>
  <polygon class="st0" appId="g-st05" points="613.3,462.4 606,462.4 606,477 613.3,477 "/>
  <polygon class="st0" appId="g-1b14" points="373.5,497.7 378.8,491 387.1,497.5 381.8,504.2 "/>
  <polygon class="st0" appId="G-4G17" points="426.3,448.9 420.6,456.2 427.7,461.8 433.4,454.5 430.3,452 429.4,453.1 428.1,452.1 428.9,451 "/>
  <polygon class="st0" appId="G-1A20" points="372.6,557.9 365.5,552.3 358.2,561.6 364.9,566.8 367.2,563.9 367.7,564.3 "/>
  <polygon class="st0" appId="g-4g09" points="447.7,473.3 444.5,470.7 439.6,476.9 442.9,479.5 "/>
  <polygon class="st0" appId="g-4d03" points="622.6,472.6 622.6,476.9 627.3,476.9 627.3,472.6 "/>
  <polygon appId="g-3c21" class="st0" points="604,642.6 606.2,648.7 613.2,646.2 611.1,640.1 "/>
  <polygon class="st0" appId="g-1c44" points="512.5,496.6 512.5,485.5 507.1,485.5 507.1,496.6 "/>
  <polygon class="st0" appId="g-3c15" points="555.6,652.6 557.6,658.4 564.4,656 562.4,650.3 "/>
  <polygon appId="g-1c16e" class="st0" points="478.6,458.8 482.6,453.6 486.4,456.5 482.4,461.7 "/>
  <polygon appId="g-3c09b" class="st0" points="643.5,644.4 647.8,643 651.7,641.6 655.7,640.2 660,638.7 658.6,634.8 660.7,634.1 660.6,633.8
	660.3,632.8 660.2,632.6 659.5,630.6 659.4,630.3 657.7,630.8 656.3,626.6 649.6,628.9 648.4,625.3 647.5,622.9 647.5,622.7
	647,621.4 647,621.3 646.2,618.8 645.7,617.6 645,615.6 645,615.3 644.2,613.1 643.6,611.5 642.8,611.7 638.1,613.4 637.3,613.7
	639.2,619.5 632.6,621.8 633,623.3 633.7,625.3 633.8,625.6 640.6,623.3 644.7,635.3 638,637.6 638.1,637.9 638.8,640 638.9,640.2
	639.2,641.1 639.3,641.4 642,640.5 "/>
  <polygon class="st0" appId="g-1b66" points="392.8,573.7 397.5,577.3 390.2,586.7 385.5,583 "/>
  <polygon appId="g-3b14a" class="st0" points="702.8,618.1 707,618.1 707,613.7 702.8,613.7 "/>
  <polygon class="st0" appId="g-1b57" points="397,587.2 397.9,587.9 402.9,581.5 397.8,577.6 390.5,586.9 395.2,590.5 396.5,588.9 396,588.5 "/>
  <polygon class="st0" appId="g-3a12e"  points="460.7,514.2 462,515.3 466.1,510 461.3,506.2 458.5,504.1 450.2,497.6 449.9,497.3 445.8,502.6
	445.9,502.7 "/>
  <polygon class="st0" appId="g-1b22" points="389,557 383.4,552.7 382,554.5 362.5,539.2 358.8,543.8 360.1,544.8 358.7,546.6 372.4,557.2
	373.7,555.5 375,556.5 373.7,558.3 382.7,565.3 387.3,568.9 388.6,567.1 391,564.1 393.7,560.7 "/>
  <polygon class="st0" appId="g-3a12d" points="445.8,502.6 449.9,497.3 447.4,495.3 442.3,491.4 439.5,489.2 434.9,485.6 430.7,491 441.6,499.4 "/>
  <polygon class="st0" appId="g-1g01" points="522.4,422.2 522.4,429.3 536.3,429.3 536.3,422.2 "/>
  <polygon appId="g-3c01e" class="st0" points="628.5,562.5 629.6,564.1 630.7,565.9 631.2,566.7 634.6,564.4 634.6,561.2 632.7,561.2 632.7,561.4
	631.5,561.4 631.5,561.2 628.5,561.2 "/>
  <polygon class="st0" appId="G-1F08L" points="366.5,362 369.1,369.6 365.2,370.9 366.4,374.4 367.8,378.4 371.6,377 372,378.2 372.5,378
	377.2,376.4 377.6,376.3 374,365.9 375.8,365.3 378.3,364.5 380,363.9 378,358 "/>
  <polygon class="st0" appId="g-3c32" points="565,656.7 566.8,662 573.7,659.7 571.7,653.9 567.1,655.5 567.2,655.9 "/>
  <polygon class="st0" appId="G-1E09" points="628.6,496.8 628.6,494.7 628.3,494.7 628.3,493.1 623.1,493.1 623.1,497 628.3,497 628.3,496.8 "/>
  <polygon class="st0" appId="G-EL02" points="375.8,399.2 382.4,396.9 384.5,402.8 377.8,405.1 "/>
  <polygon class="st0" appId="g-1b16" points="381.6,504.5 376.3,511.2 368,504.8 373.3,498 "/>
  <polygon class="st0" appId="g-4j05" points="506.7,463.4 507.1,463.4 507.1,466.1 506.9,466.1 501.8,466.1 501.8,466.1 501.7,466.1 501.7,461.9
	501.7,461.7 501.4,461.7 500.6,461.7 500.3,461.7 500.3,461.5 500.3,454.7 499.9,454.3 485.8,443.4 489.9,438.2 507.1,438.2
	507,448.1 511.5,448.1 511.5,455.5 511.5,460.6 511.5,461 510.9,461 506.7,461 "/>
  <polygon appId="g-1a22" class="st0" points="345.4,521.5 349.4,524.6 346.3,528.6 342.3,525.5 "/>
  <polygon class="st0" appId="g-1a13" points="332.6,518.1 336.2,513.4 328,506.9 324.3,511.6 "/>
  <polygon class="st0" appId="g-4g40b" points="422,405.8 420.1,400.2 417.9,400.9 417.2,398.9 411.6,400.9 412.3,402.9 411.4,403.2 413.3,408.8
	414.2,408.5 416.7,415.6 422.2,413.6 419.8,406.5 "/>
  <polygon class="st0" appId="G-4G12" points="456.1,455.3 452.1,452.2 449.3,455.9 453.2,458.9 "/>
  <polygon class="st0" appId="g-3c24" points="625.2,614.3 622.8,615.2 625.7,623.8 631.6,621.7 628.7,613.1 "/>
  <polygon class="st0" appId="g-1c43c" points="536.3,484 531.4,484 531.4,489.3 537.9,489.3 537.9,485.5 536.3,485.5 "/>
  <polygon appId="g-3c22" class="st0" points="618.7,631.2 620.7,636.9 628.3,634.2 626.4,628.5 "/>
  <polygon class="st0" appId="g-1c37f" points="560.9,525 568.5,525 568.5,516.9 557.9,516.9 557.9,523.4 560.9,523.4 "/>
  <polygon class="st0" appId="g-3a40" points="611.8,592.1 611.8,596.7 624.7,596.7 624.7,592.1 "/>
  <polygon class="st0" appId="g-1c35" points="585.7,516.5 585.7,511.6 576.3,511.6 576.3,508.5 571.5,508.5 571.5,508.7 569.5,510.6 566.6,510.6
	563.8,510.6 563.8,516.5 577.2,516.5 "/>
  <polygon appId="g-3b17" class="st0" points="657.2,588.3 650.5,588.3 650.5,593.9 662.1,593.9 662.1,588.3 "/>
  <polygon class="st0" appId="g-1c08a" points="595.9,516.5 595.9,507.8 591,507.8 591,511.6 585.7,511.6 585.7,516.5 "/>
  <path class="st0" appId="G-3A14" d="M369.5,408.3l-5,1.8l6.3,18.5l-8.7,10.8l3.8,3l10.8-13.3L369.5,408.3z M365.2,411.2l-0.3-0.9l0.9-0.3l0.3,0.9
	L365.2,411.2z M368.8,433.2l-0.7-0.6l0.6-0.7l0.7,0.6L368.8,433.2z M370,425.1l-0.3-0.9l0.9-0.3l0.3,0.9L370,425.1z"/>
  <polygon class="st0" appId="g-1b58" points="398.7,563.1 394.8,560 391.5,564.1 395.5,567.2 "/>
  <path class="st0" appId="g-3a02" d="M506.5,525.4l-8.3,0v-9.7l8.3,0v-1.2h-23.3l5.2,3.5l-3.3,4.5l-9.8-6.6l-4.8,5.8l-0.7,0.9l1.5,1.2l17.3,13.5
	l0,8.8h22.3v-8.8v-6.1v-5.7H506.5z M485.5,524.6l-0.2,0.3l-0.3,0.2l-0.3,0.1l-0.4-0.1l-0.3-0.2l-0.2-0.3l-0.1-0.3l0.1-0.3l0.1-0.2
	l0.1-0.1l0.3-0.2l0.4-0.1l0.3,0.1l0.3,0.2l0.2,0.3l0.1,0.3L485.5,524.6z"/>
  <polygon class="st0" appId="g-1g05" points="548.5,448.7 542.7,448.7 542.7,453.8 548.5,453.8 "/>
  <polygon appId="g-3c53a-1" class="st0" points="672.5,564.7 667.3,564.7 667.3,568.5 672.5,568.5 "/>
  <polygon class="st0" appId="G-1F14A" points="366.4,361.9 364.7,357.1 356.2,360 354.2,360.7 355.8,365.6 "/>
  <polygon appId="g-3c44" class="st0" points="617.8,658.9 624.7,656.5 621.7,647.9 614.8,650.2 "/>
  <polygon class="st0" appId="g-1e06" points="605.9,499 605.9,491.9 596.3,491.9 596.3,499 "/>
  <polygon appId="g-3c42a" class="st0" points="606.8,661.1 609.6,660.2 608.4,656.7 605.6,657.7 "/>
  <polygon class="st0" appId="g-1b17" points="370.8,518.3 376.1,511.5 367.8,505 362.5,511.8 "/>
  <polygon class="st0" appId="g-el05" points="515.2,468.8 515.2,463.8 508.4,463.8 508.4,468.8 "/>
  <polygon class="st0" appId="g-1a25" points="359.9,532.8 358.2,531.5 354.9,535.8 351.1,540.6 357.4,545.6 358.8,543.8 362.5,539.2 364.6,536.4 "/>
  <polygon appId="g-4j06" class="st0" points="497.8,474.2 494.1,478.9 495.1,479.6 492.6,482.8 493.1,483.2 496.5,485.8 497.6,486.6 499.7,486.6
	499.7,485.1 506.3,485.1 506.3,483.5 508.5,483.5 508.5,485.1 511.6,485.1 511.6,483.1 511.6,478.1 511.6,477.7 507.1,477.7
	507.1,466.5 506.9,466.5 501.8,466.5 501.7,466.5 501.7,471.3 498.8,475 "/>
  <polygon class="st0" appId="G-4g14" points="433.2,467.5 437.3,470.7 442.8,463.6 438.7,460.4 "/>
  <polygon class="st0" appId="G-4G04" points="447.3,442.7 444.7,446 452.1,451.7 454.6,448.5 "/>
  <polygon appId="g-3c26" class="st0" points="620.7,636.9 622.6,642.5 630.3,639.9 628.3,634.2 "/>
  <polygon class="st0" appId="g-1c43d" points="530,494.7 530,489.6 521.3,489.6 521.3,494.7 "/>
  <polygon class="st0" appId="g-3c14" points="545.3,662.6 553.3,659.9 551.1,653.3 542.2,656.4 544.4,662.6 545.3,662.3 "/>
  <polygon class="st0" appId="g-1c34" points="530.4,489.6 530.4,494.7 537.9,494.7 537.9,489.6 "/>
  <polygon class="st0" appId="g-3c05a" points="614,623.9 615.2,627.4 618,626.4 616.8,622.9 "/>
  <polygon class="st0" appId="g-1c100" points="604.4,484 596.3,484 596.3,491.5 605.9,491.5 605.9,485.5 604.4,485.5 "/>
  <polygon appId="g-3b04" class="st0" points="649.8,628.4 655.6,626.5 654.8,624.2 656.4,623.7 656.9,625.1 664,622.6 660.8,613.3 646.3,618.3
	646.5,618.7 647.3,621.2 647.4,621.3 647.8,622.6 647.9,622.7 648.7,625.2 "/>
  <polygon class="st0" appId="g-1b62" points="404.5,593.1 403.6,594.3 404.6,595.1 403.3,596.8 395.5,590.8 396.8,589.1 397.3,589.5 404.7,580
	410.8,584.9 410,585.9 411.1,586.8 405.5,593.9 "/>
  <polygon class="st0" appId="G-3A16" points="386.9,418.2 391.3,416.7 393.3,422.3 388.8,423.8 "/>
  <polygon class="st0" appId="g-1b37b" points="410.3,529.8 414.1,525 408.5,520.6 404.7,525.5 "/>
  <polygon class="st0" appId="g-3a04" points="506.5,515.6 498.1,515.6 498.1,525.3 506.5,525.4 "/>
  <polygon class="st0" appId="g-1g10" points="561.1,439.9 571.6,439.9 571.6,430.4 561.1,430.4 "/>
  <polygon appId="g-3c53f" class="st0" points="651.5,571.3 651.5,562.9 650,562.9 650,561.4 642.4,561.4 642.5,571.3 "/>
  <polygon class="st0" appId="G-1F14B" points="403,381.4 404.4,381 405.7,384.9 396.9,387.9 395.2,383 402.7,380.4 "/>
  <polygon class="st0" appId="g-3c47" points="650.8,547.4 650.8,543 648.5,543 648.5,547.4 648.7,547.4 648.7,547.5 648.1,547.5 648.1,547.4
	648.4,547.4 648.4,543 646.1,543 646.1,547.4 646.4,547.4 646.4,547.5 646.1,547.5 646.1,547.6 645.8,547.6 645.8,543 643.3,543
	643.3,543.4 642.6,543.4 642.6,550.4 646.4,550.4 646.4,551.9 648.7,551.9 648.7,550.7 649.1,550.7 649.1,551.9 655.2,551.9
	655.2,547.5 653.1,547.5 653.1,547.4 655.1,547.4 655.1,542.9 650.9,542.9 650.9,547.4 650.9,547.5 650.3,547.5 650.3,547.4 "/>
  <polygon class="st0" appId="g-1e07" points="605.9,499.3 596.3,499.3 596.3,507.1 605.9,507.1 "/>
  <polygon appId="g-3c43a" class="st0" points="604.3,653.9 605.5,657.3 608.3,656.4 607.1,652.9 "/>
  <polygon class="st0" appId="g-1b18" points="370.6,518.5 362.3,512.1 357.1,518.8 365.3,525.3 "/>
  <polygon class="st0" appId="G-EL13" points="428.4,417.7 433.4,421.6 436.8,417.4 431.7,413.4 "/>
  <polygon class="st0" appId="g-1a23" points="337.5,522.2 332.6,518.6 329.2,515.9 328.2,517.1 323.3,513.2 320.6,516.8 327.6,522.3 329,520.5
	330.3,521.5 328.9,523.3 342.5,533.9 343.9,532.2 345.2,533.2 343.8,535 351.1,540.6 354.9,535.8 "/>
  <polygon class="st0" appId="g-4j07" points="538.3,483.6 538.3,485.7 539.5,485.7 543.9,485.7 544.2,485.7 544.2,483.6 547.9,483.6 547.9,477.7
	531.6,477.7 512,477.7 512,478.1 512,483.1 512,485.1 520.9,485.1 520.9,483.6 "/>
  <polygon class="st0" appId="G-1A16" points="337.5,540.6 337.9,541 342.8,534.6 335.7,529 328.4,538.3 335.5,543.9 335.7,543.7 335.3,543.4 "/>
  <polygon class="st0" appId="G-4G26" points="415.6,418 412.2,422.3 419.6,428.1 422.2,424.9 421.1,424.1 422,423 "/>
  <polygon class="st0" appId="G-4G01A" points="410.3,449.5 411.3,448.2 411.6,448.5 410.6,449.8 412.1,450.9 412.7,450.1 416.3,452.9 420.1,448
	424.1,451.1 426.2,448.4 431.9,452.8 441.8,440.3 439,438.1 439.3,437.7 437.8,436.5 438.3,435.8 423.3,424 419.9,428.4
	417.5,431.5 419.1,432.7 407.6,447.4 "/>
  <polygon class="st0" appId="g-1c43e" points="521.3,489.3 526,489.3 526,484 521.3,484 "/>
  <polygon appId="g-3c30" class="st0" points="593.2,646.2 586,648.7 588.2,655 595.4,652.5 "/>
  <polygon class="st0" appId="g-1c16d" points="478.2,449.3 476.5,448 481.7,441.3 487.9,446.2 478.3,458.5 473.8,455 476.7,451.2 "/>
  <polygon class="st0" appId="g-3c06a" points="598.8,628.8 597.6,625.3 594.8,626.3 596,629.7 "/>
  <polygon class="st0" appId="g-1c09" points="577.4,516.9 577.4,521.1 581.7,521.1 581.7,516.9 "/>
  <polygon appId="g-3b20" class="st0" points="669.9,618 667.5,611 661.1,613.2 663.5,620.2 "/>
  <polygon class="st0" appId="g-1c04a" points="585.4,507.4 585.4,511.2 590.6,511.2 590.6,507.4 "/>
  <polygon class="st0" appId="g-3a30a" points="555.7,537.9 541.5,537.9 541.5,544.3 555.7,544.3 "/>
  <polygon class="st0" appId="g-1b28b" points="377.1,527.3 374,524.9 370.8,529.1 373.8,531.5 "/>
  <polygon class="st0" appId="g-3a07" points="560.9,525.4 560.9,526.2 559,526.2 559,525.4 540.8,525.4 540.8,531.1 540.8,537.2 556.4,537.2
	556.4,537.9 563.5,537.9 563.5,537.2 579.1,537.2 579.1,531.1 579.1,525.4 "/>
  <polygon class="st0" appId="g-1g10a" points="571.6,430 571.6,428.2 571.6,425.8 571.6,424.5 566.2,424.5 566.2,430 "/>
  <polygon class="st0" appId="g-1g10b" points="561.1,430 565.9,430 565.9,424.5 561.1,424.5 "/>
  <polygon class="st0" appId="g-3d01" points="562.2,469.9 577.5,469.9 577.5,462 562.2,462 "/>
  <polygon class="st0" appId="G-1F14C" points="411.6,341 400.7,344.7 402.4,349.4 415.3,345 415.2,344.5 413.9,340.8 413.7,340.2 "/>
  <polygon appId="g-3c49b" class="st0" points="639.4,636.8 643.8,635.3 642.1,630.3 637.7,631.8 "/>
  <polygon appId="g-1e08" class="st0" points="612.3,486.2 606.3,486.2 606.3,501.1 606.3,507.3 606.3,512.3 609.4,512.3 609.5,512.3 612.3,512.3
	612.3,491.9 "/>
  <polygon class="st0" appId="g-3c36a" points="555.1,670.4 554.1,667.6 550.7,668.8 551.6,671.6 "/>
  <polygon class="st0" appId="g-1b19" points="351.6,525.8 359.9,532.3 365.1,525.6 356.8,519.1 "/>
  <polygon class="st0" appId="G-EL14" points="432.6,412.3 437.7,416.2 441,411.9 435.9,408 "/>
  <polygon class="st0" appId="g-1a24" points="354,528.2 350.8,532.2 354.8,535.3 358,531.3 "/>
  <polygon class="st0" appId="g-4j08" points="604.8,483.6 604.8,477.7 561.9,477.7 561.9,475.7 558.3,475.7 558.3,477.7 548.3,477.7 548.3,483.6
	591,483.6 591,485.7 595.9,485.7 595.9,483.6 "/>
  <polygon class="st0" appId="g-1a17" points="336,543.9 335.8,544.2 343,549.8 350.3,540.4 343.1,534.8 338.2,541.2 338.6,541.5 336.4,544.2 "/>
  <polygon class="st0" appId="g-4g40c" points="422.2,413.6 416.7,415.6 416.9,416.3 415.8,417.7 427.6,426.9 431.2,422.2 423,415.8 "/>
  <polygon class="st0" appId="g-4d10" points="651.5,484.3 669.1,484.3 669.1,484 670.7,484 670.7,473 650.4,473 650.4,483.8 651.5,483.8 "/>
  <polygon class="st0" appId="g-1c41" points="500.1,485.5 500.1,496.6 506.7,496.6 506.7,485.5 "/>
  <polygon class="st0" appId="g-3c10" points="560.8,636.5 561.1,637.5 562,637.2 564.7,644.8 571.7,642.4 568.7,633.7 "/>
  <polygon class="st0" appId="g-1c28" points="479.3,481.8 477,484.8 481.1,488 483.4,485.1 "/>
  <path appId="g-3c02" class="st0" d="M605.7,580.3v-17.5h-1.4v-0.7h-3.4v0.7h-9v-0.7h-3.4v0.7H586l-0.4,0h-0.1l0.2,17.2h0.2l0,2.1h-0.2l-0.2,11.5
	l0.5,0l0,3.2h2h3.4h0.2V591h6.2h2.2h0.8v5.8h0.2h3.4h1.1l0-15h-1.1v-1.4H605.7z M587.6,581.8h-1.4v-1.4h1.4V581.8z"/>
  <polygon class="st0" appId="g-1c12" points="590.5,484 583.6,484 583.6,485.5 581.7,485.5 581.7,484 569.8,484 569.7,498.1 590.4,498 "/>
  <polygon appId="g-3b19" class="st0" points="678.5,588 688.4,588 688.7,588 693,588 693,580.5 689.3,580.5 689.3,581.8 687.9,581.8 687.9,580.5
	678.5,580.5 "/>
  <polygon class="st0" appId="g-1c11" points="492.7,480 493.6,478.9 490.5,476.5 486.9,481.1 491,484.3 493.7,480.8 "/>
  <polygon class="st0" appId="g-3a12f" points="439.5,489.2 442.3,491.4 448.1,484 445.3,481.8 "/>
  <polygon class="st0" appId="g-1b33" points="389.3,521.7 381.1,515.3 376.4,511.7 372.8,516.4 377.5,520 397,535.3 400.7,530.6 "/>
  <polygon class="st0" appId="g-3a01" points="510.8,546 488.5,546 488.5,552.2 510.8,552.2 "/>
  <polygon class="st0" appId="g-1g11" points="549.2,424.7 549.2,441.6 560.6,441.6 560.6,424.7 "/>
  <polygon appId="g-3c53c" class="st0" points="658.5,549.7 657.9,549.7 657.9,552.9 672.5,552.9 672.5,543.5 658.5,543.4 "/>
  <polygon class="st0" appId="G-1F16" points="397.2,377 394.7,369.9 389.9,371.6 392.3,378.7 "/>
  <polygon appId="g-3c48" class="st0" points="584.5,648.7 582.9,644.1 581,644.8 580.7,644 577.1,645.3 579.1,651 583.7,649.4 583.5,649 "/>
  <polygon class="st0" appId="G-1E16" points="628.6,499.8 628.6,497.6 628.3,497.6 628.3,497.4 623.1,497.4 623.1,501.3 628.3,501.3 628.3,499.8 "/>
  <polygon class="st0" appId="g-3c39a" points="571.3,665.2 568.5,666.2 569.7,669.6 572.5,668.7 "/>
  <polygon class="st0" appId="G-EL15" points="389.7,444 387.7,446.6 389.7,448.2 391.8,445.6 "/>
  <polygon class="st0" appId="g-1a26" points="349.7,524.8 346.5,528.8 350.5,531.9 353.7,527.9 "/>
  <polygon class="st0" appId="g-4j02a" points="622.5,454.4 622.5,461.3 636.1,461.3 636.1,454.4 "/>
  <polygon class="st0" appId="G-4G18" points="412.7,450.6 408.2,456.4 423,468 425.8,464.5 425.6,464.4 427.5,462.1 "/>
  <polygon class="st0" appId="G-1A06" points="363.6,476.4 357.3,471.4 357.7,470.9 356.7,470.1 360.7,464.9 369,471.4 365,476.6 364,475.9 "/>
  <polygon class="st0" appId="G-4G11" points="440.4,442.6 444.4,445.8 447,442.5 443,439.3 "/>
  <polygon class="st0" appId="g-1c43f" points="526.4,489.3 531.1,489.3 531.1,484 526.4,484 "/>
  <polygon appId="g-3c18" class="st0" points="583.9,642.5 586,648.7 593.2,646.2 591.1,640.1 "/>
  <polygon class="st0" appId="g-1c16" points="459.5,424.8 450.6,436.2 466,448.2 474.9,436.8 472.8,435.2 471.8,436.4 469.8,434.8 470.8,433.6 "/>
  <polygon appId="g-3c01g" class="st0" points="636.1,579.4 641.1,579.4 642.1,579.4 642.1,562.8 642.1,562.7 642.1,561.2 642.1,552.1 642.1,544
	642.1,538 632.9,537.9 632.8,543.9 630.5,543.9 630.5,550.5 635,551.4 635,562.7 635,562.8 635,564.5 631.6,566.8 632,567.6
	632.2,568.2 632.5,568.8 632.7,569.3 632.9,569.9 633.1,570.4 633.4,571 633.6,571.6 633.7,572.1 633.9,572.6 634,573.2
	634.2,573.8 634.4,574.4 634.5,574.9 634.6,575.5 634.8,576.1 634.9,576.7 635,577.3 635.1,577.9 635.2,578.5 635.3,579.4 "/>
  <polygon class="st0" appId="g-1c12a" points="562.9,498.1 569.3,498.1 569.3,484 562.9,484 "/>
  <polygon appId="g-3b11a" class="st0" points="674,634 669.1,635.7 670.7,640.1 675.5,638.5 "/>
  <polygon class="st0" appId="g-1c10" points="486.8,465.2 496.5,452.8 497.8,453.8 497.8,456.7 499.3,456.7 499.3,461.2 492.7,469.8 "/>
  <polygon class="st0" appId="g-3a13" points="379.7,439.8 373.3,434.7 366.7,442.9 373.3,448.1 377.5,442.7 378.4,441.5 "/>
  <polygon class="st0" appId="g-1b31" points="368.8,543.7 376.1,549.4 383.7,539.7 376.4,534 "/>
  <path class="st0" appId="g-3a03" d="M471.2,523.7l-4,5.1l-1.5-1.2l4-5.1l0.7-0.9l-5-3.6l-15,19.1h0l-3.3,4.2l0.5,0.4l-3.4,4.2h44.3l0-8.8
	L471.2,523.7z M464.2,532.7l-3.1,3.9l-1.5-1.2l3.1-3.9L464.2,532.7z M459.1,526.3l0.7,0.6L459,528l-0.7-0.6L459.1,526.3z"/>
  <polygon class="st0" appId="g-1g03" points="521.8,448.6 521.8,454.1 511.8,454.2 511.8,448.6 "/>
  <polygon class="st0" appId="g-3d03" points="605.2,462 589.7,462 589.7,469.9 587.9,469.9 587.9,477.3 605.2,477.3 "/>
  <polygon class="st0" appId="G-1F08D" points="376.7,352.9 373.1,342.5 372.6,342.6 373,343.7 371.5,344.3 371.1,343.2 365.5,345.1 369.2,355.5 "/>
  <polygon appId="g-3c50" class="st0" points="644.4,649.4 643.8,649.5 643.4,648.4 644,648.2 641.5,641.1 632.8,644.1 635.7,652.7 644.5,649.7 "/>
  <polygon class="st0" appId="g-1e14" points="618.1,492.1 618.1,493.1 617.7,493.1 617.7,492.1 612.6,492.1 612.6,495.8 614.3,495.8 614.3,496
	617.7,496 617.7,495 618.1,495 618.1,495.9 622.7,495.9 622.7,492.1 "/>
  <polygon class="st0" appId="g-3c41" points="589.5,658.9 592.5,667.6 599.6,665.1 596.6,656.5 "/>
  <polygon appId="g-3c03" class="st0" points="639.1,636.9 635.2,625.5 626.7,628.4 630.6,639.8 "/>
  <polygon class="st0" appId="g-el10" points="513.2,524.4 513.2,517.4 507.2,517.4 507.2,524.4 "/>
  <polygon class="st0" appId="g-4j09" points="485.2,443.7 489.6,438.1 458.8,414 454.4,419.6 "/>
  <polygon class="st0" appId="g-1a29" points="355.3,517.5 354.5,518.6 355.9,519.7 351.3,525.6 344.6,520.4 350,513.4 "/>
  <polygon class="st0" appId="g-4g13a" points="408,464.1 409,462.9 413.2,466.2 415.9,462.9 403,452.9 397.4,448.5 394.8,451.9 399,455.1 398,456.4
	"/>
  <path class="st0" appId="G-1A02" d="M361.8,439.9l-6.6,8.5l10.5,8.2l1.7-2.1l1.5,1.2l4.9-6.3L361.8,439.9z M357.1,448.1l-0.7-0.6l0.6-0.7l0.7,0.6
	L357.1,448.1z"/>
  <polygon class="st0" appId="g-4g06a" points="461.7,467.5 459.7,470 465.3,474.4 469.2,469.4 468.8,469.1 469,468.8 469.4,469.1 473,464.6
	470.9,463 467.3,467.5 467.5,467.6 467.3,467.9 466.8,467.4 467,467.2 467.1,467.2 470.6,462.7 468.5,461.1 465,465.6 465.4,465.9
	465.2,466.2 464.8,465.9 463,468.1 464.3,469.1 464,469.3 "/>
  <polygon class="st0" appId="G-1C39c" points="537.1,501.2 537.1,495.1 530.2,495.1 526.8,495.1 526.8,501.2 "/>
  <polygon class="st0" appId="g-3c11" points="554.1,648.4 561.2,646 558.6,638.4 559.5,638.1 559.1,637 551.2,639.8 "/>
  <polygon class="st0" appId="g-1c22" points="473.3,487.4 462.3,478.8 454.6,488.6 465.6,497.2 "/>
  <polygon class="st0" appId="g-3c05"  points="612.8,618.6 604.9,621.3 607.8,629.9 614.9,627.5 612.2,619.9 613.1,619.6 "/>
  <polygon class="st0" appId="g-1c12b" points="585,501.3 585,498.6 576.6,498.6 576.6,502.9 581.7,502.9 581.7,501.3 "/>
  <polygon appId="g-3b16" class="st0" points="711.9,599.4 711.9,594.4 702.8,594.4 702.8,597.6 702.8,597.8 702.8,600.3 710.7,600.3 710.7,599.4 "/>
  <polygon class="st0" appId="g-1c07" points="571.5,508.5 576.3,508.5 576.3,498.6 571.5,498.6 "/>
  <polygon class="st0" appId="g-3a13a" points="383.8,425.9 381.8,420.2 375.3,422.5 377.5,428.7 377.8,429.3 377.4,429.7 373.3,434.7 379.7,439.8
	390.6,425.9 389.9,423.8 "/>
  <polygon class="st0" appId="g-1b37a" points="406.3,534.9 410.3,529.8 404.7,525.5 400.7,530.6 "/>
  <polygon class="st0" appId="g-3a07c" points="579.1,525.4 579.1,531.1 608.5,531.1 608.4,525.4 606.3,525.4 606.3,526.2 604.4,526.2 604.4,525.4
	583.6,525.4 583.6,526.2 581.7,526.2 581.7,525.4 "/>
  <polygon class="st0" appId="g-1g08" points="561.3,448.5 561.3,454.2 571.6,454.2 571.6,448.5 "/>
  <polygon class="st0" appId="g-3d07" points="583.6,463.5 581.8,463.5 581.8,469.5 589.3,469.5 589.3,462 583.6,462 "/>
  <polygon class="st0" appId="G-1F18" points="359.6,376.6 358.4,373.2 364.8,371 366,374.4 "/>
  <polygon class="st0" appId="g-3d05" points="546.9,462 554,462 554,469.5 546.9,469.5 "/>
  <polygon class="st0" appId="G-1E17" points="628.6,486.2 628.6,486.4 628.6,488.6 628.6,490.3 628.6,492.5 628.6,494.7 628.6,496.8 628.6,497.6
	628.6,499.8 628.6,501.5 632.4,501.5 632.4,492.8 632.4,486.2 "/>
  <polygon class="st0" appId="g-3c36" points="559.7,678.4 556.9,670.2 548,673.2 548.4,674.4 548.4,674.5 550,679 550.8,681.4 "/>
  <polygon class="st0" appId="g-el09" points="513.2,517.1 513.2,509.9 507.2,509.9 507.2,517 "/>
  <polygon class="st0" appId="g-1a18" points="353.1,552.8 358,546.5 365.2,552.1 357.9,561.4 350.7,555.8 350.9,555.6 351.4,556 353.6,553.2 "/>
  <polygon class="st0" appId="g-4j08b" points="639,483.7 644.9,483.7 647.8,483.7 647.8,477.7 621.8,477.7 621.8,471.3 620.5,471.3 615.3,471.3
	614,471.3 614,477.7 604.8,477.7 604.8,483.6 606.3,483.6 606.3,485.9 612.3,485.9 612.3,483.7 628.9,483.7 628.9,485.9
	632.4,485.9 632.4,483.7 "/>
  <polygon class="st0" appId="G-1A09" points="338.8,493 344,486.3 346.2,488 346.6,487.5 351.8,491.6 351.4,492.1 352.3,492.8 347.1,499.5 "/>
  <polygon class="st0" appId="G-4G27A" points="417.2,431.3 409.8,425.4 411.9,422.6 419.4,428.5 "/>
  <polygon class="st0" appId="G-1A08" points="352.4,490.8 352,491.3 345.7,486.3 346.1,485.8 345,485 350.2,478.4 358.5,484.8 353.3,491.5 "/>
  <polygon class="st0" appId="g-4d07" points="678,467.9 671.1,467.9 671.1,484.8 677.9,484.8 "/>
  <polygon class="st0" appId="g-1c42" points="512.8,496.6 520.9,496.7 520.9,485.5 512.9,485.5 "/>
  <polygon appId="g-3c27" class="st0" points="611.1,640.1 613.2,646.2 620.4,643.7 618.3,637.6 "/>
  <polygon class="st0" appId="g-1c37d" points="553.3,484 544.5,484 544.5,488.9 553.3,488.9 "/>
  <polygon class="st0" appId="g-3c09" points="572,642.2 579.1,639.8 576.1,631.2 569.1,633.6 "/>
  <polygon class="st0" appId="g-1c13" points="496.8,496.6 497.2,496.7 499.4,496.7 499.7,496.6 499.7,487 497.4,487 492.5,493.2 "/>
  <polygon appId="g-3b09" class="st0" points="674.2,629.4 672.9,625.6 659.7,630.1 661.1,633.9 "/>
  <polygon class="st0" appId="g-1c05" points="487.1,447.8 489.7,449.8 490.9,448.4 496.3,452.6 490.8,459.5 482.8,453.3 "/>
  <polygon class="st0" appId="g-3a30b" points="564.2,537.9 564.2,544.3 578.4,544.3 578.4,537.9 "/>
  <polygon class="st0" appId="G-1b32" points="380.1,563.7 385.8,568.2 387,569.2 381.1,576.8 381.6,577.2 380.3,578.9 372.8,573.1 "/>
  <polygon class="st0" appId="g-1c01a" points="483.9,503.8 479.1,500.2 469.2,512.8 466.2,510.5 462.3,515.6 465.4,518 470.4,521.7 475.2,515.8
	474.9,515.6 479.4,509.6 "/>
  <polygon class="st0" appId="g-1g09" points="561.1,440.2 561.3,448.2 571.6,448.2 571.6,440.2 "/>
  <polygon class="st0" appId="g-4c03" points="459,525.6 464.7,518.4 460.5,515.1 454.8,522.3 454.6,522.6 451,527.2 455.2,530.4 457.8,527.1
	456.6,526.1 457.7,524.6 "/>
  <polygon class="st0" appId="G-1F13" points="377.6,375 374.5,366.1 378.4,364.8 378.7,365.8 380.2,365.3 382.9,373.2 "/>
  <polygon class="st0" appId="g-3c53d" points="642.5,571.6 642.5,581.8 649.8,581.8 649.8,580 651.1,580 651.1,571.6 "/>
  <polygon class="st0" appId="g-1e31" points="628.6,486.4 628.3,486.4 628.3,485.4 627.2,485.4 627.2,484.1 623.1,484.1 623.1,488.8 628.3,488.8
	628.3,488.6 628.6,488.6 "/>
  <polygon appId="g-3c42" class="st0" points="599.9,665 606.9,662.6 604,654 596.9,656.4 "/>
  <polygon class="st0" appId="g-el11" points="524.2,509.9 524.2,517 530.2,517 530.2,509.9 "/>
  <polygon class="st0" appId="g-1a27" points="367.3,533.5 363,539.1 368.6,543.5 372.9,537.9 "/>
  <polygon class="st0" appId="g-4j03" points="537.1,464.5 537.1,468.1 537.7,468.1 537.7,469.5 544.8,469.5 544.8,461.6 544.9,461.6 573.5,461.6
	573.5,454.5 569.5,454.5 567.1,454.5 536.5,454.5 536.5,461.6 537.7,461.6 537.7,464.5 "/>
  <polygon class="st0" appId="G-1A15" points="320.9,532.5 328.1,538.1 335.4,528.8 328.2,523.2 323.2,529.5 323.8,529.9 321.6,532.7 321.1,532.3 "/>
  <polygon class="st0" appId="G-4G22" points="408,424.6 399.4,435.7 401,437 401.3,437.2 394.6,445.8 403.1,452.5 418.5,432.8 "/>
  <polygon class="st0" appId="G-1A04" points="374.7,462.3 375.6,463 369.2,471.1 360.9,464.7 367.3,456.5 369.5,458.2 369.9,457.7 375.1,461.7 "/>
  <polygon class="st0" appId="g-4d04" points="638,469 638,476.9 641.7,476.9 641.7,469 "/>
  <polygon class="st0" appId="g-1c51" points="485.9,490.8 488.3,487.8 484.2,484.6 481.8,487.6 "/>
  <polygon class="st0" appId="g-3c16" points="571.6,653.6 569.6,647.8 562.8,650.2 564.6,655.5 566.8,654.8 566.9,655.2 "/>
  <polygon class="st0" appId="g-1c31" points="478.1,491.1 473.6,487.6 465.9,497.4 470.4,500.9 "/>
  <polygon appId="g-3c01" class="st0" points="610.5,562.5 609.5,562.8 608.6,563.4 607.8,564.1 607.2,565 606.8,565.9 606.4,567.1 606.4,567.6
	606.4,591.7 611.6,591.7 619.9,591.7 633.2,591.7 633.5,590.6 633.7,589.5 633.9,588.7 634,588 634.1,587.3 634.2,586.7 634.3,586
	634.4,585.3 634.5,584.5 634.5,583.7 634.6,582.9 634.6,581.8 634.5,580.4 634.5,579.9 634.5,579.3 634.4,578.7 634.3,577.9
	634.2,577.3 634.1,576.7 634,576.1 633.8,575.5 633.7,574.9 633.5,574.3 633.4,573.8 633.2,573.3 633.1,572.7 632.9,572.1
	632.7,571.5 632.6,571 632.3,570.4 632.1,569.8 631.9,569.3 631.7,568.8 631.4,568.2 631.1,567.6 630.4,566.1 629.3,564.3
	629.1,563.9 624.3,563.1 615.7,563.1 611.4,563.8 611.4,562.3 "/>
  <polygon class="st0" appId="g-1c29" points="481.8,478.6 479.5,481.6 483.6,484.8 485.9,481.8 "/>
  <polygon appId="g-3b13" class="st0" points="698,624.4 697.2,622.4 697.1,621.9 693.8,623 691.5,623.8 694.4,632.4 700.1,630.5 "/>
  <polygon class="st0" appId="g-1c09a" points="581.7,521.5 577.4,521.5 577.4,525 581.7,525 "/>
  <polygon class="st0" appId="g-3a31a" points="629.9,549.5 629.9,543.3 631.3,543.3 631.3,538.1 624.5,538.1 622.7,548.2 623.5,548.4 623.4,549.2
	628.9,550.2 629.1,549.3 "/>
  <polygon class="st0" appId="g-1b24" points="388.9,529.3 382.1,538 389.8,544 396.5,535.3 "/>
  <polygon class="st0" appId="g-3a08" points="608.5,531.1 579.1,531.1 579.1,537.2 579.1,544.3 606.3,544.3 606.3,542.9 607.3,542.9 608.5,537.2 "/>
  <polygon class="st0" appId="G-1F37" points="387.6,385.6 394.9,383.1 396.6,388 387.8,391 386.5,387.1 387.9,386.6 "/>
  <polygon class="st0" appId="g-3d08" points="541.7,477.3 549.8,477.3 549.8,469.9 541.7,469.9 "/>
  <polygon class="st0" appId="G-1F08E" points="373.1,342.5 376.8,352.9 384,350.4 380.4,340 "/>
  <polygon class="st0" appId="g-3d02" points="558,473.3 550.2,473.3 550.2,477.3 558,477.3 "/>
  <polygon class="st0" appId="G-1E32" points="628.6,492.5 628.6,490.3 628.3,490.3 628.3,489.2 623.1,489.2 623.1,492.7 628.3,492.7 628.3,492.5 "/>
  <polygon appId="g-3c34" class="st0" points="560.7,668.5 559.5,664.9 555.2,652.4 553.9,648.8 551,640.3 547.4,641.6 550.3,650.1 548.7,650.7
	549.6,653.5 551.3,652.9 556.2,666.9 554.5,667.5 555.4,670.3 557.1,669.7 560,678.2 563.7,677 "/>
  <polygon class="st0" appId="G-EL16" points="394.3,450.8 395.9,448.8 393.2,446.7 391.6,448.8 "/>
  <polygon class="st0" appId="g-1a32" points="362.4,511.5 367.4,504.9 361.8,500.5 356.7,507 "/>
  <polygon class="st0" appId="g-4j08a" points="639,522.4 639.2,522.4 639.3,522.4 644.5,522.4 644.9,522.4 644.9,483.7 639,483.7 "/>
  <polygon appId="g-1a29a" class="st0" points="349.8,513.2 344.3,520.2 339.6,516.5 345.1,509.5 "/>
  <polygon class="st0" appId="G-4G24" points="399,435.4 394.4,431.8 403.1,420.7 407.7,424.3 "/>
  <polygon class="st0" appId="G-1A19" points="350.6,540.7 357.7,546.3 352.8,552.6 352.3,552.2 350.1,554.9 350.7,555.3 350.5,555.6 343.3,550 "/>
  <polygon class="st0" appId="g-4g07" points="454.4,471 449.6,477.1 458.1,483.7 462.8,477.6 "/>
  <polygon class="st0" appId="g-1c50" points="490.8,484.6 486.7,481.4 484.4,484.3 488.5,487.5 "/>
  <polygon class="st0" appId="g-3c14a" points="549.3,653.6 548.3,650.8 544.9,652 545.8,654.8 "/>
  <polygon class="st0" appId="g-1c35a" points="565.9,498.4 562.9,498.4 562.9,499.3 560.9,499.3 560.9,504.8 565.9,504.8 565.9,501.3 565.9,499.2 "/>
  <polygon class="st0" appId="g-3c07a" points="596.1,630.1 597.3,633.5 600.1,632.6 598.9,629.1 "/>
  <polygon class="st0" appId="g-1c16c" points="476.7,451.2 473.8,455 466.4,449.2 469.3,445.4 475,449.9 476.3,448.3 477.7,449.4 476.4,450.9 "/>
  <polygon appId="g-3b15a" class="st0" points="711.4,613.7 707.3,613.7 707.3,618.1 711.4,618.1 "/>
  <polygon class="st0" appId="g-1c01c" points="491.9,493.3 483.9,503.8 499.6,503.8 499.6,497 496.7,497 "/>
  <polygon class="st0" appId="G-3A15" points="382.1,419.9 384,425.5 388.5,424 386.5,418.4 "/>
  <polygon class="st0" appId="g-1b34" points="382.5,516 389.4,521.4 396.6,512.1 388.8,506 382.4,514.2 383.3,514.9 "/>
  <polygon appId="g-3a09" class="st0" points="657.7,542.6 642.5,542.6 642.5,538 643.3,538 643.3,537.6 656.5,537.6 656.5,538 657.7,538 "/>
  <polygon class="st0" appId="g-1g02" points="536.3,429.7 522.4,429.7 522.4,435.6 521.4,435.6 518.8,435.6 518.4,435.6 518.4,448 522.4,448
	522.4,453.8 536.3,453.8 536.3,448 "/>
  <polygon class="st0" appId="g-4c08" points="402.1,559.9 405.8,562.8 408.7,559.1 405,556.2 "/>
  <polygon class="st0" appId="G-1F19" points="367.4,378.5 361,380.7 359.7,376.9 366.1,374.7 "/>
  <polygon appId="g-3c52" class="st0" points="583.9,650.2 583.8,649.7 579.2,651.3 580.8,656.2 586.4,654.3 584.9,649.8 "/>
  <polygon class="st0" appId="g-1e13" points="637.8,501.8 628.9,501.8 628.9,503.1 627.2,503.1 627.2,501.8 622.7,501.8 622.7,500.2 618.1,500.2
	618.1,501.8 612.6,501.8 612.6,525 627.2,525 627.2,523.5 628.9,523.5 628.9,525 638.7,525 638.7,505 637.8,505 "/>
  <polygon class="st0" appId="g-3c33" points="566.5,662.1 564.5,656.4 557.7,658.7 559.7,664.5 "/>
  <polygon class="st0" appId="g-el12" points="530.2,524.4 530.2,517.5 524.2,517.5 524.2,524.4 "/>
  <polygon appId="g-4j04" class="st0" points="527.9,462.2 516.5,462.2 516.5,469.7 516.5,477.1 518.1,477.1 526.8,477.1 527.9,477.1 527.9,475
	527.9,471.3 527.9,468.2 527.9,464.4 "/>
  <polygon class="st0" appId="g-1a36" points="357.9,492.5 355.7,495.3 366.3,503.6 368.5,500.8 "/>
  <polygon class="st0" appId="g-1a39a" points="352.6,493 355.7,495.3 357.9,492.5 354.9,490.1 "/>
  <polygon class="st0" appId="g-1a34" points="355.7,495.3 352.6,493 332.6,518.6 337.5,522.2 340.8,517.9 339.1,516.6 345,509 348.9,504.1 "/>
  <polygon class="st0" appId="g-4g13c" points="432.3,473.8 437.9,478.5 444.4,470.2 447.6,472.7 450.7,475.1 454.1,470.7 452,469.1 452.6,468.4
	448.7,465.3 447.3,467.1 443.1,463.8 437.4,471.2 435.5,469.7 "/>
  <polygon class="st0" appId="g-1a03" points="369.5,471.4 372.6,473.8 379,465.6 378.1,465 376.3,463.5 375.9,463.2 "/>
  <polygon class="st0" appId="g-4g08" points="445.6,481.6 450.5,475.4 448,473.5 443.1,479.6 "/>
  <polygon class="st0" appId="g-1e01" points="603.8,523.2 603.9,523.2 606.3,523.2 606.3,523.2 612.2,523.2 612.3,523.2 612.3,520.6 612.3,517.8
	612.3,517.7 612.3,515.2 612.3,515.2 612.3,512.7 612,512.7 612,512.7 609.5,512.7 609.4,512.7 606.8,512.7 606.8,512.7 606,512.7
	605.9,512.7 605.9,512.3 596.3,512.3 596.3,523.2 598.2,523.2 "/>
  <polygon appId="g-3c17" class="st0" points="576.7,645.4 569.9,647.7 571.9,653.5 578.7,651.1 "/>
  <polygon class="st0" appId="g-1c37e" points="557.6,516.9 550.7,516.9 550.7,525 557.6,525 "/>
  <polygon class="st0" appId="g-3c09a" points="578.2,636.2 579.4,639.7 582.2,638.7 581,635.3 "/>
  <polygon class="st0" appId="g-1c14a" points="470.2,452.7 466.5,457.3 469.6,459.7 468.7,460.8 475,465.8 475.9,464.6 477.7,466.1 481.3,461.4 "/>
  <polygon class="st0" appId="g-3b18" points="711.9,594 711.9,581.6 710.7,581.6 710.7,580.5 702.8,580.5 702.8,587.5 702.8,591.3 702.8,591.5
	702.8,594 "/>
  <polygon class="st0" appId="G-1b67" points="385.2,582.8 380.6,579.1 381.9,577.4 382.4,577.8 383.4,576.5 382.4,575.7 387.3,569.4 392.5,573.5 "/>
  <polygon class="st0" appId="g-3a40" points="568.9,516.9 568.9,525 572.4,525 572.4,516.9 "/>
  <polygon class="st0" appId="g-1b37c" points="394.8,549.6 398.5,544.9 393,540.5 389.2,545.2 "/>
  <polygon class="st0" appId="g-3a19a" points="629,525.4 629,526.2 627.1,526.2 627.1,525.4 608.4,525.4 608.5,531.1 608.5,537.2 634.5,537.2
	634.5,525.4 "/>
  <polygon class="st0" appId="g-1b36" points="396.3,526.7 397.1,525.7 398.2,526.6 397.4,527.6 400.6,530.1 407.8,520.9 396.9,512.4 389.7,521.6 "/>
  <polygon class="st0" appId="g-4c04" points="437.3,516.9 431.7,512.5 426.9,518.8 432.5,523.2 "/>
  <polygon class="st0" appId="g-1f21a" points="391.2,353.5 393.2,359.3 396.9,358.1 401.4,371.1 401.8,371 406.5,369.3 406.9,369.2 406.5,367.9
	408.4,367.3 402.3,349.6 "/>
  <polygon appId="g-3c53" class="st0" points="651.6,571.6 661.3,571.6 661.3,553.2 657.9,553.2 657.9,561.4 651.5,561.4 651.5,562.9 651.5,571.3
	651.6,571.3 "/>
  <path class="st0" appId="G-1F01A" d="M409.4,395.7l-1.3,0.5l-0.4-1.2l-0.1-0.3l-6.5,2.3l-3.4-8.9l-1.3,0.4l-9,3.1l-4.7,1.6l-0.7,0.2l5.8,16.9
	l1.5-0.5l1.9,5.4l11.1-4.3l5.4-6.9l4.2-1.4L409.4,395.7z M391.3,402l-0.5-1.6l1.6-0.5l0.5,1.6L391.3,402z"/>
  <polygon class="st0" appId="g-3c38a" points="571,673.5 573.8,672.5 572.6,669 569.8,670 "/>
  <polygon class="st0" appId="G-ST01" points="382.3,396.3 368.5,401.1 368.3,400.6 368.1,400.7 367.4,398.5 367.6,398.4 366.1,394.1 379.9,389.4 "/>
  <polygon class="st0" appId="G-4J10" points="442.6,413.8 442.6,413.9 442.7,414 444.4,415.3 444.5,415.4 444.5,415.3 446,416.4 447.6,414.3
	454.1,419.4 458.5,413.8 444,402.5 439.6,408 443.4,411 441.8,413.1 "/>
  <polygon class="st0" appId="g-1a39" points="354.9,490.1 357.9,492.5 370.2,476.9 367.1,474.5 "/>
  <polygon class="st0" appId="g-1a33" points="350.7,502.4 356.4,506.8 361.5,500.3 355.8,495.8 "/>
  <polygon class="st0" appId="G-4G23" points="399.4,435.7 401,437 394.2,445.7 389.9,442.4 389.4,438.2 394.4,431.8 399,435.4 "/>
  <polygon class="st0" appId="G-1A11" points="341.7,506.4 346.9,499.7 338.6,493.3 333.4,499.9 "/>
  <polygon class="st0" appId="g-4g06b" points="452.5,469 457.2,472.7 459.2,470.1 454.5,466.5 "/>
  <polygon class="st0" appId="g-1c43" points="525.2,501.2 526.5,501.2 526.5,495.1 521.3,495.1 521.3,497 508.4,497 508.4,509.1 525.2,509.1 "/>
  <polygon appId="g-3c31" class="st0" points="580.8,657.2 578.8,651.5 572,653.8 574,659.5 "/>
  <polygon class="st0" appId="g-1c37b" points="552.3,510.3 555.9,510.3 555.9,505.1 550.9,505.1 550.9,508.9 "/>
  <polygon class="st0" appId="g-3b30" points="448.4,484.2 442.8,491.3 447.3,494.8 452.9,487.7 "/>
  <polygon class="st0" appId="g-1c19" points="492.9,470 499.1,462.1 501.3,462.1 501.3,471.1 498.7,474.5 "/>
  <polygon appId="g-3b10" class="st0" points="668.8,639.6 670,639.1 667.5,632.1 659.4,634.9 661.5,641 663,640.5 663.2,640.8 662.3,641.1
	662.8,642.6 663.7,642.3 663.8,642.6 669.2,640.8 "/>
  <polygon class="st0" appId="g-1b59a" points="403.3,566.6 406.7,569.2 407.9,567.7 411.8,570.8 407.3,576.4 400.1,570.8 "/>
  <polygon class="st0" appId="g-3a43" points="464.3,496.7 459.7,502.6 462.7,504.9 461.8,506.1 468.3,511.3 469.3,510 470.3,510.8 472.3,508.3
	472.2,508.2 472.3,508.1 472.3,508.2 475,504.8 472.2,502.6 469.5,506 470.6,506.8 470.5,506.9 469.1,505.8 469.2,505.7
	469.5,505.9 471.7,503 471.5,502.9 471.9,502.4 470.4,501.3 467.8,504.6 467.9,504.7 467.8,504.8 467.3,504.4 467.4,504.3
	467.7,504.6 470,501.7 469.8,501.5 470.1,501 468.6,499.9 466,503.3 466.1,503.3 466,503.4 465.6,503.1 465.6,503 465.9,503.2
	468.2,500.3 468,500.1 468.4,499.7 466.9,498.5 464.2,501.9 464.3,501.9 464.3,502 463.9,501.7 466.5,498.4 "/>
  <polygon class="st0" appId="G-1B37e" points="420.9,537.9 415,533.4 411.9,537.3 413.3,538.3 412.3,539.5 416.9,543.1 "/>
  <polygon class="st0" appId="g-1b37e" points="425,532.8 418.7,528.6 415,533.4 420.9,537.9 "/>
  <polygon class="st0" points="419.1,528.2 418.7,528.6 425,532.8 "/>
  <polygon appId="g-3a10" class="st0" points="673.3,537.3 658.2,537.3 658.2,543.1 669.1,543.1 669.1,542.7 670.3,542.7 670.3,543 673.3,543 "/>
  <polygon class="st0" appId="g-1b28a" points="374.3,524.7 377.3,527.1 380.6,522.9 377.5,520.5 "/>
  <polygon class="st0" appId="g-4c09" points="401.9,560.2 409,565.7 406.6,568.8 399.5,563.2 "/>
  <polygon class="st0" appId="G-1F17" points="395.1,369.8 399.9,368.1 402.4,375.3 397.5,376.9 "/>
  <polygon appId="g-3c45" class="st0" points="625.2,646.7 628.2,655.3 635.4,652.8 632.4,644.2 "/>
  <polygon class="st0" appId="G-1F06" points="409.9,376.8 411.8,382.2 420.3,379.2 418.4,373.9 "/>
  <polygon class="st0" appId="g-3c40a" points="590.5,662.9 587.7,663.8 588.9,667.3 591.7,666.3 "/>
  <polygon class="st0" appId="G-4J14" points="412.6,409.4 411.7,409.7 409,413.1 415.2,417.9 416.5,416.2 414.4,410.1 413.1,410.6 "/>
  <polygon appId="g-4j02c" class="st0" points="639.8,443.9 639.8,450.8 645.7,450.8 645.7,443.9 "/>
  <polygon class="st0" appId="g-1b01a" points="380.4,466.3 387.4,457.5 375.5,448.3 374.6,449.4 372.4,452.3 369.5,456.1 369.1,456.6 375.3,461.5
	376.4,460 377.7,460.9 376.1,462.9 376.5,463.2 378.4,464.7 "/>
  <polygon class="st0" appId="g-1a31" points="348.9,504.1 345,509 357,518.4 362.1,511.7 354.6,505.8 353.7,507 351.5,505.2 352.3,504.1
	350.5,502.6 349.1,504.4 "/>
  <polygon class="st0" appId="G-4G20" points="403.4,452.7 407.9,456.2 411.8,451.2 407.4,447.7 "/>
  <polygon class="st0" appId="G-1A13" points="328.2,506.6 332.4,501.2 333.4,502 334.2,501 340.5,506 339.7,507 340.7,507.7 336.4,513.1 "/>
  <polygon class="st0" appId="g-4d11" points="650.4,473 670.7,473 670.7,463 669.2,463 669.2,462.6 651.4,462.6 651.5,463.3 650.1,463.3
	650.1,461.8 642.4,461.8 642.4,467.8 644.6,467.8 644.6,468.2 642.4,468.2 642.4,477.3 650,477.3 650,473 "/>
  <polygon class="st0" appId="g-1e01a" points="596.3,512.3 605.9,512.3 605.9,507.5 596.3,507.5 "/>
  <polygon class="st0" appId="g-3c13" points="538.5,645.6 541,652.9 549.9,649.9 548.9,647.1 548.9,646.8 548.5,645.8 548.5,645.7 547.1,641.7
	539.1,644.4 539.4,645.3 "/>
  <polygon appId="g-1c37c" class="st0" points="550.9,504.8 555.9,504.8 555.9,499.3 550.9,499.3 "/>
  <polygon appId="g-3b23n" class="st0" points="665.2,603.2 665.9,605.3 669,604.2 669,600.7 650.5,600.6 650.5,602.6 651.3,602.6 651.3,605
	657.5,602.8 658.5,605.5 "/>
  <polygon class="st0" appId="g-1c23" points="482.8,494.8 478.3,491.3 470.7,501.2 475.1,504.6 "/>
  <polygon appId="g-3b19a" class="st0" points="693.3,588 697.8,588 697.8,583.1 693.3,583.1 "/>
  <polygon class="st0" appId="g-1c01b" points="499.6,497 499.6,503.8 483.9,503.8 479.4,509.6 506.5,509.6 506.5,509.2 507.3,509.1 507.3,503.3
	506.4,503.3 506.4,501.3 507.3,501.3 507.3,497 "/>
  <polygon class="st0" appId="g-3a32a" points="634.4,556.3 634.5,556.3 634.5,556.2 634.4,552.7 633.6,552.5 633.7,551.7 628.1,550.7 628,551.6
	627.2,551.4 625.6,560.4 634.4,560.4 "/>
  <polygon appArea="41" *ngIf="isAreasRoute" xmlns="http://www.w3.org/2000/svg" id="Zone_x5F_A" fill="#00FFA3" points="499.5,429.8 499.4,438.1 499.3,438.1 499.3,455 500.3,455.8 499.9,552.3 510.9,552.3   510.9,546.2 511,546.2 511,546.1 540.9,546.1 540.9,544.4 564.1,544.4 606.4,544.4 606.4,543 608.1,543 607.9,544.4 608.8,544.6   608.6,545.8 610.6,546.2 610.4,547 610.6,547 610.1,549.8 611,550 609.5,558.4 608.6,558.4 608.2,560.7 624.9,560.7 624.9,560.5   634.9,560.5 634.9,561.2 672.6,561.2 672.6,543.1 673.4,543.1 673.4,543 680.8,543 680.8,524.8 681.9,524.8 681.9,487.5   683.6,487.5 683.6,487.2 684.3,487.2 684.3,487.5 700,487.5 700,487.2 700.8,487.2 700.8,487.5 710.2,487.5 710.2,487.2   711.2,487.2 711.2,475.8 710.2,475.8 710.2,475.1 710.7,475.1 710.7,462.9 710.2,462.9 710.2,462.5 700.8,462.5 700.8,462.9   700,462.9 700,462.6 684.3,462.6 684.3,463 683.6,463 683.6,462.5 671,462.5 671,462.9 669.3,462.9 669.3,462.5 651.3,462.5   651.4,463.2 650.2,463.2 650.2,461.7 645.8,461.7 645.8,443.8 639.7,443.8 639.7,454.3 571.7,454.3 571.7,424.4 561,424.4   561,424.6 536.4,424.6 536.4,422.1 522.3,422.1 522.3,429.8 "/>
  <polygon *ngIf="isAreasRoute" fill="#FF7F00" appArea="45" xmlns="http://www.w3.org/2000/svg" id="Zone_x5F_E_2_" class="st1" points="672.6,561.3 672.6,580.4 688,580.4 688,581.7 689.2,581.7 689.2,580.4 693.1,580.4   693.1,583 698.1,583 698.1,580.4 710.8,580.4 710.8,581.5 712,581.5 712,626.6 700.4,630.4 700.2,630.6 689.6,634.1 689.1,632.6   687.6,633.2 688.1,634.7 678,638.2 677.9,637.8 675.8,638.6 675.8,638.5 670.6,640.2 670.2,639.1 668.9,639.7 669.3,640.9   661.7,643.4 663.1,647.7 646.4,653.4 645.1,649.6 628.1,655.4 627.7,654.1 624.3,655.2 624.8,656.6 617.7,659 610.3,661.5   609.9,660.2 606.6,661.3 607,662.7 592.4,667.7 592,666.3 588.7,667.5 589.2,668.9 574.6,673.8 574.2,672.5 570.9,673.7 571.3,675   564,677.4 563.9,677 559.8,678.4 559.8,678.5 550.7,681.5 549.9,679 548.3,674.5 548.3,674.4 547.9,673.1 547.8,673 546.8,670   546.7,669.9 544.6,663.4 542.1,656.3 542,656.2 541,653.2 540.9,653 538.4,645.5 539.3,645.2 539,644.3 547.2,641.6 551.2,640.1   551.1,639.7 559.2,636.9 559.7,638.3 561.1,637.8 560.7,636.4 568.8,633.6 568.8,633.6 576.2,631.1 576.6,632.4 579.9,631.3   579.5,629.9 586.7,627.5 586.7,627.5 594.1,624.9 594.6,626.3 597.8,625.1 597.4,623.7 604.6,621.3 604.6,621.3 612.9,618.5   613.3,619.8 614.8,619.3 614.4,617.9 622.6,615.2 622.7,615.1 625.2,614.2 621.6,604.2 608.6,604.2 608.6,604 605.8,604   605.8,603.9 585.9,604.1 585.9,602.7 585.5,602.7 585.5,600.6 587.5,600.6 587.5,596.9 585.9,596.9 585.9,593.7 585.4,593.7   585.6,582 585.8,582 585.8,580.1 585.6,580.1 585.4,562.7 588.4,562.7 588.4,562 592,562 592,562.7 600.8,562.7 600.8,562   604.4,562 604.4,562.7 605.8,562.7 609.5,562.7 610.5,562.4 611.5,562.2 611.5,563.7 615.5,563 624.3,563 628.4,562.5 628.4,561.1   631.6,561.1 631.6,561.3 632.6,561.3 632.6,561.1 634.7,561.1 634.7,561.3 650.1,561.3 650.1,562.8 651.4,562.8 651.4,561.3 "/>
  <polygon fill="#AE00FF" *ngIf="isAreasRoute" appArea="44" xmlns="http://www.w3.org/2000/svg" id="Zone_x5F_D" class="st2" points="367.7,432.3 378.8,441.2 380,442.5 385.1,446.5 385.4,446.8 399.2,457.6 408.2,464.7   415.5,470.3 423.6,476.7 424.1,476.2 426,477.6 425.5,478.1 439.5,489.1 442.4,491.4 447.5,495.2 449.9,497.1 450.3,497.5   454.7,501 458.6,504.1 461.4,506.1 466.2,510 466,510.2 469.2,512.7 464.8,518.4 459,525.7 457.7,524.7 456.7,526.1 457.9,527.1   455.2,530.5 455.1,530.7 447.2,540.9 446,540.1 445.1,541.3 446.1,542.1 437.7,552.8 437.7,552.9 435.4,555.8 434.4,555 433.6,556   434.6,556.8 426.1,567.7 425.9,567.9 423.6,570.8 422.7,570.1 422.1,570.9 422.9,571.6 419.3,576.3 419.2,576.4 414.6,582.2   414.6,582.5 412.1,585.5 411.1,584.7 410.1,585.9 411.2,586.8 405.5,594 404.5,593.2 403.7,594.3 404.7,595.1 403.3,596.9   395.4,590.8 396.8,589 397.3,589.4 398.2,588.2 397,587.3 396.1,588.5 396.6,588.9 395.2,590.6 390.2,586.8 390.2,586.8   385.2,582.9 385.2,582.9 380.5,579.1 381.9,577.3 382.4,577.7 383.3,576.5 382.1,575.6 381.2,576.8 381.7,577.2 380.3,579   372.7,573.1 372.7,573.1 366.1,567.9 368.4,564.9 367.7,564.4 367.7,564.4 367.2,564 364.9,566.9 357.9,561.5 357.9,561.5   350.5,555.8 350.9,555.5 351.4,555.9 353.5,553.2 352.8,552.7 352.8,552.7 352.3,552.3 350.2,554.9 350.8,555.3 350.5,555.7   343,549.9 343,549.9 335.7,544.2 336,543.8 336.4,544.1 338.5,541.5 337.9,541.1 337.9,541.2 337.5,540.8 335.4,543.4 335.9,543.7   335.5,544 328.1,538.2 328.1,538.2 320.7,532.5 321.1,532.2 321.6,532.6 323.7,529.9 323.1,529.5 323.1,529.5 322.5,529   320.4,531.6 320.9,532 320.6,532.4 314.3,527.4 312.8,529.2 311.5,528.2 313,526.3 306.6,521.3 316.9,508.1 317.2,508.3 317.4,508   319.5,509.6 319.2,509.8 322.6,512.4 322.8,512.7 323.3,513.1 324.3,511.7 324.2,511.6 328.1,506.6 328.1,506.6 332.4,501.1   333.4,501.9 334.3,500.7 333.3,499.9 338.7,493 338.7,493 344,486.2 346.2,487.9 346.7,487.2 345.6,486.3 346,485.8 344.9,485   350.2,478.3 350.2,478.3 355.7,471.3 357.8,473 358.3,472.3 357.2,471.4 357.6,470.9 356.6,470.1 360.7,464.8 360.7,464.8   367.3,456.4 369.5,458.1 370,457.4 369,456.6 369.3,456.2 367.4,454.6 365.7,456.7 355.1,448.4 362,439.5 362,439.4 "/>
  <polygon fill="#1F00FF" appArea="43" *ngIf="isAreasRoute" xmlns="http://www.w3.org/2000/svg" class="st3" points="439.8,394.2 425.1,399.3 424.7,398.4 422,390.6 430.2,387.8 429.6,386 429.1,386.1 429.1,385.9    429.5,385.8 426.6,377.3 426.4,377.2 425.3,373.7 423.9,374.2 423.1,371.9 424.4,371.5 421.6,363.1 421.5,362.9 417.9,352.3    416.6,352.8 414,345.6 415.4,345.1 415.3,344.5 413.8,340.1 413.7,340 410.6,330.7 409.1,331.3 408.7,330.1 402.5,332.3    394.8,334.9 389.3,336.7 389.7,337.9 388.3,338.4 388,337.3 373.1,342.4 372.5,342.5 372.9,343.6 371.6,344.2 371.2,343.1    365.5,345 365.5,345 357.7,347.6 357.7,347.7 351.8,349.7 352.1,350.8 350.8,351.3 353.9,360.5 354,360.5 355.7,365.7 356,365.6    358.4,372.9 358.3,373.1 360.9,380.8 361,381 363.1,387.3 363.2,387.4 365.3,393.7 365.8,393.6 367.5,398.3 367.3,398.4 368,400.8    368.2,400.7 368.4,401.2 368.6,401.2 370.9,408.1 369.7,408.5 369.6,408.2 364.4,410 370.7,428.6 367.7,432.3 378.8,441.1    397.1,417.7 405.4,424.1 415.1,411.9 414,408.6 420,406.5 423.2,415.7 426.1,417.9 432.9,409.3 434.2,407.6 435.9,405.3    441.1,398.2  "/>
  <polygon fill="#FF0000" *ngIf="isAreasRoute" appArea="42" xmlns="http://www.w3.org/2000/svg" class="st4" points="499.8,454.4 499.2,453.9 499.2,438.1 489.9,438.1 489.7,438.1 458.8,413.9 458.6,413.8 444,402.4    443.8,402.2 442,400.7 441.3,398.6 426.3,418.3 423.2,415.8 420.1,406.7 414.3,408.6 415.4,411.7 405.5,424.4 397.2,417.9    393.3,422.9 394.5,423.8 393.6,425 392.4,424.1 380.4,439.5 386.7,444.4 388.9,441.7 394.2,445.8 394.3,445.7 397.5,448.2    394.7,451.9 398.9,455.1 397.9,456.4 408,464.2 409,463 416.8,469.1 415.8,470.3 423.5,476.3 424,475.7 426.3,477.4 425.8,478.1    428.4,480.1 429.3,478.9 434.6,483.1 433.7,484.3 447.3,494.9 448.3,493.7 452.6,497.1 451.6,498.3 458.5,503.7 459.6,502.6    462.6,504.9 461.7,506.1 468.3,511.4 469.3,510.1 470.6,511.2 447.1,541.4 447.5,541.7 444,546 488.4,546 488.4,552.3 499.9,552.3    500.2,454.7  "/>

  <text class="text a" id="one" x="550.85" y="480.6" font-weight="bold" font-size="22.99px">A</text>
  <text class="text d" x="380" y="530"  font-weight="bold" font-size="22.99px">D</text>
  <text class="text b" x="435" y="460"  font-weight="bold" font-size="22.99px">B</text>
  <text class="text c" x="385" y="385"  font-weight="bold" font-size="22.99px">C</text>
  <text class="text e" x="600" y="650"  font-weight="bold" font-size="22.99px">E</text>
</svg>
