<svg version="1.1" id="Слой_1" xmlns="http://www.w3.org/2000/svg" xmlns:xlink="http://www.w3.org/1999/xlink" x="0px" y="0px"
     viewBox="300 300 500 400" style="enable-background:new 0 0 1024 1024;" xml:space="preserve">
  <g>
	<path class="st0" appId="2-me10" d="M627.2,485.3v7.9h-12.5v-8.4h12.1l0-0.4H613v-0.2h-7.3v1.2h-1.7v-1.7h0.9v-6.1h0h-26.2v-15.2h-18.4v0.9h-1.7
		v-0.9h-21.8v15.2h-6.4v6.1h7.3v1.7h-1.2v16h1.2v1.7h-1.2v15.6h-6.1v5.8h1.9v-2.7h9v2.7h13.7l0-2.7h9v2.7h13.7v-2.7h9.1l0.1,2.7
		h13.5l0-2.7h9l0,2.7h13.8l0-2.7h4.6V503h-0.9v-1.4h0.9v-4h0.5v-12.3H627.2z M560.4,503.1h-1.7V502h-7.6l0-10.8h4.1h3.9v10.2h1.2
		V503.1z M560.4,485.4h-1h-0.7v-1.7h1.7V485.4z M583.1,483.7v1.7h-1.7v-1.7H583.1z M581.4,503.1v-1.7h1.7v1.7H581.4z M605.7,503.1
		h-1.7v-1.7h1.7V503.1z M623.2,500.5h-8.3v-0.6h8.3v0.1V500.5z"/>
    <polygon class="st0" appId="2-1d03" points="379.9,388.8 372.6,367.6 359.5,372.1 359.8,372.7 358.3,373.2 365.4,393.8 	"/>
    <polygon appId="2-1d12" class="st0" points="353.7,359.8 357.8,371.6 359.2,371.1 359.4,371.8 368.8,368.5 365.9,360.2 362.2,361.5 360.8,357.4
		"/>

    <rect x="367.6" y="359.3" appId="2-1d14" transform="matrix(0.9455 -0.3256 0.3256 0.9455 -98.2791 140.061)" class="st0" width="3.6" height="8.8"/>
    <polygon class="st0" appId="2-1d44" points="361,356.9 368.1,354.5 365,345.4 357.8,347.9 358.9,350.9 	"/>
    <polygon class="st0" appId="2-1d39" points="353.6,359.5 360.7,357 358.6,351 357.5,348 351.9,349.9 352.4,351.3 350.9,351.8 	"/>
    <polygon class="st0" appId="2-1d06" points="377.1,348.9 374.7,342.1 372.7,342.8 373.2,344.1 371.5,344.6 371,343.4 365.3,345.3 367.6,352.1 	"/>

    <rect x="372.3" y="350" appId="2-1d31" transform="matrix(0.9455 -0.3255 0.3255 0.9455 -94.3424 141.3575)" class="st0" width="5.9" height="5.3"/>

    <rect x="374.1" y="355.3" appId="2-1d29" transform="matrix(0.9455 -0.3255 0.3255 0.9455 -95.9418 142.2397)" class="st0" width="5.9" height="5.1"/>
    <polygon appId="2-1d05" class="st0" points="367.8,352.5 368.5,354.7 361.1,357.3 362.4,361.1 369.8,358.5 379.8,387.4 383.3,386.1 376.2,365.4
		382.4,363.3 381.1,359.5 374.9,361.6 371.3,351.2 	"/>
    <polygon class="st0" appId="2-1d22" points="380.2,364.4 380.6,365.5 378.9,366.1 378.5,365 376.6,365.6 378.3,370.4 383.8,368.5 382.2,363.7 	"/>
    <polygon appId="2-1d21a" class="st0" points="381.3,378.8 385.4,377.4 384.4,374.4 384.1,374.5 384,374.4 384.3,374.3 382.6,369.4 378.6,370.7
		380.3,375.7 382,375.1 382,375.2 380.3,375.8 	"/>
    <polygon class="st0" appId="2-1d21b" points="388.1,385.2 385.5,377.5 381.4,378.9 384,386.6 	"/>
    <polygon class="st0" appId="2-1d21" points="382.8,369.3 388.3,385.2 402.6,380.2 397.1,364.3 	"/>
    <polygon class="st0" appId="2-1d26" points="382.7,363.5 384.4,368.4 396.7,364.1 395.1,359.3 	"/>
    <polygon appId="2-1d18" class="st0" points="394,355.2 388.4,357.1 381.3,359.5 382.5,363.2 394.9,359 396.7,358.4 397.2,359.7 395.9,360.1
		402.8,380.2 404.1,379.8 406.7,387.1 410.8,385.7 410.2,384.1 412.4,383.4 412.4,383.5 410.4,384.2 413.6,393.5 429.6,388
		428,383.2 428.3,383.1 425.2,374 423.8,374.5 423.3,373.2 424.7,372.7 417.8,352.6 416.4,353 416,351.7 417.3,351.3 410.4,331.1
		409,331.6 408.6,330.3 389.4,337 389.8,338.2 388.4,338.7 	"/>

    <rect x="380.1" y="352.7" appId="2-1d24a" transform="matrix(0.9455 -0.3257 0.3257 0.9455 -94.8649 144.3708)" class="st0" width="7.5" height="5.7"/>

    <rect x="387.3" y="350.5" appId="2-1d24b" transform="matrix(0.9455 -0.3256 0.3256 0.9455 -93.7864 146.3033)" class="st0" width="5.8" height="5.7"/>
    <polygon class="st0" appId="2-1d24" points="379.3,353.9 391.9,349.6 387.8,337.5 380.2,340.1 380.2,340.3 375.2,342 	"/>
    <polygon class="st0" appId="2-1d02" points="370.9,409.5 375.1,421.9 375.2,422.3 376.5,421.8 376.7,422.4 393.8,416.5 391.9,411.1 398.3,409
		397.2,406 390.9,408.1 383.5,386.5 380,387.7 385.4,403.3 371.9,408 372.2,408.7 370.8,409.2 	"/>
    <polygon class="st0" appId="2-1d02b" points="384.5,403 382.5,397.1 375.8,399.4 377.8,405.3 	"/>

    <rect x="369.6" y="400.5" appId="2-1d02a" transform="matrix(0.9453 -0.3262 0.3262 0.9453 -111.2546 143.81)" class="st0" width="7.1" height="6.3"/>
    <polygon class="st0" appId="2-st01" points="382.3,396.5 381.2,393.4 380.3,393.7 379,389.9 366.2,394.3 368.6,401.2 	"/>
    <polygon class="st0" appId="2-1d07" points="389.6,393.9 387.2,386.9 386.3,387.3 386.1,386.4 384,387.1 386.7,394.9 	"/>

    <rect x="387.7" y="394.1" appId="2-1d11" transform="matrix(0.9455 -0.3256 0.3256 0.9455 -108.034 148.8461)" class="st0" width="6" height="6.3"/>

    <rect x="390.1" y="401.4" appId="2-1d09" transform="matrix(0.9455 -0.3255 0.3255 0.9455 -110.1576 149.9751)" class="st0" width="6" height="5.4"/>
    <polygon class="st0" appId="2-1d15" points="397.7,415.3 399.8,414.6 398,409.4 392.4,411.3 394.1,416.4 396,415.7 395.8,415.1 397.4,414.5 	"/>
    <polygon class="st0" appId="2-1d13" points="412.6,405.9 413,405.8 411,400.3 397,405.1 400.2,414.3 409.5,411.1 408.9,409.3 409,409.2 409.7,411
		412.8,409.9 412.6,409.3 413.7,408.9 	"/>
    <polygon class="st0" appId="2-1d16" points="403,381.6 402.6,380.4 394.9,383.1 397.8,391.4 392.9,393.1 397,405 411,400.1 409.5,395.8 408,396.3
		407.6,394.9 409,394.4 404.4,381.1 	"/>
    <polygon appId="2-1d32" class="st0" points="398.3,415.6 389.2,418.7 389.3,419.1 391.3,424.7 393.1,422.9 394.4,423.9 393.5,425 392.6,424.3
		392,425.1 396.2,428.4 400.7,426.8 400.5,426.2 401.8,425.7 	"/>

    <rect x="401.1" y="417.7" appId="2-1d50" transform="matrix(0.9455 -0.3256 0.3256 0.9455 -115.2281 154.5975)" class="st0" width="6.4" height="7.6"/>
    <polygon class="st0" appId="2-1d36" points="414.3,425.3 418,420.5 416,418.9 414.3,414.1 406.5,416.8 409.4,425.3 	"/>
    <polygon appId="2-1d38" class="st0" points="443.3,431.9 422.5,415.7 419.7,407.4 418.5,407.7 417.4,404.5 412.8,406 413.8,409 414,408.9
		414.4,410 398.8,415.4 399.9,418.5 414.6,413.5 416.4,418.6 439.6,436.6 	"/>
    <polygon class="st0" appId="2-1d38a" points="406.7,387.2 413.1,405.8 417.2,404.4 416.4,402 423.8,399.4 422.8,396.5 415.4,399.1 410.8,385.8 	"/>

    <rect x="414.8" y="393" appId="2-1d23" transform="matrix(0.9452 -0.3265 0.3265 0.9452 -106.2914 157.7688)" class="st0" width="4" height="5.1"/>

    <rect x="424.1" y="389.6" appId="2-1d34a" transform="matrix(0.9455 -0.3256 0.3256 0.9455 -104.8607 160.6653)" class="st0" width="7.1" height="8"/>
    <rect x="419" y="391.7" appId="2-1d27" transform="matrix(0.9455 -0.3256 0.3256 0.9455 -105.456 158.3577)" class="st0" width="3" height="5.1"/>

    <rect x="421.9" y="399.9" appId="2-1d08" transform="matrix(0.9455 -0.3255 0.3255 0.9455 -107.838 159.9011)" class="st0" width="4.2" height="4.7"/>

    <rect x="417.6" y="401.3" appId="2-1d10" transform="matrix(0.9452 -0.3266 0.3266 0.9452 -108.8366 159.2231)" class="st0" width="4.2" height="4.7"/>
    <polygon class="st0" appId="2-1d34" points="427.6,404.8 420.3,407.3 423.1,415.3 426.3,417.8 435.7,405.7 432.7,396.8 425.6,399.2 	"/>
    <polygon class="st0" appId="2-1D33A" points="435.3,407.2 431.4,412.2 437.7,417.1 442.1,411.6 435.7,406.6 	"/>
    <polygon class="st0" appId="2-1d33b" points="431.2,412.5 426.8,418.1 433.1,423 437.5,417.4 	"/>
    <polygon appId="2-1d33" class="st0" points="437.9,426.9 447,415.3 442.6,411.9 433.5,423.5 	"/>
    <polygon class="st0" appId="2-st02" points="441.2,429.3 441.7,428.5 444.8,430.9 453.2,420.2 447.4,415.7 438.5,427.2 	"/>

    <rect appId="2-1d35" x="418" y="428.9" transform="matrix(0.6157 -0.788 0.788 0.6157 -179.162 501.8691)" class="st0" width="13.8" height="11.5"/>
    <polygon appId="2-1d42" class="st0" points="499.8,483.7 530,483.7 530,477.6 527.7,477.6 527.7,475.4 516.1,475.4 516.1,477.6 502.9,477.6
		502.9,448 502.9,447.9 499.4,447.9 499.4,456.5 497.7,456.5 497.7,457.4 485.7,472.8 488.4,474.9 463.1,507.3 466.5,509.9
		491.8,477.5 	"/>
    <rect appId="2-st04a" x="499.2" y="437.6" class="st0" width="7.7" height="9.9"/>
    <rect appId="2-st04" x="499.3" y="430" class="st0" width="18.1" height="7"/>
    <polygon class="st0" appId="2-st04b" points="507.5,437.9 507.5,447.4 516.9,447.3 516.9,437.9 	"/>
    <polygon appId="2-1d96" class="st0" points="503.4,477.1 506.9,477.1 506.9,463.3 506.6,463.3 506.6,461.9 517.6,461.9 517.6,447.9 503.4,447.9
		"/>
    <rect appId="2-1d94a" x="507.5" y="462.5" class="st0" width="8" height="14.5"/>
    <rect appId="2-1d94" x="516.1" y="462.4" class="st0" width="11.6" height="12.6"/>
    <rect appId="2-1d94b" x="528.3" y="462.5" class="st0" width="8" height="7.1"/>
    <rect appId="2-1d94c" x="528.3" y="470" class="st0" width="8" height="7"/>
    <polygon appId="2-1d97" class="st0" points="530.5,518.2 536.1,518.2 536.1,484.2 508,484.2 508,485.4 506.4,485.4 506.4,484.2 505.6,484.2
		505.6,494.8 506.8,494.8 506.8,501.4 508,501.4 508,503.1 506.8,503.1 506.8,509.2 513.8,509.2 513.8,524.6 523,524.6 523,509.2
		530.5,509.2 	"/>
    <polygon appId="2-1d40" class="st0" points="491.9,478.2 481.3,491.8 486.9,496.1 499.2,496.1 499.2,494.8 505.2,494.8 505.2,484.2 499.6,484.2
		494.4,480.1 493.8,480.9 492.7,480 493.3,479.3 	"/>
    <rect appId="2-1d97a" x="507" y="509.8" class="st0" width="6.3" height="7.1"/>
    <rect appId="2-1d97b" x="523.6" y="509.8" class="st0" width="6.3" height="7.1"/>
    <rect appId="2-1d97c" x="523.6" y="517.3" class="st0" width="6.3" height="7"/>
    <rect appId="2-1d97d" x="507" y="517.3" class="st0" width="6.3" height="7"/>
    <polygon appId="2-1d98" class="st0" points="605,477.1 605,462.4 583.1,462.4 583.1,463.3 581.4,463.3 581.4,462.4 579.3,462.4 579.2,477.1
		605,477.1 	"/>
    <rect appId="2-st05" x="605.6" y="462.5" class="st0" width="7.3" height="14.5"/>
    <polygon class="st0" appId="2-st05a" points="613,482.3 613,479.9 613,477.6 605.4,477.6 605.4,483.7 613,483.7 	"/>
    <polygon class="st0" appId="2-1d99" points="627.8,463.3 626.8,463.3 626.8,462.4 613.5,462.4 613.5,484 627.8,483.8 	"/>
    <polygon class="st0" appId="2-st03" points="323.3,512 320.9,510.1 320.3,510.8 317,508.2 308.3,519.3 314.1,523.8 	"/>
    <path appId="2-1d101a" class="st0" d="M410.5,585.4l-6.5-5.1l-0.2,0.3l-0.9-0.7l0.2-0.3l-13.9-10.9l-0.2,0.3l-0.9-0.7l0.2-0.3L374.3,557l-0.2,0.3
		l-0.9-0.7l0.2-0.3l-13.9-10.9l-0.2,0.3l-0.9-0.7l0.2-0.3l-14-10.9l-0.2,0.3l-0.9-0.7l0.2-0.3l-13.9-10.9l-0.2,0.3l-0.9-0.7l0.7-0.9
		l0.3,0.2l2.5-3.2l-7.7-6l-10.5,13.3l44.6,34.9l1.2-1.5l6.9,5.4l-1.1,1.4l38.7,30.1l1-1.2l-0.9-0.7l0.7-0.9l0.9,0.7l5.4-6.9
		l-0.9-0.7L410.5,585.4z M321.9,530.1l0.7-0.9l0.9,0.7l-0.7,0.9L321.9,530.1z M336.8,541.7l0.7-0.9l0.9,0.7l-0.7,0.9L336.8,541.7z
		 M351.7,553.3l0.7-0.9l0.9,0.7l-0.7,0.9L351.7,553.3z M367.5,565.7l-0.9-0.7l0.5-0.6l0.2-0.3l0.9,0.7L367.5,565.7z M382.4,577.3
		l-0.9-0.7l0.7-0.9l0.6,0.5l0.3,0.2L382.4,577.3z M396.3,588.2l0.7-0.9l0.9,0.7l-0.7,0.9L396.3,588.2z"/>
    <polygon class="st0" appId="2-1d101" points="457.5,525.2 451,520.1 450.3,521 450,520.8 439.1,534.8 439.4,535 438.7,535.9 438.4,535.7
		427.5,549.6 427.8,549.9 427,550.8 426.8,550.6 415.9,564.5 416.1,564.7 415.4,565.7 415.1,565.5 404.2,579.4 404.5,579.6
		404.3,579.9 410.8,585 411,584.7 412,585.4 422.9,571.5 421.9,570.8 422.7,569.8 423.6,570.6 434.5,556.6 433.6,555.9 434.3,554.9
		435.2,555.7 446.1,541.7 445.2,541 445.9,540.1 446.8,540.8 457.7,526.8 456.8,526.1 	"/>
    <polygon class="st0" appId="2-1d41" points="483.5,494.1 482.9,494.8 481.8,494 482.4,493.2 481,492.1 466.9,510.2 468.3,511.3 469.1,510.1
		470.1,510.9 471.5,509.2 472.3,509.9 471.7,510.5 471.8,511 505.3,511 505.3,509.2 506.4,509.2 506.4,496.6 486.7,496.6 	"/>
    <polygon appId="2-1d104" class="st0" points="371.5,528.6 370.9,529.4 371.5,529.9 370.8,530.8 370.2,530.3 367.1,534.2 374.8,540.2 379.2,534.6
		"/>
    <polygon appId="2-1d105" class="st0" points="363.2,539.2 364.3,540.1 364.7,539.5 366.2,540.7 365.8,541.2 370.9,545.2 374.6,540.5 366.9,534.5
		"/>
    <path appId="2-me20" class="st0" d="M329.8,521.3l0.3,0.2l-0.2,0.3l13.9,10.9l0.2-0.3l0.9,0.7l-0.2,0.3l13.9,10.9l0.2-0.3l0.9,0.7l-0.2,0.3
		l13.9,10.9l0.2-0.3l0.9,0.7l-0.2,0.3l13.9,10.9l0.2-0.3l-2.1-1.6l1.5-1.9l2.2,1.7l-1.5,1.9l0.8,0.7l-0.2,0.3l13.9,10.9l0.2-0.3
		l0.3,0.2l10.9-13.9l-0.3-0.2l0.7-0.9l0.3,0.2l10.9-13.9l-0.3-0.2l0.7-0.9l0.3,0.2l10.9-13.9l-0.3-0.2l0.7-0.9l0.3,0.2l10.9-13.9
		l-0.3-0.2l0.7-0.9l-13.9-10.9l-0.7,0.9l-0.8-0.7l-1.5,1.9l-2.1-1.7l1.5-1.9l2.1,1.6l0.7-0.9l-13.9-10.9l-0.7,0.9l-0.9-0.7l0.3-0.4
		l-1.9-1.5l0.4-0.6l-7.3-5.7l-12.4,15.8l-8-6.3l12.4-15.8l-11.6-9.1l-0.7,0.9l-0.9-0.7l0.7-0.9L376.6,462l-0.7,0.9l-0.9-0.7l0.7-0.9
		l-6.5-5.1l-0.7,0.9l2,1.5l-1.5,1.9l-2.1-1.7l1.5-1.9l-0.7-0.6l-10.9,13.9l0.9,0.7l-0.7,0.9l2,1.5l-1.5,1.9l-2.2-1.7l1.5-1.9
		l-0.7-0.6L345,485.2l0.9,0.7l-0.7,0.9l-0.9-0.7l-10.9,13.9l0.7,0.6l1.5-1.9l2.1,1.7l-1.5,1.9l-2-1.5l-0.7,0.9l-0.9-0.7l-8.1,10.4
		l8.1,6.3L329.8,521.3z M366.6,503.6l0.7-0.9l0.9,0.7l-0.7,0.9L366.6,503.6z M385.7,542.4l-0.6-0.4l-7.2,9.2l-0.5-0.4l-14.7-11.5
		l8.7-11.2l2.7,2.1l5.6,4.4l-1.3,1.7l6.6,5.1l0.5-0.7l0.9,0.7L385.7,542.4z M381.5,515.2l0.7-0.9l0.9,0.7l-0.7,0.9L381.5,515.2z
		 M400.5,554l-0.9-0.7l0.7-0.9l0.9,0.7L400.5,554z M411.3,538.5l-1.5,1.9l-2.2-1.7l1.5-1.9L411.3,538.5l0.6-1l-2.1-1.6l1.5-1.9
		l2.2,1.7l-1.5,1.9l0.8,0.7l-0.7,0.9L411.3,538.5z M423.6,522.6l0.9,0.7l-0.7,0.9l-0.9-0.7L423.6,522.6z M408.7,511l0.9,0.7
		l-0.7,0.9l-0.9-0.7L408.7,511z M397.1,525.9l0.9,0.7l-0.7,0.9l-0.9-0.7L397.1,525.9z M379,487.8l0.9,0.7l-0.7,0.9h0l-0.9-0.7
		L379,487.8z M364.1,476.1l0.9,0.7l-0.7,0.9l-0.9-0.7L364.1,476.1z M355.7,517.5l0.9,0.7l-0.7,0.9l-0.9-0.7L355.7,517.5z
		 M352.2,491.4l0.3-0.4l0.9,0.7l-0.7,0.9l-0.9-0.7L352.2,491.4z M341.8,506.6l-0.7,0.9l-0.9-0.7l0.7-0.9L341.8,506.6z"/>
    <polygon appId="2-1d102" class="st0" points="403.4,482.9 391.3,498.4 393.3,500 393.8,499.4 394.8,500.1 394.3,500.7 398.7,504.2 410.9,488.7
		406.4,485.2 405.7,486.2 404.7,485.4 405.5,484.5 	"/>
    <path class="st0" appId="2-me30" d="M485.4,473.1l-0.3,0.4l-8.9-6.9l-0.3,0.4l-1.1-0.9l0.3-0.4l-1.6-1.2l4.9-6.3l-6.5-5.1l4.2-5.4l6.5,5.1l4.6-5.9
		L472.2,435l-0.6,0.7l-1.1-0.9l0.6-0.7l-17.4-13.6l-9.4,12l-0.5-0.4l-3.9,4.9l1.1,0.9l-0.9,1.1l-1.1-0.9l0.6-0.7L434,433l-8.8,11.2
		l-9.8-7.6l8.8-11.2l-1.3-1l-0.6,0.7l-1.1-0.9l0.6-0.7l-3.4-2.7l-3.9,5h-5.4l-0.4-1.2l-12.5,4.3l-4.4-3.5l-11.8,15l1,0.8l-0.9,1.1
		l16.7,13.1l0.9-1.1l1.1,0.9l-0.9,1.1l16.7,13.1l0.9-1.1l1.1,0.9l-0.9,1.1l16.7,13.1l0.9-1.1l1.1,0.9l-0.9,1.1l16.7,13.1l0.9-1.1
		l1.1,0.9l-0.9,1.1l11.3,8.8l25-32L485.4,473.1z M411.5,439l-1.1-0.9l0.9-1.1l1.1,0.9L411.5,439z M429.3,453l-1.1-0.9l0.9-1.1
		l1.1,0.9L429.3,453z M447.3,465.2l0.7,0.6l-0.9,1.1l-1.1-0.9l0.6-0.7l-6.2-4.8l5.2-6.6l6.6,5.1L447.3,465.2z M458.1,453l-0.8-0.6
		l-0.3-0.2l0.9-1.1l1.1,0.9L458.1,453z M465,480.9l-1.1-0.9l0.9-1.1l1.1,0.9L465,480.9z"/>
</g>
  <text class="text a" id="one" x="570.85" y="500.6" font-weight="bold" font-size="22.99px">A</text>
  <text class="text d" x="380" y="530"  font-weight="bold" font-size="22.99px">D</text>
  <text class="text b" x="435" y="460"  font-weight="bold" font-size="22.99px">B</text>
  <text class="text c" x="385" y="385"  font-weight="bold" font-size="22.99px">C</text>
  <polygon xmlns="http://www.w3.org/2000/svg" id="Zone_x5F_C" *ngIf="isAreasRoute" fill="#1F00FF" appArea="8" class="" points="390.1,417.7 376.7,422.3 376.5,421.6 375.1,422.1 370.6,409 372,408.5 371.8,407.8   385.2,403.2 382.7,396.3 368.4,401.2 365.8,393.5 365.3,393.6 358.2,372.7 359.5,372.3 359.1,371.1 357.7,371.6 350.8,351.2   352.1,350.8 351.7,349.7 408.9,330.1 409.2,331.1 410.5,330.6 429.4,385.7 421.3,388.5 425.1,399.3 433.2,396.5 436.1,405.1   434.2,407.6 434.8,408.1 432.4,411.1 431.7,410.7 426.1,417.9 423.4,415.8 420.1,406.4 414.1,408.5 415.2,411.7 405.4,424.1   397.1,417.7 391.5,424.9 389.1,418.6 390.3,418.2 "/>
  <polygon *ngIf="isAreasRoute" fill="#00FFA3" appArea="6" xmlns="http://www.w3.org/2000/svg" id="Zone_x5F_A_00000091013446355377483270000001228514495431631269_" class="st1" points="626.3,461.9 614,461.9   614,462.3 605.3,462.3 605.3,461.7 537.1,461.9 537.3,477.5 528,477.5 528,462.2 517.9,462.2 517.9,447.8 507.3,447.8 507.3,437   517.8,437 517.8,429.8 499.5,429.8 499.5,437.4 499.3,437.4 499.3,455 500.3,455.8 500.1,510.1 503.2,510.1 503.2,510.2   506.6,510.2 506.6,509.4 514.1,509.4 514.1,525.2 554.8,525.1 559.1,525.1 626.3,525.1 "/>
  <polygon  *ngIf="isAreasRoute" fill="#FF0000" appArea="7" xmlns="http://www.w3.org/2000/svg" id="Zone_x5F_B" class="st2" points="380.1,442.1 385.4,446.2 388.9,441.6 397.5,448.3 396.6,449.6 395.9,449 394.5,450.8   395.2,451.3 393.9,452.9 414.8,469.2 415.6,468.2 416.6,469 417.4,468 422.4,472 420.9,474 432.7,483.2 433.5,482.2 434.8,483.1   434,484.2 450.6,497.2 451.4,496.2 453.1,497.6 452.4,498.6 463.3,507.2 465.1,505 470,508.8 470.6,508.1 472,509.1 471.1,510.1   500,510.1 500.2,456.6 497.9,456.6 497.9,454.8 498.1,454.5 491.2,449 490.3,450.1 488.5,448.7 489.3,447.6 472.6,434.5   471.8,435.7 470.6,434.7 471.4,433.6 454,420 453.7,420.3 447.1,415.2 447.2,415.1 442.7,411.6 433.3,423.7 423.2,415.8   420.1,406.7 414.3,408.6 415.4,411.7 405.5,424.4 397.2,417.9 393.4,422.9 394.5,423.8 393.5,425 392.8,424.4 380.1,440.6   380.8,441.2 "/>
  <polygon  *ngIf="isAreasRoute" fill="#AE00FF" appArea="9" xmlns="http://www.w3.org/2000/svg" id="Zone_x5F_D" class="st3" points="379.2,441.5 380.1,442.2 380.1,442.1 383.1,444.5 383,444.7 387,447.8 387.5,447.1   389.3,448.5 388.8,449.2 389.6,449.8 389.6,449.8 415.9,470.3 417.4,468.3 422.2,472.1 420.6,474.1 463.4,507.5 465.1,505.2   469.9,509 467.5,511.7 468.9,513 465.1,518 465,518 459,526 458.3,525.5 446.8,540.2 435.2,555.1 423.5,570 411.9,584.9   410.8,586.4 411.2,586.8 405.5,594 404.5,593.2 403.1,595 396.7,590 398.1,588.2 394.8,585.7 393.4,587.4 388.8,583.8 388.9,583.6   382,578.1 383.2,576.5 382.1,575.8 380.8,577.5 366.9,566.6 368.3,564.9 367.2,564.1 365.9,565.8 322.2,531.6 323.5,529.9   322.5,529.1 321.1,530.9 313.3,524.9 313.1,525.1 307.2,520.5 316.8,508.2 317,508.3 317.6,507.6 323.6,512.3 332.4,501   333.5,501.8 334.2,500.8 333.2,500 344.1,486.1 345.1,486.9 345.9,485.9 344.8,485.1 355.7,471.2 356.8,472 357.5,471 356.5,470.2   367.4,456.3 368.4,457.1 369.2,456.1 368.3,455.4 "/>
</svg>
