<svg version="1.1" xmlns="http://www.w3.org/2000/svg" xmlns:xlink="http://www.w3.org/1999/xlink" x="0px" y="0px"
     viewBox="300 300 500 400" width="100%" style="enable-background:new 0 0 1024 1024;" xml:space="preserve">
 <desc>Bah_Collisions_all_v7.blend, (Blender 2.83.0)</desc>
  <polygon class="st0" appId="6-2d90c" points="580.5,503.4 580.5,509.3 606.2,509.3 606.3,503.4 "/>
  <polygon class="st0" appId="6-2d67a" points="569,468 573.4,468 573.4,462.1 569,462.1 "/>
  <polygon class="st0" appId="6-2d60a" points="573.4,518.9 569,518.9 569,524.7 573.4,524.7 "/>
  <polygon class="st0" appId="6-2d16" points="573.1,483.8 567.2,483.8 567.2,492.9 573.1,492.9 "/>
  <polygon class="st0" appId="6-2d52" points="512.9,484.1 512.9,496.7 520.9,496.7 520.9,484.1 "/>
  <polygon class="st0" appId="6-2d01a" points="512.8,497.1 512.8,503.1 523.5,503.2 523.5,497.1 "/>
  <polygon class="st0" appId="6-2d92" points="557.1,477.6 557.1,483.5 581.1,483.5 581.1,477.6 "/>
  <polygon class="st0" appId="6-2d90" points="553.8,501.6 553.8,509.3 554.6,509.3 554.6,511.2 559,511.2 559,509.3 580.5,509.3 580.5,503.4
	558.9,503.4 558.9,501.6 "/>
  <polygon class="st0" appId="6-2d60c" points="573.4,509.3 569,509.3 569,512.3 573.4,512.3 "/>
  <polygon class="st0" appId="6-2d51" points="508.3,484.1 508.3,485.4 506.9,485.4 506.9,496.7 512.5,496.7 512.5,484.1 "/>
  <polygon class="st0" appId="6-2d18" points="588.6,497.6 582.3,497.6 582.3,501.1 583.7,501.1 583.7,503 588.6,503 "/>
  <polygon class="st0" appId="6-2d06" points="581.6,483.8 573.4,483.8 573.4,492.9 581.6,492.9 "/>
  <polygon class="st0" appId="6-2d93a" points="581.1,477.6 581.1,483.5 605.9,483.5 605.9,477.6 "/>
  <polygon class="st0" appId="6-2d69" points="546,477.2 546,474.2 545.7,474.2 545.7,472.3 546,472.3 546,461.8 537.4,461.8 537.4,477.2 "/>
  <polygon class="st0" appId="6-2d66a" points="573.4,468.3 569,468.3 569,474.1 573.4,474.1 "/>
  <polygon class="st0" appId="6-2d63" points="605.9,509.6 596.5,509.6 596.5,512.5 596.9,512.5 596.9,514.4 596.5,514.4 596.5,524.8 604.4,524.8
	604.4,523.3 605.9,523.3 "/>
  <polygon class="st0" appId="6-2d11" points="544.5,503 551.3,503 551.3,495.2 544.5,495.2 "/>
  <polygon class="st0" appId="6-2d21" points="548.4,515.4 554.2,515.4 554.2,509.6 548.4,509.6 "/>
  <polygon class="st0" appId="6-2d92b" points="606.5,485.5 615,485.5 615,477.7 614.4,477.7 614.4,477.6 606.5,477.6 "/>
  <polygon class="st0" appId="6-2d04" points="558.9,483.5 551.7,483.5 551.7,489.8 552.7,489.8 552.7,491.4 559.2,491.4 559.2,485.6 558.9,485.6 "/>
  <polygon class="st0" appId="6-2D90A" points="535.8,503.4 535.8,509.3 553.8,509.3 553.8,501.6 551.7,501.6 551.7,503.4 "/>
  <polygon class="st0" appId="6-2d65a" points="591.8,468 596.2,468 596.2,462.1 591.8,462.1 "/>
  <polygon class="st0" appId="6-2d26" points="499.4,437.6 499.4,475 507.1,475 507.1,437.6 "/>
  <polygon class="st0" appId="6-2d15" points="559.6,501.3 561,501.3 561,503 573.1,503 573.1,493.3 559.6,493.3 "/>
  <polygon class="st0" appId="6-2d05b" points="598.8,489.1 598.8,483.5 589.1,483.5 589.1,486.7 590.4,486.7 590.4,489.1 "/>
  <path class="st0" appId="6-2d01" d="M479,501.8l-7.1,9.1v0l32.4,0v-9.2L479,501.8z M476.1,509.4l0,0.1l-0.1,0.1l-0.1,0.1l-0.1,0.1l-0.1,0.1l-0.1,0
	l-0.1,0l-0.1,0l-0.1,0l-0.1-0.1l-0.1-0.1l-0.1-0.1l-0.1-0.1l0-0.1l0-0.1l0-0.1l0-0.1l0-0.1l0-0.1l0.1-0.1l0.1,0l0.1,0l0.1-0.1l0.1,0
	l0.1,0l0.1,0l0.1,0l0.1,0.1l0.1,0.1l0.1,0.1l0.1,0.1l0,0.1l0,0.1L476.1,509.4z M485.4,509.4l0,0.1l-0.1,0.1l-0.1,0.1l-0.1,0.1
	l-0.1,0.1l-0.1,0l-0.1,0l-0.1,0l-0.1,0l-0.1-0.1l-0.1-0.1l-0.1-0.1l-0.1-0.1l0-0.1l0-0.1l0-0.1l0-0.1l0.1-0.1l0.1-0.1l0.1-0.1
	l0.1-0.1l0.1,0l0.1,0l0.1,0l0.1,0l0.1,0.1l0.1,0.1l0.1,0.1l0.1,0.1l0,0.1l0,0.1L485.4,509.4z"/>
  <polygon class="st0" appId="6-2d67" points="568.7,477.2 568.7,474.2 568.3,474.2 568.3,472.3 568.7,472.3 568.7,461.8 560.9,461.8 560.9,463.5
	560.1,463.5 560.1,477.2 "/>
  <polygon appId="6-2d62" class="st0" points="591.4,524.8 591.4,514.3 591.1,514.3 591.1,512.4 591.4,512.4 591.4,509.6 582.7,509.6 582.7,523.3
	583.6,523.3 583.6,524.8 "/>
  <polygon class="st0" appId="6-st04" points="499.5,429.9 499.5,436.9 517.7,436.9 517.7,429.9 "/>
  <polygon class="st0" appId="6-2d27" points="531.9,483.7 531.9,477.7 507.1,477.7 507.1,475.3 499.4,475.3 499.4,476.4 498.3,477.9 497.9,477.6
	496.1,479.9 497,480.5 497.1,480.5 497.2,480.4 497.3,480.4 497.5,480.4 497.6,480.4 497.7,480.4 497.8,480.5 498,480.6 498,480.7
	498.1,480.8 498.1,480.9 498.2,481.1 498.1,481.2 498.1,481.4 498.1,481.4 502,484.4 502.5,483.7 "/>
  <polygon class="st0" appId="6-2d12" points="537.9,509.6 530.8,509.6 530.9,515.4 537.9,515.4 "/>
  <polygon class="st0" appId="6-2d07" points="566.8,483.8 561,483.8 561,485.6 559.6,485.6 559.6,492.9 566.8,492.9 "/>
  <polygon class="st0" appId="6-2d91" points="538.3,497 536.4,497 536.4,501.2 538.3,501.2 538.3,503.4 544.2,503.4 544.2,483.7 538.3,483.7 "/>
  <polygon class="st0" appId="6-2d64" points="605.3,461.8 596.5,461.8 596.5,472.4 596.9,472.4 596.9,474.3 596.5,474.3 596.5,477.2 605.3,477.2 "/>
  <polygon class="st0" appId="6-2d61a" points="569,518.5 573.4,518.5 573.4,512.7 569,512.7 "/>
  <polygon class="st0" appId="6-2d24" points="527.9,477.3 527.9,462.3 516.5,462.3 516.5,477.3 "/>
  <polygon class="st0" appId="6-2d14" points="537.9,485.6 530.1,485.6 530.1,496.7 537.9,496.7 "/>
  <polygon class="st0" appId="6-2d05a" points="598.3,489.3 590.4,489.3 589,489.3 589,497.5 598.3,497.5 "/>
  <polygon class="st0" appId="6-st05" points="613.3,462.4 606,462.4 606,477 609.9,477 609.9,477.2 613,477.2 613,477 613.3,477 "/>
  <polygon class="st0" appId="6-2d03" points="530.1,502.9 535.6,502.9 535.6,497.7 530.1,497.7 "/>
  <polygon class="st0" appId="6-2d92b" points="532.2,483.7 544.2,483.7 544.2,483.5 551.7,483.5 557.1,483.5 557.1,477.6 532.2,477.6 "/>
  <polygon class="st0" appId="6-2d68a" points="550.8,468.3 546.4,468.3 546.4,474.1 550.8,474.1 "/>
  <polygon class="st0" appId="6-2d68" points="551.1,461.8 551.1,472.4 551.5,472.4 551.5,474.3 551.1,474.3 551.1,477.2 559.7,477.2 559.7,463.5
	559,463.5 559,461.8 "/>
  <polygon class="st0" appId="6-2d23" points="523.2,509.4 514.2,509.4 514.2,524.9 523.2,524.9 "/>
  <polygon class="st0" appId="6-2d63a" points="591.8,512.7 591.8,518.5 596.2,518.5 596.2,512.7 "/>
  <polygon class="st0" appId="6-2d05" points="582.3,493.3 582.3,497.1 588.6,497.1 588.6,493.3 "/>
  <polygon class="st0" appId="6-2d65" points="591.4,477.2 591.4,474.2 591.1,474.2 591.1,472.3 591.4,472.3 591.4,461.8 583.5,461.8 583.5,463.3
	582.8,463.3 582.8,477.2 "/>
  <polygon class="st0" appId="6-2d69a" points="546.4,462.1 546.4,468 550.8,468 550.8,462.1 "/>
  <polygon class="st0" appId="6-2d62a" points="596.2,518.9 591.8,518.9 591.8,524.7 596.2,524.7 "/>
  <polygon class="st0" appId="6-2d50" points="500.1,496.7 506.6,496.7 506.6,484.1 502.7,484.1 500.1,487.4 "/>
  <polygon class="st0" appId="6-2d19a" points="529.8,492.7 521.3,492.7 521.3,496.7 529.8,496.7 "/>
  <polygon class="st0" appId="6-2d10" points="544.5,494.8 551.3,494.8 551.3,483.8 544.5,483.8 "/>
  <polygon class="st0" appId="6-2d64a" points="591.8,468.3 591.8,474.1 596.2,474.1 596.2,468.3 "/>
  <polygon class="st0" appId="6-2d66c" points="569,477.6 573.4,477.6 573.4,474.5 569,474.5 "/>
  <polygon appId="6-2d61" class="st0" points="582.4,509.6 573.8,509.6 573.8,512.5 574.1,512.5 574.1,514.4 573.8,514.4 573.8,524.8 581.7,524.9
	581.7,523.3 582.4,523.3 "/>
  <polygon class="st0" appId="6-2d20a" points="559,524.7 559,518.9 554.6,518.9 554.6,524.7 "/>
  <polygon class="st0" appId="6-2d17" points="573.4,493.3 573.4,503 581.6,503 581.6,499.5 580.4,499.5 580.4,499.1 581.9,499.1 581.9,493.3 "/>
  <polygon class="st0" appId="6-2d02" points="523.9,502.9 529.8,502.9 529.8,497.7 523.9,497.7 "/>
  <polygon class="st0" appId="6-2d93" points="606.1,487.5 605.7,487.5 605.7,485.5 604.4,485.5 604.4,483.6 605.9,483.6 605.9,483.5 598.8,483.5
	598.8,489.1 598.8,494.5 606.2,494.5 "/>
  <path class="st0" appId="6-2d01b" d="M523.5,503.2l-10.7-0.1v-6l-13.1,0v-9.8l2-2.6l-3.8-3l-0.1,0l-0.1,0.1l-0.1,0l-0.1,0l-0.1,0l-0.1,0l-0.1-0.1
	l-0.1-0.1l-0.1-0.1l-0.1-0.1l0-0.1l0-0.1l0-0.1l0-0.1l0,0l-0.8-0.7L479,501.8l25.2-0.1v9.2l1.3,0v-2h25.3v0.4h4.6l0-6.1L523.5,503.2
	z M484.2,499l0,0.1l-0.1,0.1l-0.1,0.1l-0.1,0.1l-0.1,0.1l-0.1,0l-0.1,0l-0.1,0l-0.1,0l-0.1-0.1l-0.1-0.1l-0.1-0.1l-0.1-0.1l0-0.1
	l0-0.1l0-0.1l0-0.1l0.1-0.1l0.1-0.1l0.1-0.1l0.1-0.1l0.1,0l0.1,0l0.1,0l0.1,0l0.1,0.1l0.1,0.1l0.1,0.1l0.1,0.1l0,0.1l0,0.1
	L484.2,499z M508.2,502.5l0,0.2l-0.1,0.1l-0.1,0.1l-0.1,0.1l-0.1,0.1l-0.2,0l-0.2,0l-0.2,0l-0.2,0L507,503l-0.1-0.1l-0.1-0.1
	l-0.1-0.1l0-0.2l0-0.2l0-0.2l0-0.2l0.1-0.1l0.1-0.1l0.1-0.1l0.1-0.1l0.2,0l0.2,0l0.2,0l0.2,0l0.1,0.1l0.1,0.1l0.1,0.1l0.1,0.1l0,0.2
	l0,0.2L508.2,502.5z"/>
  <polygon class="st0" appId="6-2d64c" points="591.8,477.6 596.2,477.6 596.2,474.5 591.8,474.5 "/>
  <polygon class="st0" appId="6-2d62c" points="596.2,509.3 591.8,509.3 591.8,512.3 596.1,512.3 "/>
  <polygon class="st0" appId="6-2d120" points="517.8,447.9 507.4,447.9 507.4,459.1 508.2,459.1 508.2,461.8 517.8,461.7 "/>
  <polygon class="st0" appId="6-2d60" points="568.7,524.8 568.7,514.3 568.3,514.3 568.3,512.4 568.7,512.4 568.7,509.6 559.3,509.6 559.3,523.3
	560.9,523.3 560.9,524.8 "/>
  <polygon class="st0" appId="6-2d05c" points="589.1,503.4 598.8,503.4 598.8,497.7 590.4,497.7 590.4,500.1 589.1,500.1 "/>
  <polygon class="st0" appId="6-2d93a" points="598.8,497.7 598.8,503.4 606.3,503.4 606.3,503.2 604.4,503.2 604.4,501.4 605.7,501.4 605.7,499.6
	606.2,499.6 606.2,494.5 598.8,494.5 "/>
  <polygon class="st0" appId="6-2d66" points="582.4,477.2 582.4,463.3 581.8,463.3 581.8,461.8 573.7,461.8 573.7,472.4 574.1,472.4 574.1,474.3
	573.7,474.3 573.7,477.2 "/>
  <polygon class="st0" appId="6-2d68c" points="546.4,477.6 550.8,477.6 550.8,474.5 546.4,474.5 "/>
  <polygon class="st0" appId="6-2d60b" points="559,511.5 554.6,511.5 554.6,518.5 559,518.5 "/>
  <polygon class="st0" appId="6-2d19" points="529.8,484.1 521.3,484.1 521.3,492.4 529.8,492.4 "/>
  <polygon class="st0" appId="6-2d20" points="554.2,524.9 554.2,515.8 548.1,515.8 548.1,509.6 538.3,509.6 538.3,512.5 538.6,512.5 538.6,514.4
	538.3,514.4 538.3,515.8 530.9,515.8 530.9,524.9 536.3,524.9 536.3,523.3 538.2,523.3 538.2,524.9 "/>
  <polygon class="st0" appId="6-2d08" points="588.6,483.8 583.7,483.8 583.7,485.6 581.9,485.6 581.9,492.9 588.6,492.9 "/>
  <polygon *ngIf="isAreasRoute" appArea="26" xmlns="http://www.w3.org/2000/svg" id="Zone_x5F_A" fill="#00FFA3" points="499.4,429.8 499.4,437.5 499.3,437.5 499.3,476.4 498.3,477.8 497.9,477.5 496,479.9   496.2,480.1 471.7,511 505.6,511 505.6,509 514.1,509 514.1,525 523.3,525 530.8,525 536.4,525 536.4,523.4 538.1,523.4 538.1,525   554.3,525 554.3,524.8 559.1,524.8 559.1,523.4 560.8,523.4 560.8,524.9 568.8,524.9 568.8,524.8 573.7,524.8 573.7,524.9   581.8,525 581.8,523.4 583.5,523.4 583.5,524.9 591.5,524.9 591.5,524.8 596.4,524.8 596.4,524.9 601.8,524.9 604.5,524.9   604.5,523.4 606,523.4 606,509.4 606.3,509.4 606.4,503.1 604.5,503.1 604.5,501.5 605.8,501.5 605.8,499.7 606.3,499.7   606.2,487.4 605.8,487.4 605.8,485.6 615.1,485.6 615.1,477.6 614.5,477.6 614.5,477.5 613.1,477.5 613.1,477.1 613.4,477.1   613.4,462.3 605.4,462.3 605.4,461.7 598.1,461.7 597.6,461.7 596.4,461.7 596.4,462 591.5,462 591.5,461.9 591.5,461.7   589.7,461.7 583.4,461.7 583.4,463.2 581.9,463.2 581.9,461.7 575.4,461.7 574.5,461.7 573.6,461.7 573.6,462 568.8,462   568.8,461.9 568.8,461.7 567,461.7 560.8,461.7 560.8,463.4 559.1,463.4 559.1,461.7 552.8,461.7 551,461.7 551,461.9 551,462   546.1,462 546.1,461.9 546.1,461.7 544.3,461.7 537.9,461.7 537.3,461.7 537.3,461.9 537.3,477.5 532.1,477.5 532.1,477.6   528,477.6 528,462.2 517.9,462.2 517.9,447.8 507.2,447.8 507.2,437 517.8,437 517.8,429.8 "/>
  <text class="text a" id="one" x="532.85" y="500.6" font-weight="bold" font-size="22.99px">A</text>
</svg>
