<svg version="1.1" id="Слой_1" xmlns="http://www.w3.org/2000/svg" xmlns:xlink="http://www.w3.org/1999/xlink" x="0px" y="0px"
     viewBox="300 300 500 400" width="100%" height="auto" xml:space="preserve">
  <desc>Bah_Collisions_all_v7.blend, (Blender 2.83.0)</desc>
  <polygon class="st0" appId="5-2c91c" points="614.7,483.5 606.4,483.5 606.4,503.4 612.3,503.4 612.3,503 612.3,498.6 612.3,486 614.7,486 "/>
  <polygon class="st0" points="429.4,453.4 436,458.5 437,457.1 430.5,452 "/>
  <polygon class="st0" appId="5-2c87" points="484.3,443.9 482.9,442.7 473.5,454.7 480.3,460 488.9,449.1 488.4,448.7 489.2,447.6 488.2,446.8
	488.3,446.7 484.5,443.7 484.4,443.8 "/>
  <polygon class="st0" appId="5-2c81a" points="405.2,461.5 408.6,464.2 412.2,459.6 408.8,456.9 "/>
  <polygon class="st0" appId="5-2c85a" points="453.8,435.4 457.3,438.1 460.9,433.5 457.4,430.8 "/>
  <polygon class="st0" appId="5-2c72a" points="573.5,468.3 569.1,468.3 569.1,474.2 573.5,474.2 "/>
  <polygon class="st0" appId="5-2c72c" points="569.1,477.6 573.5,477.6 573.5,474.5 569.1,474.5 "/>
  <polygon class="st0" appId="5-2c68" points="598.2,461.9 598.2,462 596.5,462 596.5,477.2 605.3,477.2 605.3,461.9 "/>
  <polygon class="st0" appId="5-2c62a" points="573.4,518.5 573.4,512.7 569.1,512.7 569.1,518.5 "/>
  <polygon class="st0" appId="5-2c47" points="482.8,481.2 489.6,486.5 493.8,481.1 492.5,480 493.5,478.7 488.1,474.5 "/>
  <polygon class="st0" appId="5-2c16" points="604.3,485.5 604.3,483.9 594.9,483.9 594.9,492.6 606,492.6 606,485.5 "/>
  <polygon class="st0" appId="5-2c23a" points="521.3,496.7 529.9,496.7 529.9,492.8 521.3,492.7 "/>
  <polygon class="st0" appId="5-2c121" points="621,498.6 615.7,498.6 615.7,503 621,503 "/>
  <polygon class="st0" appId="5-2c06" points="594.5,490.7 583.7,490.6 583.7,503 594.5,503 "/>
  <polygon class="st0" appId="5-2c02" points="529.9,497.1 524,497.1 524,502.9 529.9,502.9 "/>
  <polygon class="st0" appId="5-2c92b" points="562.3,483.5 562.3,477.6 550.7,477.6 546.4,477.6 532.6,477.6 532.6,482.2 532.6,483.5 538.3,483.5
	544.2,483.5 "/>
  <polygon class="st0" appId="5-2c91b" points="583,487.5 583,485.6 581.6,485.6 581.6,483.5 577.3,483.5 577.3,488.8 577.3,498.1 577.3,503.4
	581.5,503.4 581.5,501.2 583,501.2 583,499.4 583.3,499.4 583.3,487.5 "/>
  <polygon class="st0" appId="5-2c91g" points="590.1,509.3 590.1,503.4 581.5,503.4 577.3,503.4 566.2,503.4 562.3,503.4 562.3,509.3 569.1,509.3
	573.4,509.3 "/>
  <polygon class="st0" appId="5-2c83a" points="440.1,416.8 443.5,419.5 447.1,414.9 443.7,412.2 "/>
  <polygon class="st0" appId="5-2c82a" points="411.7,439.1 416.3,442.7 419,439.2 414.4,435.6 "/>
  <polygon class="st0" appId="5-2c81b" points="417.9,452.3 414.4,449.6 409,456.6 412.4,459.3 "/>
  <polygon class="st0" appId="5-2c66" points="628.8,486.8 628.7,486.8 628.7,486.5 612.7,486.5 612.7,498.3 628.7,498.3 628.7,497.8 628.8,497.8 "/>
  <polygon class="st0" appId="5-2c71" points="560.1,463.5 560.1,477.2 568.7,477.2 568.7,470.4 568.7,462 566.9,462 566.9,461.8 561.9,461.8
	561.9,463.5 "/>
  <polygon class="st0" appId="5-2c62c" points="573.4,509.3 569.1,509.3 569.1,512.4 573.4,512.4 "/>
  <polygon class="st0" appId="5-2c52" points="512.9,496.7 520.9,496.7 520.9,483.9 512.9,483.9 "/>
  <polygon class="st0" appId="5-2c34" points="466.1,468.8 471.4,473 475.9,467.2 474.5,466.1 475.6,464.7 471.7,461.7 "/>
  <polygon class="st0" appId="5-2c30" points="431.1,432.6 432.6,430.7 423.6,423.6 422.1,425.6 "/>
  <polygon class="st0" appId="5-2c18" points="594.9,493 594.9,500.5 606,500.5 606,493 "/>
  <polygon class="st0" appId="5-2c122" points="416.6,442.9 421.1,446.5 423.8,443 419.2,439.4 "/>
  <polygon class="st0" appId="5-2c96a" points="436,458.5 429.4,453.4 427.8,452.1 423.1,448.5 421.3,447 418.7,445 413.4,440.8 409.7,445.4
	427.1,459 430.5,461.7 433.9,464.4 437.6,459.8 "/>
  <polygon class="st0" appId="5-2c99" points="551.7,490.8 559.2,490.8 559.2,485.6 558.9,485.6 558.9,483.9 551.7,483.9 "/>
  <polygon class="st0" appId="5-2c87a" points="478.7,447.5 475.3,444.8 471.7,449.4 475.2,452.1 "/>
  <polygon class="st0" appId="5-2c77c" points="451.6,482.2 453.5,479.7 450.1,477 448.2,479.5 "/>
  <polygon class="st0" appId="5-2c85" points="469.5,434.1 470.5,432.8 466.6,429.7 466.5,429.9 465,428.7 455.7,440.7 462.5,446 470.9,435.2 "/>
  <polygon class="st0" appId="5-2c72" points="552.9,461.8 552.9,462 551.1,462 551.1,468.9 551.1,477.2 559.7,477.2 559.7,463.5 557.9,463.5
	557.9,461.8 "/>
  <polygon class="st0" appId="5-2c66a" points="627.2,498.7 621.4,498.7 621.4,503 627.2,503 "/>
  <polygon class="st0" appId="5-2c65c" points="624.5,503.4 624.5,507.5 624.5,509.3 628.4,509.3 628.4,508.1 628.6,508.1 628.6,503.4 "/>
  <polygon class="st0" appId="5-2c63" points="596.9,509.6 585.5,509.6 585.5,524.8 587.1,524.8 587.1,525.1 591.8,525.1 591.8,524.8 596.9,524.8
	596.9,518 "/>
  <polygon class="st0" appId="5-2c47a" points="489.4,486.8 482.6,481.5 480.2,484.6 487,489.9 "/>
  <polygon class="st0" appId="5-2c123" points="500.4,470.7 507.1,470.7 507.1,463.4 506.7,463.4 506.7,461.8 507.1,461.8 507.1,461.1 507.9,461.1
	507.9,459.5 507.1,459.5 507.1,459 507.1,458.5 500.4,458.5 500.4,465.4 "/>
  <polygon class="st0" appId="5-2c124" points="627.2,486 627.2,483.5 625,483.5 615.7,483.5 615.7,486 "/>
  <polygon class="st0" appId="5-2c05c" points="577.3,488.8 577.3,483.5 566.2,483.5 566.2,488.8 "/>
  <polygon class="st0" appId="5-2c08" points="565.9,493 565.9,483.9 560.9,483.9 560.9,485.6 559.2,485.6 559.6,485.6 559.6,493 "/>
  <polygon class="st0" appId="5-2c98b" points="473,454.8 469.6,452.1 455.2,440.8 453.9,439.8 450.2,444.4 459.6,451.7 462.9,454.3 471.6,461.2
	474.3,463.3 477.9,458.6 "/>
  <polygon class="st0" appId="5-2c92" points="590.1,483.5 590.1,477.6 573.5,477.6 569.1,477.6 562.3,477.6 562.3,483.5 566.2,483.5 577.3,483.5
	581.6,483.5 584.6,483.5 587,483.5 "/>
  <polygon class="st0" appId="5-2c91d" points="612.3,503.4 606.4,503.4 604.3,503.4 594.9,503.4 590.1,503.4 590.1,509.3 597.2,509.3 601.6,509.3
	624.2,509.3 624.2,507.5 624.5,507.5 624.5,503.4 "/>
  <polygon class="st0" appId="5-2c83b" points="434.4,424.1 437.9,426.8 443.3,419.8 439.9,417.1 "/>
  <polygon class="st0" appId="5-2c80a" points="428.4,464.4 424.9,461.7 421.4,466.3 424.8,469 "/>
  <polygon class="st0" appId="5-2c77" points="460.4,485.5 453.6,480.2 449.4,485.6 444.2,492.2 445.7,493.3 445.5,493.5 449.4,496.5 449.6,496.2
	449.7,496.3 450.5,495.2 451.9,496.4 "/>
  <polygon class="st0" appId="5-2c66c" points="612.3,498.6 612.3,503 615.3,503 615.3,498.6 "/>
  <polygon class="st0" appId="5-2c73a" points="546.4,468 550.8,468 550.8,462.1 546.4,462.1 "/>
  <polygon class="st0" appId="5-2c65a" points="613.6,524.7 618,524.7 618,518.9 613.6,518.9 "/>
  <polygon class="st0" appId="5-2c60" points="559.7,509.6 551.1,509.6 551.1,516.5 551.1,524.8 552.9,524.8 552.9,525.1 557.8,525.1 557.8,524.7
	557.9,524.7 557.9,523.4 559.7,523.4 "/>
  <polygon class="st0" appId="5-2c43" points="451.8,446.1 444.9,440.7 438.7,448.6 445.6,454 "/>
  <polygon class="st0" appId="5-2c42" points="465.4,481.1 471.1,485.5 476.1,479.1 470.5,474.7 "/>
  <polygon class="st0" appId="5-2c15" points="498.4,462.4 500.1,462.4 500.1,455.9 496.9,454.1 493.4,458.5 "/>
  <polygon class="st0" appId="5-2c04" points="594.9,503.4 604.3,503.4 604.3,500.9 594.9,500.9 "/>
  <polygon class="st0" appId="5-2c96b" points="453.5,479.7 458.6,483.7 462.2,479 459.4,476.8 450.6,470 447.3,467.4 445.7,466.1 446.7,464.7
	441.1,460.3 440,461.7 437.6,459.8 433.9,464.4 450.1,477 "/>
  <polygon class="st0" appId="5-2c94" points="527.9,475 527.9,471.3 527.9,468.2 527.9,464.4 527.9,462.3 516.5,462.3 516.5,464.4 516.5,468.2
	516.5,471.3 516.5,475 516.5,477.3 527.9,477.3 "/>
  <polygon class="st0" appId="5-2c86a" points="475.5,444.5 479,447.2 482.6,442.5 479.1,439.9 "/>
  <polygon class="st0" appId="5-2c81c" points="409.7,445.4 413.4,440.8 410.2,438.3 406.5,443 "/>
  <polygon class="st0" appId="5-2c78" points="440.2,489.1 449.6,477.1 440.2,469.8 431.7,480.7 434.8,483.1 434,484.1 435,484.9 434.8,485.1
	438.6,488.1 438.8,487.9 "/>
  <polygon class="st0" appId="5-2c75a" points="469.3,496.4 465.9,493.7 462.3,498.3 465.7,501 "/>
  <polygon class="st0" appId="5-2c69" points="589.6,462 589.6,461.8 584.6,461.8 584.6,463.5 582.8,463.5 582.8,477.2 591.4,477.2 591.4,462 "/>
  <polygon class="st0" appId="5-2c72a" points="546.4,474.2 550.7,474.2 550.7,468.3 546.4,468.3 "/>
  <polygon class="st0" appId="5-2c64" points="613.3,509.6 601.9,509.6 601.9,512.4 601.9,518 601.9,524.8 604.5,524.8 604.5,523.6 606.1,523.6
	606.1,524.8 607.4,524.8 607.4,525.1 612.3,525.1 612.3,524.8 613.3,524.8 613.3,518 "/>
  <polygon class="st0" appId="5-2c31c" points="462.9,454.3 459.7,458.5 468.4,465.3 471.6,461.2 "/>
  <polygon class="st0" appId="5-2c123b" points="509.6,477.7 509.6,483.5 532.2,483.5 532.2,482.2 532.2,477.7 "/>
  <polygon class="st0" appId="5-2c222" points="559.6,497.5 559.5,501.3 560.9,501.3 560.9,503 565.9,503 565.9,497.5 "/>
  <polygon class="st0" appId="5-2c05d" points="565.9,493.3 559.6,493.3 559.6,497.1 565.9,497.1 "/>
  <polygon class="st0" appId="5-2c11" points="551.3,483.9 544.5,483.9 544.5,494.8 551.3,494.8 "/>
  <polygon class="st0" appId="5-ME01" points="499.2,474.8 500.1,473.7 500.1,462.7 496.1,462.7 491.5,468.7 "/>
  <polygon class="st0" appId="5-2c92a" points="625,483.5 625,479.4 624.7,479.4 624.7,477.6 596.2,477.6 591.8,477.6 590.1,477.6 590.1,483.5
	606.4,483.5 614.7,483.5 615.7,483.5 "/>
  <polygon class="st0" appId="5-2c91f" points="562.3,509.3 562.3,503.4 558.8,503.4 558.8,501.6 551.7,501.6 551.7,503.4 544.2,503.4 535.8,503.2
	535.8,509.3 546.4,509.3 550.7,509.3 "/>
  <polygon class="st0" appId="5-2c84" points="461,425.6 459.6,424.5 459.7,424.3 455.9,421.3 455.7,421.5 454.1,420.2 444.7,432.2 451.6,437.6
	455.9,432.2 "/>
  <polygon class="st0" appId="5-2c80" points="418.1,469.9 426.6,459.1 418.2,452.5 414,457.9 408.8,464.5 409.9,465.4 409.8,465.5 413.6,468.6
	413.8,468.2 414.8,468.9 415.6,467.9 "/>
  <polygon class="st0" appId="5-2c83c" points="425.3,424.9 429,420.3 426,418 422.4,422.7 "/>
  <polygon class="st0" appId="5-2c67" points="628.4,463.4 627.2,463.4 627.2,461.8 620.9,461.8 620.9,462 618.8,462 618.8,468.9 618.8,477.2
	628.4,477.2 "/>
  <polygon class="st0" appId="5-2c67c" points="627.2,483.5 628.7,483.5 628.7,483.2 628.8,483.2 628.8,477.6 625,477.6 625,479.4 625,483.5 "/>
  <polygon class="st0" appId="5-2c65" points="628.4,509.6 618.4,509.6 618.4,516.5 618.4,524.9 620.9,524.9 620.9,525.1 627.2,525.1 627.2,523.5
	628.4,523.5 "/>
  <polygon class="st0" appId="5-2c60c" points="550.7,509.3 546.4,509.3 546.4,512.4 550.7,512.4 "/>
  <polygon class="st0" appId="5-2c45" points="465.2,480.9 468.6,476.5 463.3,472.4 459.9,476.8 "/>
  <polygon class="st0" appId="5-2c60a" points="546.4,518.5 550.7,518.5 550.7,512.7 546.4,512.7 "/>
  <polygon class="st0" appId="5-2c24" points="546,518 546,509.6 531,509.6 531,516.5 531,524.8 536.3,524.8 536.3,523.3 538.1,523.3 538.1,525
	544.2,525.1 544.2,524.8 546,524.8 "/>
  <polygon class="st0" appId="5-2c05a" points="566.2,489.1 566.2,497.7 576.9,497.8 576.9,489.1 "/>
  <polygon class="st0" appId="5-2c97a" points="471.1,486 477.8,491.2 478.7,490.1 476.7,488.5 488,474 483.4,470.3 "/>
  <polygon class="st0" appId="5-2c69a" points="591.8,468 596.2,468 596.2,462.2 591.8,462.2 "/>
  <polygon class="st0" appId="5-2c88" points="496.8,453.6 495.3,452.4 495.5,452.3 491.7,449.3 491.6,449.4 491.5,449.5 490.5,448.7 489.7,449.7
	489.1,449.3 480.6,460.2 487.5,465.6 "/>
  <polygon class="st0" appId="5-2c82c" points="421.3,447 423.1,448.5 426,444.7 424.1,443.3 "/>
  <polygon class="st0" appId="5-2c79a" points="440.6,489.2 444,491.9 447.6,487.3 444.2,484.6 "/>
  <polygon class="st0" appId="5-2c75c" points="468,491 466.1,493.5 469.5,496.2 471.4,493.7 "/>
  <polygon class="st0" appId="5-2c72c" points="546.4,477.6 550.7,477.6 550.7,474.5 546.4,474.5 "/>
  <polygon class="st0" appId="5-2c67b" points="618.4,468.3 614.1,468.3 614.1,477.2 618.4,477.2 "/>
  <polygon class="st0" appId="5-2c64a" points="597.2,518.5 601.6,518.5 601.6,512.7 597.2,512.7 "/>
  <polygon class="st0" appId="5-2c33" points="444.6,440.5 440.1,436.9 433.9,444.9 438.4,448.4 "/>
  <polygon class="st0" appId="5-2c23" points="521.3,483.9 521.3,492.4 529.9,492.4 529.9,483.9 "/>
  <polygon class="st0" appId="5-2c123a" points="500.4,473.8 499.3,475.3 497.1,473.6 493.5,478.2 500.2,483.5 509.6,483.5 509.6,477.7 507.1,477.7
	507.1,471.2 507.1,470.7 500.4,470.7 "/>
  <polygon class="st0" appId="5-2c03" points="536.1,497.1 530.2,497.1 530.2,502.9 536.1,502.9 "/>
  <polygon class="st0" appId="5-2c100" points="457.7,450.7 452,446.3 447,452.7 452.9,457.3 456.9,452.3 456.6,452.1 "/>
  <polygon class="st0" appId="5-st04" points="499.5,436.9 517.7,436.9 517.7,429.9 499.5,429.9 "/>
  <polygon class="st0" appId="5-2c96" points="462.2,479 458.6,483.7 468,491 471.4,493.7 477.3,498.3 481,493.7 477.8,491.2 471.1,486 "/>
  <polygon class="st0" appId="5-st02" points="438.5,427 438.8,427.3 438.7,427.4 441.1,429.3 441.2,429.2 444.3,431.6 453.3,420.1 447.5,415.6
	443.5,420.7 "/>
  <polygon class="st0" appId="5-2c84c" points="451.7,438.1 455.2,440.8 457,438.4 453.6,435.7 "/>
  <polygon class="st0" appId="5-2c79a" points="424.6,469.3 421.1,466.6 417.6,471.2 421,473.9 "/>
  <polygon class="st0" appId="5-2c78a" points="451.4,482.4 448,479.7 444.4,484.3 447.8,487 "/>
  <polygon class="st0" appId="5-2c68c" points="591.8,477.6 596.2,477.6 596.2,474.5 591.8,474.5 "/>
  <polygon class="st0" appId="5-2c70" points="573.8,468.9 573.8,477.2 582.4,477.2 582.4,463.5 580.6,463.5 580.6,461.8 575.5,461.8 575.5,462
	573.8,462 "/>
  <polygon class="st0" appId="5-2c65b" points="618,509.6 613.7,509.6 613.6,518.5 618,518.5 "/>
  <polygon class="st0" appId="5-2c61a" points="573.4,518.9 569.1,518.9 569.1,524.7 573.4,524.7 "/>
  <polygon class="st0" appId="5-2c40" points="482.9,470.4 477.2,466 470.7,474.4 476.3,478.8 "/>
  <polygon class="st0" appId="5-2c61" points="568.7,518.2 568.7,509.6 560.1,509.6 560.1,523.4 561.9,523.4 561.9,524.7 562,524.7 562,525.1
	566.9,525.1 566.9,524.9 568.7,524.9 "/>
  <polygon class="st0" appId="5-2c31b" points="453.9,465.9 450.6,470 459.4,476.8 462.6,472.7 "/>
  <polygon class="st0" appId="5-2c05b" points="566.2,503.4 577.3,503.4 577.3,498.1 566.2,498.1 "/>
  <path class="st0" appId="5-2c01" d="M505.6,510.8l0-1.5v-6.4h-28.8l-1,1.2l-4.1,5.3l0.9,0.7l-0.7,0.7H505.6z M483.5,509.1l0.1-0.2l0.1-0.2l0.1-0.2
	l0.1-0.1l0.2-0.1l0.2-0.1l0.2-0.1l0.2,0l0.2,0l0.2,0l0.1,0l0.2,0.1l0.2,0.1l0.1,0.1l0.1,0.2l0.1,0.2l0.1,0.2l0,0.2l0,0.2l-0.1,0.2
	l-0.1,0.2l-0.1,0.2l-0.1,0.1l-0.2,0.1l-0.2,0.1l-0.2,0.1l-0.2,0l-0.2,0l-0.2-0.1l-0.2-0.1l-0.2-0.1l-0.1-0.1l-0.1-0.2l-0.1-0.2
	l-0.1-0.2l0-0.2L483.5,509.1z"/>
  <polygon class="st0" appId="5-2c98a" points="440,436.4 450.2,444.4 453.9,439.8 451.7,438.1 429,420.3 425.3,424.9 432.6,430.7 433.5,431.3 "/>
  <polygon class="st0" appId="5-2c97b" points="459.6,451.7 458.3,453.4 457.1,452.5 447.5,464.8 448.6,465.7 447.3,467.4 450.6,470 453.9,465.9
	459.7,458.5 462.9,454.3 "/>
  <polygon class="st0" appId="5-2c88a" points="489.6,463.4 493.1,466.1 496.7,461.5 493.2,458.8 "/>
  <polygon class="st0" appId="5-2c79c" points="430.5,461.7 427.1,459 425.2,461.5 428.6,464.2 "/>
  <polygon class="st0" appId="5-2c82" points="425.9,444.2 433.2,434.9 420.4,424.9 413.3,434 413.4,434.1 413.3,434.3 "/>
  <polygon class="st0" appId="5-2c76" points="452.2,496.6 453.6,497.7 452.8,498.7 453,498.8 452.7,499.1 456.5,502.1 456.7,501.9 458.1,503.1
	467.5,491.1 460.7,485.8 "/>
  <polygon class="st0" appId="5-2c67a" points="618.4,468 618.4,462.2 614.1,462.2 614.1,468 "/>
  <polygon class="st0" appId="5-2c71a" points="569.1,468 573.5,468 573.5,462.2 569.1,462.2 "/>
  <polygon class="st0" appId="5-2c63a" points="601.6,518.9 597.2,518.9 597.2,524.7 601.6,524.7 "/>
  <polygon class="st0" appId="5-2c50" points="506.5,483.9 500,483.9 498.7,485.6 498.7,496.5 506.5,496.5 "/>
  <polygon class="st0" appId="5-2c25" points="523.2,517.8 523.2,509.2 514.2,509.2 514.2,516.3 514.2,524.9 523.2,524.9 "/>
  <polygon class="st0" appId="5-2c31a" points="454.4,465.8 462.9,472.4 468.2,465.6 459.7,459 "/>
  <polygon class="st0" appId="5-2c24a" points="550.7,518.9 546.4,518.9 546.4,524.7 550.7,524.7 "/>
  <polygon class="st0" appId="5-2c07" points="583.7,483.9 583.7,488.8 583.7,490.3 594.5,490.3 594.5,483.9 "/>
  <polygon class="st0" appId="5-st05" points="606.4,477 606.4,477.2 609.4,477.2 609.4,477 613.3,477 613.3,462.5 606,462.5 606,477 "/>
  <polygon class="st0" appId="5-2c93" points="500.4,458.1 507.1,458.1 507.1,445.5 507.1,440.2 507.1,437.6 499.4,437.6 499.4,454.2 500.4,455.1
	500.4,456.4 "/>
  <polygon class="st0" appId="5-2c97c" points="427.8,452.1 440,436.4 433.5,431.3 431.9,433.4 433.1,434.3 433.2,434.2 433.8,434.8 426,444.7
	423.1,448.5 "/>
  <polygon class="st0" appId="5-2c86c" points="471.5,449.6 469.6,452.1 473,454.8 474.9,452.3 "/>
  <polygon class="st0" appId="5-2c81" points="398.1,454.4 399,455.1 398.1,456.2 398.9,456.8 398.8,457 402.7,460 402.8,459.9 404.8,461.4
	414.2,449.4 406.6,443.5 "/>
  <polygon class="st0" appId="5-2c86" points="471.2,435.4 462.7,446.3 469.5,451.6 473.8,446.2 478.9,439.6 477.5,438.5 477.6,438.3 473.7,435.2
	472.6,436.6 "/>
  <polygon class="st0" appId="5-2c68a" points="591.8,474.2 596.2,474.2 596.2,468.3 591.8,468.3 "/>
  <polygon class="st0" appId="5-2c73" points="544.2,462 544.2,461.8 538,461.8 538,462 537.4,462 537.4,477.2 546,477.2 546,462 "/>
  <polygon class="st0" appId="5-2c62" points="585.2,509.6 573.8,509.6 573.8,512.4 573.8,518 573.8,524.9 575.6,524.9 575.6,525.1 580.5,525.1
	580.5,524.7 581.7,524.7 581.7,523.4 585.2,523.4 "/>
  <polygon class="st0" appId="5-2c44" points="486.7,490.1 482.2,486.6 481.2,487.9 480.9,487.7 481.9,486.4 480,484.9 477.2,488.4 479.2,490
	478.3,491.1 481.8,493.9 482.8,492.7 484,493.6 484.8,492.6 "/>
  <polygon class="st0" appId="5-2c31d" points="465.9,469.1 464.9,470.4 464.6,470.2 463.3,471.8 468.8,476.2 471.1,473.2 "/>
  <polygon class="st0" appId="5-2c21" points="536.1,483.8 530.2,483.9 530.2,489.8 536.1,489.8 "/>
  <polygon class="st0" appId="5-2c10" points="551.3,495.2 544.5,495.2 544.5,503 551.3,503 "/>
  <path class="st0" appId="5-2c01a" d="M535.4,503.2l-11.8,0h-8.8v-6.1l0-0.2l-27.1,0v-1.6l-2.8-2.2l-1.7,2.2l-1.9-1.5l-3.7,4.6l1.6,1.3l-2.4,3.1h28.8
	v6.4h0.2v-0.4l29.7,0L535.4,503.2z M508.5,502.5l-0.1,0.2l-0.1,0.2l-0.1,0.2l-0.1,0.1l-0.2,0.1l-0.2,0.1l-0.2,0.1l-0.2,0l-0.2,0
	l-0.2-0.1l-0.2-0.1l-0.2-0.1l-0.1-0.1l-0.1-0.2l-0.1-0.2l-0.1-0.2l0-0.2l0-0.2l0.1-0.2l0.1-0.2l0.1-0.2l0.1-0.1l0.2-0.1l0.2-0.1
	l0.2-0.1l0.2,0l0.2,0l0.2,0.1l0.2,0.1l0.1,0.1l0,0l0.1,0.1l0.1,0.2l0.1,0.2l0.1,0.2l0,0.2L508.5,502.5z"/>
  <polygon class="st0" appId="5-2c01b" points="514.8,497.2 514.8,503.2 523.6,503.2 523.6,497.2 "/>
  <polygon class="st0" appId="5-2c98" points="491,468.8 487.5,466.1 477.9,458.6 474.3,463.3 483.4,470.3 488,474 493.2,478 496.9,473.4 "/>
  <polygon class="st0" appId="5-2c91a" points="544.2,483.5 538.3,483.5 538.3,485.6 536.5,485.6 536.5,491.4 538.3,491.4 538.3,497 536.5,497
	536.5,501.3 538.2,501.3 538.2,503.2 535.8,503.2 544.2,503.4 "/>
  <polygon class="st0" appId="5-2c88c" points="487.5,466.1 491,468.8 492.9,466.3 489.4,463.6 "/>
  <polygon class="st0" appId="5-2c83" points="443.5,411.9 441.3,410.2 441.4,410 437.6,407 437.5,407.2 436.8,406.7 436,407.8 435.1,407.1
	426.5,418 434.1,423.9 438.3,418.5 "/>
  <polygon class="st0" appId="5-2c84a" points="457.6,430.5 461.1,433.2 464.7,428.6 461.2,425.9 "/>
  <polygon class="st0" appId="5-2c79" points="430.4,481.7 439.9,469.6 430.6,462.2 421.2,474.2 426,478 425.9,478.1 "/>
  <polygon class="st0" appId="5-2c75" points="478.5,499.7 471.5,494.2 467.3,499.6 462.1,506.2 463.6,507.3 463.4,507.5 467.2,510.5 467.5,510.2
	467.8,510.4 468.6,509.4 470,510.5 "/>
  <polygon class="st0" appId="5-2c76a" points="458.5,503.2 461.9,505.9 465.5,501.3 462.1,498.6 "/>
  <polygon class="st0" appId="5-2c64c" points="601.6,509.3 597.2,509.3 597.2,512.4 601.6,512.4 "/>
  <polygon class="st0" appId="5-2c51" points="512.6,483.9 508.4,483.9 508.4,485.5 507,485.5 507,496.7 512.6,496.7 "/>
  <polygon class="st0" appId="5-2c32" points="429.3,450.7 437.5,457.1 436.5,458.5 440,461.2 445.4,454.3 433.7,445.1 "/>
  <polygon class="st0" appId="5-2c20" points="499.7,483.6 495.1,480 490.6,485.8 485.1,492.8 488.1,495.2 488.1,496.7 493.9,496.7 493.9,495.2
	494.2,495.2 494.2,496.6 498.3,496.6 498.3,485.5 "/>
  <polygon class="st0" appId="5-2c19" points="538,491.7 536.1,491.7 536.1,490.3 530.2,490.3 530.2,493.2 530.2,496.7 538,496.7 "/>
  <polygon class="st0" appId="5-2c120" points="517.8,447.9 507.4,447.9 507.4,459.1 508.2,459.1 508.2,461.8 517.8,461.7 "/>
  <polygon appArea="22" *ngIf="isAreasRoute" xmlns="http://www.w3.org/2000/svg" id="Zone_x5F_B" fill="#FF0000" class="st1" points="406.7,443.3 398,454.4 398.9,455.1 398,456.2 398.8,456.8 398.7,457 402.7,460.1   402.8,460 404.8,461.5 404.9,461.4 408.7,464.4 408.7,464.5 409.8,465.4 409.7,465.5 413.6,468.8 413.8,468.3 414.8,469 415.6,468   418.3,470.2 417.5,471.2 421.1,474.1 421.1,474.2 425.9,478 425.8,478.1 430.4,481.8 431.4,480.6 434.7,483.1 433.9,484.1   434.9,484.9 434.6,485.1 438.6,488.2 438.8,488 440.2,489.2 440.3,489.1 444.1,492.1 444.1,492.2 445.5,493.3 445.3,493.5   449.4,496.6 449.6,496.4 449.7,496.5 450.5,495.3 451.9,496.5 452.1,496.6 453.5,497.7 452.6,498.7 452.8,498.8 452.5,499.1   456.5,502.2 456.7,502 458.1,503.2 458.2,503.1 462,506.1 462,506.2 463.4,507.3 463.2,507.5 467.2,510.6 467.5,510.3 467.8,510.5   468.6,509.5 470,510.6 471.2,509.1 472.4,510.1 471.7,510.9 500,510.9 500.2,455.8 496.7,453.9 496.9,453.6 495.5,452.4   495.7,452.3 491.7,449.2 491.5,449.4 490.5,448.6 489.7,449.6 489.1,449.2 489,449.1 488.5,448.7 489.3,447.6 488.3,446.8   488.4,446.7 484.5,443.6 484.3,443.8 482.9,442.6 482.7,442.5 479,439.7 479,439.6 477.6,438.5 477.7,438.3 473.7,435.1   472.6,436.5 471.2,435.3 471,435.2 469.6,434.1 470.6,432.8 466.6,429.5 466.5,429.7 465,428.6 464.9,428.6 461.1,425.7   461.1,425.6 459.7,424.5 459.8,424.3 455.9,421.2 455.7,421.4 454.1,420.1 453.8,420.4 447.1,415.1 447.2,414.9 443.6,412   443.6,411.9 441.4,410.2 441.5,410 437.6,406.8 437.5,407.1 436.8,406.6 436,407.7 435.1,407 426.3,418.1 426,417.9 422.3,422.7   423.4,423.6 421.8,425.9 420.4,424.8 413.2,434 413.3,434.1 413.2,434.3 414.5,435.3 411.5,439.2 410.2,438.2 406.4,443 "/>
  <polygon appArea="21" *ngIf="isAreasRoute" xmlns="http://www.w3.org/2000/svg" id="Zone_x5F_A" fill="#00FFA3" points="499.4,429.8 499.4,437.5 499.3,437.5 499.3,454.2 500.3,455.1 500.1,510.9   505.7,510.9 505.7,509.3 505.9,509.3 505.9,508.9 514.1,508.9 514.1,525 523.3,525 523.3,524.9 530.9,524.9 536.4,524.9   536.4,523.4 538,523.4 538,525.1 544.3,525.2 544.3,524.9 546.1,524.9 546.1,524.8 551,524.8 551,524.9 552.8,524.9 552.8,525.2   557.9,525.2 557.9,524.8 558,524.8 558,523.5 561.8,523.5 561.8,524.8 561.9,524.8 561.9,525.2 567,525.2 567,525 568.8,525   568.8,524.8 573.7,524.8 573.7,525 575.5,525 575.5,525.2 580.6,525.2 580.6,524.8 581.8,524.8 581.8,523.5 585.4,523.5   585.4,524.9 587,524.9 587,525.2 591.9,525.2 591.9,524.9 597,524.9 597,524.8 601.8,524.8 601.8,524.9 604.6,524.9 604.6,523.7   606,523.7 606,524.9 607.3,524.9 607.3,525.2 612.4,525.2 612.4,524.9 613.4,524.9 613.4,524.8 618.3,524.8 618.3,525 620.8,525   620.8,525.2 627.3,525.2 627.3,523.6 628.5,523.6 628.5,508.2 628.7,508.2 628.7,503.3 627.3,503.3 627.3,498.4 628.8,498.4   628.8,497.9 628.9,497.9 628.9,486.7 628.8,486.7 628.8,486.4 627.3,486.4 627.3,483.6 628.8,483.6 628.8,483.3 628.9,483.3   628.9,477.5 628.5,477.5 628.5,463.3 627.3,463.3 627.3,461.7 620.8,461.7 620.8,461.9 618.7,461.9 618.7,462.1 614,462.1   614,462.4 605.4,462.4 605.4,461.8 598.1,461.8 598.1,461.9 596.4,461.9 596.4,462.1 591.5,462.1 591.5,461.9 589.7,461.9   589.7,461.7 584.5,461.7 584.5,463.4 580.7,463.4 580.7,461.7 575.4,461.7 575.4,461.9 573.7,461.9 573.7,462.1 568.8,462.1   568.8,461.9 567,461.9 567,461.7 561.8,461.7 561.8,463.4 558,463.4 558,461.7 552.8,461.7 552.8,461.9 551,461.9 551,462   546.1,462 546.1,461.9 544.3,461.9 544.3,461.7 537.9,461.7 537.9,461.9 537.3,461.9 537.3,477.5 532.5,477.5 532.5,477.6   528,477.6 528,462.2 517.9,462.2 517.9,447.8 507.2,447.8 507.2,437 517.8,437 517.8,429.8 "/>
  <text class="text a" id="one" x="570.85" y="500.6" font-weight="bold" font-size="22.99px">A</text>
  <text class="text b" id="one" x="450" y="472" font-weight="bold" font-size="22.99px">B</text>

</svg>
