<svg version="1.1" id="Слой_1" xmlns="http://www.w3.org/2000/svg" xmlns:xlink="http://www.w3.org/1999/xlink" x="0px" y="0px"
     viewBox="300 300 500 400" style="enable-background:new 0 0 1024 1024;" xml:space="preserve">
  <desc>, (Blender 2.93.1)</desc>
  <g>
	<path class="st0" appId="4-ss10" d="M628.3,483.8v-20.5h-1.4v-0.9h-13.4v21.9h-7.9v0.9h-1.4v-1.4h0.8v-21.5l-21.9,0v1h-1.7v-0.9h-21v0.9h-1.7v-0.9
		h-21.7v15.2v6.1h0.6v1.5h-1.4V484H521v13l-14.4,0v4.5h1.3v1.4h-1.3v6.3l23.9,0v15.7h5.6v-1.4h1.6v1.3l21.1,0l0-1.3h1.7l0,1.2
		l21,0.2v-1.4h1.7v1.4h21v-1.4h1.7v1.4h21.1v-1.4h1.4V503l-1.4,0v-1.4h1.4v-16.3l-1.4,0v-1.4H628.3z M537.8,503.1h-1.7v-1.7h1.7
		V503.1z M560.4,503.1h-1.7V502h-7.6l0-10.8h8v10.2h1.2V503.1z M560.4,485.4h-0.9h-0.7v-1.7h1.7V485.4z M583.1,503.1h-1.7v-1.7h1.7
		V503.1z M583.1,485.4h-1.7v-1.7h1.7V485.4z M605.7,503.1h-1.7v-1.7h0.1h1.5h0.1V503.1z"/>
    <polygon class="st0" appId="4-2f70" points="435.7,429.7 437.3,427.7 447,415.3 435.8,406.5 422.5,423.4 433.8,432.1 	"/>

    <rect x="438.6" y="420.1" appId="4-st02" transform="matrix(0.6156 -0.788 0.788 0.6156 -162.5454 514.1641)" class="st0" width="14.5" height="7.3"/>
    <polygon class="st0" appId="4-st02a" points="438,427.6 437.7,427.9 436.1,430 434.2,432.5 440.1,437.1 443.5,432.8 442,431.6 442.5,431.1 	"/>
    <polygon class="st0" appId="4-ss20a" points="446.7,453.1 440.9,460.5 446.8,465.1 446.9,464.9 447,465 452.7,457.8 	"/>
    <path class="st0" appId="4-ss20" d="M498.1,483.6h0.7v-0.9v-4.5l0-21.7l-1,0V455l0.3,0v-0.5l-7.8-5.9l-0.8,1l-1.1-0.9l0.8-1L472.2,435l-0.6,0.7
		l-1.1-0.9l0.6-0.7l-17.4-13.6l-13.2,16.9l0.6,0.5l-0.9,1.1l-1.1-0.9l0.5-0.6l-16.7-13.1l-0.5,0.6l-1.1-0.9l-10,12.8l1.1,0.9
		l-0.9,1.1l-1.1-0.9l-12.6,16.2l1.1,0.9l-0.9,1.1l16.7,13.1l0.9-1.1l1.1,0.9l-0.9,1.1l16.7,13.1l0.9-1.1l1.1,0.9l-0.9,1.1l16.7,13.1
		l0.9-1.1l1.1,0.9l-0.9,1.1l16.7,13.1l0.9-1.1l1,0.8l1.3-1.7l1,0.8l-0.7,0.8l0,0.3h33.6v-1.8l0.9,0V497h-8.2V483.6z M429.3,453
		l-1.1-0.9l0.9-1.1l1.1,0.9L429.3,453z M493.5,478.9l1.1,0.9l-0.6,0.8l-0.3,0.3l-1.1-0.9L493.5,478.9z M475.7,465L475.7,465l1.1,0.9
		l-0.9,1.1l-1.1-0.9L475.7,465z M457.8,451l1.1,0.9l-0.9,1.1l-0.8-0.6l-0.3-0.3L457.8,451z M447.3,465.2l0.7,0.6l-0.9,1.1l-1.1-0.9
		l0.5-0.6l-6.2-4.8l6.3-8l6.6,5.1L447.3,465.2z M465,480.9l-1.1-0.9l0.9-1.1l1.1,0.9L465,480.9z M482.9,494.8l-1.1-0.9l0.9-1.1
		l1.1,0.9L482.9,494.8z"/>
    <polygon appId="4-2F120A" class="st0" points="499.2,483.6 530,483.7 530,477.6 506.8,477.7 506.8,463.4 506.4,463.4 506.4,461.7 506.8,461.7
		506.8,437.6 499.2,437.6 499.2,456.5 499.2,478.2 499.2,482.7 	"/>
    <rect appId="4-2F94b" x="507.5" y="462.5" class="st0" width="8" height="7.1"/>
    <rect appId="4-2F94A" x="507.5" y="470" class="st0" width="8" height="7"/>
    <polygon class="st0" appId="4-2f94" points="516.1,477.1 527.7,477 527.7,462.4 516.1,462.4 	"/>
    <polygon class="st0" appId="4-2f120" points="507.1,459.2 507.9,459.2 507.9,461.9 517.6,461.9 517.6,447.9 507.2,447.9 	"/>
    <polygon class="st0" appId="4-st04a" points="507.5,437.9 507.5,447.4 516.9,447.3 516.9,437.9 	"/>
    <rect appId="4-st04" x="499.3" y="430" class="st0" width="18.1" height="7"/>
    <rect x="528.3" appId="4-2F25c" y="462.5" class="st0" width="8" height="7.1"/>
    <rect x="528.3" y="470" appId="4-2F24d" class="st0" width="8" height="7"/>
    <rect appId="4-2F120b" x="530.5" y="477.6" class="st0" width="6.2" height="6.1"/>
    <rect appId="4-2f52" x="512.5" y="484" class="st0" width="8.1" height="12.6"/>
    <polygon class="st0" appId="4-2f51" points="506.8,485.4 506.8,496.6 512.2,496.6 512.2,484 508,484 508,485.4 	"/>
    <polygon class="st0" appId="4-2f50" points="506.3,484 498.5,484 498.5,496.6 506.5,496.6 506.5,485.4 506.3,485.4 	"/>
    <rect x="507" y="509.8" class="st0" width="6.3" height="7.1"/>
    <rect x="507" appId="4-2F25a" y="517.3" class="st0" width="6.3" height="7"/>
    <polygon class="st0" appId="4-2f25" points="513.8,509.7 513.8,524.6 523,524.6 523,509.7 	"/>
    <rect x="523.6" y="509.8" class="st0" width="6.3" height="7.1"/>
    <rect x="523.6" appId="4-2F25b" y="517.3" class="st0" width="6.3" height="7"/>
    <rect x="605.6" appId="4-st05" y="462.5" class="st0" width="7.3" height="14.5"/>
    <rect appId="4-st05a" x="605.4" y="477.6" class="st0" width="7.6" height="6.3"/>
    <rect appId="4-SS10A" x="551.5" y="491.5" class="st0" width="7.3" height="10.2"/>
</g>
  <text class="text a" id="one" x="570.85" y="500.6" font-weight="bold" font-size="22.99px">A</text>
  <text class="text b" x="450" y="470"  font-weight="bold" font-size="22.99px">B</text>
  <polygon appArea="17" *ngIf="isAreasRoute" fill="#FF0000" xmlns="http://www.w3.org/2000/svg" id="Zone_x5F_B_00000075849222125521079000000003516130674831325842_" class="" points="394.8,453.6 414.8,469.2   415.6,468.2 416.6,469 417.4,468 422.4,472 420.9,474 432.7,483.2 433.5,482.2 434.8,483.1 434,484.2 450.6,497.2 451.4,496.2   453.1,497.6 452.4,498.6 463.3,507.2 465.1,505 470,508.8 470.6,508.1 472,509.1 471.1,510.1 500,510.1 500.2,456.6 497.9,456.6   497.9,454.8 498.1,454.5 491.2,449 490.3,450.1 488.5,448.7 489.3,447.6 472.6,434.5 471.8,435.7 470.6,434.7 471.4,433.6 454,420   453.7,420.3 447.1,415.2 447.2,415.1 442.7,411.6 433.3,423.7 424,416.4 "/>
  <polygon appArea="16" *ngIf="isAreasRoute" fill="#00FFA3" xmlns="http://www.w3.org/2000/svg" id="Zone_x5F_A_00000176008297453959649250000007867020320330304143_" class="" points="635.3,462.1 633.1,462.1   633.1,461.9 614,461.9 614,462.3 605.3,462.3 605.3,461.7 537.1,461.9 537.3,477.5 528,477.5 528,462.2 517.9,462.2 517.9,447.8   507.3,447.8 507.3,437 517.8,437 517.8,429.8 499.5,429.8 499.5,437.4 499.3,437.4 499.3,455 500.3,455.8 500.1,510.1 503.2,510.1   503.2,510.2 506.6,510.2 506.6,509.4 514.1,509.4 514.1,525.2 554.8,525.1 559.1,525.1 635.3,525.1 "/>

</svg>
